<svg width="480" height="480" viewBox="0 0 480 480" fill="none" xmlns="http://www.w3.org/2000/svg">
<path d="M406.473 255.353C423.214 258.982 438.757 267.949 450.277 280.628C452.353 282.913 454.315 285.332 455.784 288.045C459.579 295.05 459.815 303.364 459.962 311.329C460.132 320.495 460.159 330.225 455.389 338.051C451.053 345.168 444.771 350.312 437.033 353.408C436.93 366.654 435.142 379.883 431.728 392.683C429.768 400.025 426.734 407.895 420.034 411.479C415.005 414.171 408.975 413.848 403.369 414.908C398.036 415.913 392.956 418.239 388.71 421.619C383.962 425.397 380.053 430.573 374.321 432.561C370.872 433.758 367.126 433.65 363.478 433.528C358.35 433.356 353.224 433.186 348.096 433.015C345.259 432.919 342.376 432.83 339.622 433.526C332.969 435.204 328.189 441.114 321.813 443.653C317.85 445.23 313.469 445.421 309.215 445.129C299.582 444.464 289.551 441.969 281.369 436.841C274.315 444.692 263.777 449.294 253.226 449.133C242.672 448.972 231.464 444.545 224.654 436.483C216.562 439.277 207.329 438.567 199.761 434.571C198.785 434.056 197.779 433.472 196.674 433.462C195.118 433.449 193.814 434.554 192.585 435.508C184.7 441.629 173.671 443.453 164.236 440.191C157.697 437.931 151.977 433.441 145.202 432.038C139.224 430.8 133.034 432.096 127.124 433.627C121.214 435.161 115.244 436.951 109.143 436.702C103.043 436.454 96.6382 433.722 93.8032 428.317C91.8455 424.586 91.7586 419.992 89.3188 416.559C85.7284 411.508 78.6574 410.843 72.499 410.15C64.7781 409.281 56.4406 407.214 51.799 400.983C48.1528 396.087 47.5609 389.626 47.2588 383.53C46.7684 373.622 45.7316 364.262 46.0772 354.345C41.626 352.158 37.3155 349.681 33.185 346.935C26.0415 342.186 19.0036 335.936 17.3833 327.512C16.0278 320.47 18.7677 313.262 22.387 307.068C26.0064 300.877 30.5631 295.199 33.4023 288.612C35.4737 283.807 36.6491 278.492 39.898 274.389C43.0021 270.465 47.6478 268.112 52.2398 266.13C58.9197 263.247 65.8252 260.886 72.8714 259.078L406.473 255.353Z" fill="#A5F5EC" stroke="black" stroke-miterlimit="10"/>
<g filter="url(#filter0_d_95_6010)">
<path d="M360 360C426.274 293.726 426.274 186.274 360 120C293.726 53.7259 186.274 53.7259 120 120C53.7259 186.274 53.7259 293.726 120 360C186.274 426.274 293.726 426.274 360 360Z" fill="black"/>
</g>
<path d="M239.003 400.896C242.715 400.099 246.68 400.521 250.14 402.084" stroke="black" stroke-miterlimit="10" stroke-linecap="round" stroke-linejoin="round"/>
<path d="M403.243 302.559C407.191 297.721 412.664 294.145 418.682 292.473" stroke="black" stroke-miterlimit="10" stroke-linecap="round" stroke-linejoin="round"/>
<path d="M410.024 303.029C398.181 302.516 386.203 307.162 377.804 315.528C375.443 317.881 373.324 320.565 372.165 323.692C371.006 326.816 370.743 331.773 372.274 334.734C364.996 332.311 358.799 327.965 352.475 323.623C349.958 321.896 348.135 319.363 346.138 317.053C338.126 307.786 326.541 301.692 314.367 300.335C302.193 298.979 289.181 302.596 279.324 309.872C268.473 305.44 255.1 308.06 246.721 316.258C245.571 317.384 244.491 318.634 243.909 320.134C242.637 323.416 243.986 327.083 245.455 330.281C248.211 336.286 251.485 342.457 255.14 347.961C249.304 343.775 241.053 342.943 234.115 344.791C232.836 339.363 229.037 334.585 224.037 332.114C219.037 329.643 212.883 330.566 207.797 332.849C209.212 327.721 206.491 322.196 202.52 318.655C197.431 314.119 190.219 312.074 183.508 313.266C173.503 315.042 165.561 323.824 158.903 331.499C157.418 325.355 152.791 318.638 146.595 317.38C136.06 315.242 125.462 320.306 116.359 326.024C107.38 331.663 97.7349 338.55 89.8754 345.666L52.4943 376.657C52.4943 376.657 104.055 425.441 177.873 426.479C177.873 426.479 225.181 436.336 253.999 433.741C253.999 433.741 355.701 453.495 413.153 388.631C413.153 388.631 427.258 327.425 410.024 303.029Z" fill="#A5F5EC"/>
<path d="M410.024 303.029C398.181 302.516 386.203 307.162 377.804 315.528C375.443 317.881 373.324 320.565 372.165 323.692C371.006 326.816 370.743 331.773 372.274 334.734C364.996 332.311 358.799 327.965 352.475 323.623C349.958 321.896 348.135 319.363 346.138 317.053C338.126 307.786 326.541 301.692 314.367 300.335C302.193 298.979 289.181 302.596 279.324 309.872C268.473 305.44 255.1 308.06 246.721 316.258C245.571 317.384 244.491 318.634 243.909 320.134C242.637 323.416 243.986 327.083 245.455 330.281C248.211 336.286 251.485 342.457 255.14 347.961C249.304 343.775 241.053 342.943 234.115 344.791C232.836 339.363 229.037 334.585 224.037 332.114C219.037 329.643 212.883 330.566 207.797 332.849C209.212 327.721 206.491 322.196 202.52 318.655C197.431 314.119 190.219 312.074 183.508 313.266C173.503 315.042 165.561 323.824 158.904 331.499C157.418 325.355 152.791 318.638 146.595 317.38C136.06 315.242 125.462 320.306 116.359 326.024C107.38 331.663 97.7349 338.55 89.8754 345.666C91.2184 340.054 89.3208 334.14 86.5499 329.078C79.5596 316.314 66.6426 306.959 52.337 304.295C49.3219 303.735 45.8226 303.569 42.8138 304.178C39.807 304.784 36.8705 306.17 34.8984 308.521" stroke="black" stroke-miterlimit="10" stroke-linecap="round" stroke-linejoin="round"/>
<path d="M224.654 436.483C222.017 431.185 219.797 425.888 219.758 419.971C219.718 414.055 221.732 407.969 226.009 403.882" stroke="black" stroke-miterlimit="10" stroke-linecap="round" stroke-linejoin="round"/>
<path d="M130.129 330.09C127.395 332.675 124.566 335.889 124.889 339.638C125.061 341.644 126.154 343.479 127.559 344.919C130.559 347.997 135.124 349.464 139.356 348.711C144.362 347.819 148.397 344.17 151.805 340.396C159.851 331.495 166.105 320.993 170.134 309.695C170.885 307.586 172.348 305.376 169.656 304.633C167.506 304.039 164.288 306.305 162.533 307.203C156.964 310.051 151.586 313.275 146.448 316.84C140.685 320.838 135.224 325.271 130.129 330.09Z" fill="#D5B993" stroke="black" stroke-miterlimit="10"/>
<path d="M179.02 321.204C176.644 324.393 174.401 327.781 173.331 331.611C172.261 335.442 172.512 339.814 174.827 343.049C177.493 346.776 182.546 348.342 187.061 347.55C191.575 346.757 195.533 343.91 198.453 340.377C201.373 336.845 203.366 332.65 205.156 328.433C207.347 323.27 209.284 317.987 210.737 312.565C212.099 307.478 214.243 300.467 213.411 295.163C212.488 289.28 205.924 295.354 203.368 297.206C198.996 300.374 194.848 303.855 190.97 307.613C186.631 311.809 182.629 316.36 179.02 321.204Z" fill="#D5B993" stroke="black" stroke-miterlimit="10"/>
<path d="M208.008 341.991C205.971 344.911 204.041 347.976 203.06 351.399C202.079 354.821 202.145 358.679 203.95 361.748C205.754 364.817 209.531 366.824 212.976 365.934C216.674 364.978 218.89 361.286 220.579 357.859C226.804 345.226 231.265 331.727 233.796 317.873C233.953 317.006 234.036 316.246 233.707 315.445C228.65 317.542 223.567 323.696 219.795 327.628C215.501 332.1 211.555 336.907 208.008 341.991Z" fill="#D5B993" stroke="black" stroke-miterlimit="10"/>
<path d="M51.1244 350.01C53.6863 354.389 57.7381 357.698 61.9783 360.485C68.0746 364.49 74.7463 367.618 81.7242 369.744C82.9493 370.116 84.4744 370.385 85.3436 369.444C85.7554 368.997 85.9085 368.368 85.9582 367.763C86.1423 365.533 85.1573 363.385 84.1288 361.396C79.959 353.321 74.6821 345.82 68.4926 339.167C64.5298 334.908 57.2394 329.521 51.3562 333.89C46.6442 337.385 48.6929 345.849 51.1244 350.01Z" fill="#D5B993" stroke="black" stroke-miterlimit="10"/>
<path d="M254.922 335.477C257.803 338.988 261.147 342.304 265.35 344.025C269.553 345.747 274.774 345.579 278.223 342.626C281.557 339.773 282.594 334.885 281.764 330.576C280.932 326.268 278.513 322.44 275.858 318.947C267.86 308.424 257.426 300.03 246.454 292.79C239.801 288.399 238.527 292.324 239.385 298.472C240.279 304.881 241.653 311.071 244.075 317.095C246.734 323.721 250.39 329.954 254.922 335.477Z" fill="#D5B993" stroke="black" stroke-miterlimit="10"/>
<path d="M294.265 328.075C297.808 331.017 301.804 333.795 306.386 334.27C310.967 334.744 316.159 332.118 317.066 327.603C318.055 322.68 313.914 318.345 310.057 315.129C302.657 308.96 294.921 303.193 286.898 297.86C282.472 294.917 276.705 290.89 271.165 290.739C265.021 290.569 270.73 298.841 272.262 301.581C277.897 311.654 285.386 320.695 294.265 328.075Z" fill="#D5B993" stroke="black" stroke-miterlimit="10"/>
<path d="M229.666 416.756C231.994 422.347 236.265 427.939 242.287 428.58C243.984 428.76 245.759 428.51 247.241 427.665C250.241 425.956 251.498 422.093 251.017 418.672C250.537 415.251 248.648 412.203 246.595 409.426C241.79 402.928 235.832 397.285 229.086 392.836C228.631 392.536 228.136 392.229 227.592 392.24C223.267 392.32 228.602 414.2 229.666 416.756Z" fill="#D5B993" stroke="black" stroke-miterlimit="10"/>
<path d="M229.515 370.286C231.88 374.369 234.758 378.371 238.885 380.658C243.011 382.946 248.648 383.07 252.093 379.848C254.943 377.185 255.7 372.831 254.904 369.011C254.107 365.191 251.99 361.791 249.774 358.582C243.593 349.634 236.356 341.455 228.71 333.724C226.88 331.874 220.649 324.64 217.597 326.982C215.263 328.774 217.81 336.346 218.239 338.562C220.372 349.619 223.851 360.51 229.515 370.286Z" fill="#D5B993" stroke="black" stroke-miterlimit="10"/>
<path d="M379.699 346.153C386.255 347.326 393.165 347.161 399.383 344.779C404.567 342.792 409.554 338.552 409.796 333.006C410.049 327.206 404.762 322.295 399.073 321.136C393.384 319.977 387.515 321.711 382.131 323.882C374.836 326.825 367.906 330.595 361.139 334.606C360.015 335.272 358.805 336.058 358.447 337.315C357.379 341.058 376.591 345.596 379.699 346.153Z" fill="#D5B993" stroke="black" stroke-miterlimit="10"/>
<path d="M283.329 362.139C286.067 361.12 288.626 359.628 290.863 357.751" stroke="black" stroke-miterlimit="10" stroke-linecap="round" stroke-linejoin="round"/>
<path d="M286.716 369.988C290.667 369.282 294.34 367.12 296.873 364.007" stroke="black" stroke-miterlimit="10" stroke-linecap="round" stroke-linejoin="round"/>
<path d="M281.272 357.52C283.227 356.804 285.013 355.624 286.441 354.107" stroke="black" stroke-miterlimit="10" stroke-linecap="round" stroke-linejoin="round"/>
<path d="M325.693 356.851C329.985 354.494 333.848 351.355 337.037 347.639" stroke="black" stroke-miterlimit="10" stroke-linecap="round" stroke-linejoin="round"/>
<path d="M320.964 352.369C323.046 351.75 324.956 350.556 326.421 348.953" stroke="black" stroke-miterlimit="10" stroke-linecap="round" stroke-linejoin="round"/>
<path d="M316.786 399.739C321.943 398.357 326.649 395.342 330.059 391.234" stroke="black" stroke-miterlimit="10" stroke-linecap="round" stroke-linejoin="round"/>
<path d="M323.802 401.622C325.894 401.417 327.872 400.25 329.066 398.52" stroke="black" stroke-miterlimit="10" stroke-linecap="round" stroke-linejoin="round"/>
<path d="M366.6 388.629C372.241 387.023 377.047 382.714 379.259 377.282" stroke="black" stroke-miterlimit="10" stroke-linecap="round" stroke-linejoin="round"/>
<path d="M373.376 390.278C376.471 389.208 379.161 387.002 380.817 384.176" stroke="black" stroke-miterlimit="10" stroke-linecap="round" stroke-linejoin="round"/>
<path d="M250.165 387.702C253.635 386.915 256.764 384.722 258.685 381.727" stroke="black" stroke-miterlimit="10" stroke-linecap="round" stroke-linejoin="round"/>
<path d="M400.776 353.584C404.399 355.546 407.423 358.594 409.358 362.23" stroke="black" stroke-miterlimit="10" stroke-linecap="round" stroke-linejoin="round"/>
<path d="M439.192 333.879C439.241 339.415 437.379 344.946 434.039 349.19" stroke="black" stroke-miterlimit="10" stroke-linecap="round" stroke-linejoin="round"/>
<path d="M452.699 302.791C454.228 308.606 454.925 314.64 454.762 320.652" stroke="black" stroke-miterlimit="10" stroke-linecap="round" stroke-linejoin="round"/>
<path d="M405.707 276.632C407.845 274.71 410.403 273.257 413.149 272.407" stroke="black" stroke-miterlimit="10" stroke-linecap="round" stroke-linejoin="round"/>
<path d="M76.8239 386.276C76.9543 389.659 79.5348 392.799 82.8292 393.579" stroke="black" stroke-miterlimit="10" stroke-linecap="round" stroke-linejoin="round"/>
<path d="M111.788 415.938C115.546 419.8 121.036 421.904 126.412 421.548" stroke="black" stroke-miterlimit="10" stroke-linecap="round" stroke-linejoin="round"/>
<path d="M158.902 361.303C163.187 365.33 169.035 367.652 174.916 367.662" stroke="black" stroke-miterlimit="10" stroke-linecap="round" stroke-linejoin="round"/>
<path d="M167.092 359.933C168.986 360.649 170.908 361.29 172.855 361.849" stroke="black" stroke-miterlimit="10" stroke-linecap="round" stroke-linejoin="round"/>
<path d="M158.061 370.187C160.547 371.946 163.373 373.216 166.339 373.903" stroke="black" stroke-miterlimit="10" stroke-linecap="round" stroke-linejoin="round"/>
<path d="M111.109 362.412C112.355 364.893 114.671 366.816 117.34 367.579" stroke="black" stroke-miterlimit="10" stroke-linecap="round" stroke-linejoin="round"/>
<path d="M195.049 385.328C197.206 387.64 200.092 389.26 203.19 389.897" stroke="black" stroke-miterlimit="10" stroke-linecap="round" stroke-linejoin="round"/>
<path d="M193.677 391.394C195.151 393.264 197.435 394.477 199.811 394.649" stroke="black" stroke-miterlimit="10" stroke-linecap="round" stroke-linejoin="round"/>
<path d="M203.422 370.218C204.848 371.739 206.83 372.726 208.904 372.949" stroke="black" stroke-miterlimit="10" stroke-linecap="round" stroke-linejoin="round"/>
<path d="M191.382 436.388C208.258 420.714 213.986 396.602 225.5 376.655" stroke="black" stroke-miterlimit="10" stroke-linecap="round" stroke-linejoin="round"/>
<path d="M159.448 330.446C149.037 345.701 137.51 360.237 124.453 373.299C122.127 375.625 119.743 377.915 117.738 380.523C115.099 383.954 113.117 387.931 109.934 390.863C107.043 393.527 103.264 395.23 100.868 398.346" stroke="black" stroke-miterlimit="10" stroke-linecap="round" stroke-linejoin="round"/>
<path d="M207.923 330.711C202.598 349.381 187.146 363.202 177.497 380.049C173.964 386.218 171.179 392.85 166.939 398.555C164.708 401.558 162.103 404.261 159.506 406.953C155.609 410.992 151.712 415.034 147.818 419.073" stroke="black" stroke-miterlimit="10" stroke-linecap="round" stroke-linejoin="round"/>
<path d="M45.206 353.907C47.6313 355.035 49.949 356.392 52.1198 357.957C56.2109 360.903 60.1696 364.744 65.2003 365.081" stroke="black" stroke-miterlimit="10" stroke-linecap="round" stroke-linejoin="round"/>
<path d="M60.0082 370.186C61.9948 368.253 64.1718 366.515 66.4978 365.002" stroke="black" stroke-miterlimit="10" stroke-linecap="round" stroke-linejoin="round"/>
<path d="M80.4784 352.535C80.3025 352.764 80.1266 352.992 79.9487 353.22C84.0088 350.124 88.0689 347.028 92.129 343.932" stroke="black" stroke-miterlimit="10" stroke-linecap="round" stroke-linejoin="round"/>
<path d="M294.218 328.722C300.173 334.585 306.127 340.445 312.083 346.308C323.278 357.327 334.486 368.359 346.513 378.464C349.722 381.16 353.025 383.813 356.791 385.659C359.688 387.079 362.811 387.995 365.708 389.415C370.693 391.859 374.929 395.805 377.719 400.606" stroke="black" stroke-miterlimit="10" stroke-linecap="round" stroke-linejoin="round"/>
<path d="M253.997 346.571C266.948 362.232 279.896 377.893 292.846 393.554C297.365 399.019 301.912 404.513 307.286 409.136C313.581 414.552 320.952 418.699 328.828 421.331" stroke="black" stroke-miterlimit="10" stroke-linecap="round" stroke-linejoin="round"/>
<path d="M222.396 354.753C220.14 358.525 219.96 363.283 221.134 367.521C222.307 371.757 224.716 375.548 227.391 379.037C236.302 390.657 248.369 399.557 257.294 411.164C264.671 420.76 272.663 432.023 282.724 437.654" stroke="black" stroke-miterlimit="10" stroke-linecap="round" stroke-linejoin="round"/>
<path d="M381.593 346.684C386.555 351.27 393.659 352.746 400.414 352.919C407.168 353.093 413.941 352.156 420.671 352.754C426.48 353.271 433.95 355.03 439.19 352.472" stroke="black" stroke-miterlimit="10" stroke-linecap="round" stroke-linejoin="round"/>
<path d="M102.037 157.258C114.886 136.546 132.289 118.363 152.869 105.307" stroke="white" stroke-width="0.75" stroke-miterlimit="10" stroke-linecap="round" stroke-linejoin="round"/>
<path d="M78.4609 235.799C78.4464 248.969 79.4418 265.396 83.864 279.089" stroke="white" stroke-width="0.75" stroke-miterlimit="10" stroke-linecap="round" stroke-linejoin="round"/>
<path d="M396.031 200.368C400.126 215.876 401.664 229.809 400.433 244.845" stroke="white" stroke-width="0.75" stroke-miterlimit="10" stroke-linecap="round" stroke-linejoin="round"/>
<path d="M238.792 158.127C238.527 162.98 238.63 167.853 239.1 172.69" stroke="white" stroke-miterlimit="10" stroke-linecap="round" stroke-linejoin="round"/>
<path d="M254.672 173.393C255.456 169.182 256.948 164.41 258.56 159.748" stroke="white" stroke-miterlimit="10" stroke-linecap="round" stroke-linejoin="round"/>
<path d="M268.133 178.275C269.845 173.968 272.597 168.418 274.989 164.449" stroke="white" stroke-miterlimit="10" stroke-linecap="round" stroke-linejoin="round"/>
<path d="M281.826 184.013C284.856 179.895 287.803 175.713 290.663 171.475" stroke="white" stroke-miterlimit="10" stroke-linecap="round" stroke-linejoin="round"/>
<path d="M293.899 193.673C296.734 189.911 300.687 185.369 304.023 182.041" stroke="white" stroke-miterlimit="10" stroke-linecap="round" stroke-linejoin="round"/>
<path d="M306.427 204.467C310.024 200.707 313.618 196.947 317.215 193.187" stroke="white" stroke-miterlimit="10" stroke-linecap="round" stroke-linejoin="round"/>
<path d="M219.195 160.604C220.871 165.054 222.431 169.548 223.869 174.08" stroke="white" stroke-miterlimit="10" stroke-linecap="round" stroke-linejoin="round"/>
<path d="M200.415 167.913C202.675 172.054 205.024 175.531 207.703 178.974" stroke="white" stroke-miterlimit="10" stroke-linecap="round" stroke-linejoin="round"/>
<path d="M186.464 177.344C189.288 180.259 192.746 183.825 195.571 186.741" stroke="white" stroke-miterlimit="10" stroke-linecap="round" stroke-linejoin="round"/>
<path d="M173.712 187.744C177.414 190.815 180.99 194.035 184.429 197.396" stroke="white" stroke-miterlimit="10" stroke-linecap="round" stroke-linejoin="round"/>
<path d="M161.079 199.888C164.263 203.122 167.965 205.845 171.999 207.923" stroke="white" stroke-miterlimit="10" stroke-linecap="round" stroke-linejoin="round"/>
<path d="M317.086 215.855C317.086 215.855 303.503 212.62 288.626 197.743C273.75 182.867 254.345 180.926 241.409 180.926C228.474 180.926 209.067 182.867 194.191 197.743C179.314 212.62 165.73 215.855 165.73 215.855C165.73 215.855 194.836 252.723 241.407 252.723C287.979 252.723 317.086 215.855 317.086 215.855Z" fill="white" stroke="black" stroke-miterlimit="10" stroke-linecap="round" stroke-linejoin="round"/>
<path d="M238.632 239.967C253.274 239.967 265.143 228.098 265.143 213.456C265.143 198.815 253.274 186.946 238.632 186.946C223.991 186.946 212.122 198.815 212.122 213.456C212.122 228.098 223.991 239.967 238.632 239.967Z" fill="#A5F5EC" stroke="black" stroke-miterlimit="10" stroke-linecap="round" stroke-linejoin="round"/>
<path d="M238.632 222.781C243.782 222.781 247.957 218.606 247.957 213.456C247.957 208.306 243.782 204.132 238.632 204.132C233.482 204.132 229.308 208.306 229.308 213.456C229.308 218.606 233.482 222.781 238.632 222.781Z" fill="black"/>
<path d="M222.065 201.723C219.851 205.003 218.555 208.956 218.555 213.21C218.555 224.557 227.754 233.757 239.1 233.757" stroke="black" stroke-miterlimit="10" stroke-linecap="round" stroke-linejoin="round"/>
<path d="M192.136 199.339C193.514 198.29 194.789 197.115 196.072 195.952C210.671 182.71 229.01 180.928 241.408 180.928C253.961 180.928 272.604 182.755 287.292 196.457C288.256 197.357 289.231 198.253 290.257 199.083C295.019 202.932 309.07 213.887 317.087 215.855L311.266 222.152C311.266 222.152 280.649 192.084 241.41 192.084C202.17 192.084 171.554 222.152 171.554 222.152L165.733 215.855C165.733 215.855 179.271 209.136 192.136 199.339Z" fill="#D5B993" stroke="black" stroke-miterlimit="10"/>
<path d="M164.541 141.937C167.87 141.937 167.874 136.763 164.541 136.763C161.213 136.763 161.207 141.937 164.541 141.937Z" fill="white"/>
<path d="M274.987 129.465C278.317 129.465 278.321 124.291 274.987 124.291C271.66 124.291 271.653 129.465 274.987 129.465Z" fill="white"/>
<path d="M374.634 289.779C377.963 289.779 377.967 284.605 374.634 284.605C371.304 284.605 371.3 289.779 374.634 289.779Z" fill="white"/>
<path d="M127.971 271.105C131.3 271.105 131.304 265.932 127.971 265.932C124.641 265.932 124.635 271.105 127.971 271.105Z" fill="white"/>
<path d="M182.439 140.643C184.102 140.643 184.106 138.057 182.439 138.057C180.773 138.057 180.771 140.643 182.439 140.643Z" fill="white"/>
<path d="M166.537 164.704C168.201 164.704 168.205 162.117 166.537 162.117C164.874 162.117 164.872 164.704 166.537 164.704Z" fill="white"/>
<path d="M148.201 157.761C149.865 157.761 149.869 155.175 148.201 155.175C146.537 155.175 146.533 157.761 148.201 157.761Z" fill="white"/>
<path d="M286.47 146.823C288.134 146.823 288.138 144.236 286.47 144.236C284.806 144.236 284.802 146.823 286.47 146.823Z" fill="white"/>
<path d="M302.009 154.39C303.673 154.39 303.677 151.804 302.009 151.804C300.345 151.804 300.341 154.39 302.009 154.39Z" fill="white"/>
<path d="M337.283 139.865C338.947 139.865 338.951 137.279 337.283 137.279C335.62 137.279 335.616 139.865 337.283 139.865Z" fill="white"/>
<path d="M330.281 157.761C331.945 157.761 331.949 155.175 330.281 155.175C328.617 155.175 328.613 157.761 330.281 157.761Z" fill="white"/>
<path d="M375.977 185.307C377.64 185.307 377.644 182.72 375.977 182.72C374.313 182.72 374.309 185.307 375.977 185.307Z" fill="white"/>
<path d="M356.667 300.96C358.331 300.96 358.335 298.373 356.667 298.373C355.004 298.373 355.002 300.96 356.667 300.96Z" fill="white"/>
<path d="M386.305 285.373C387.969 285.373 387.973 282.787 386.305 282.787C384.641 282.787 384.639 285.373 386.305 285.373Z" fill="white"/>
<path d="M370.743 267.477C372.407 267.477 372.411 264.891 370.743 264.891C369.079 264.891 369.075 267.477 370.743 267.477Z" fill="white"/>
<path d="M187.095 292.028C188.758 292.028 188.762 289.442 187.095 289.442C185.431 289.442 185.429 292.028 187.095 292.028Z" fill="white"/>
<path d="M199.12 281.75C200.784 281.75 200.788 279.163 199.12 279.163C197.456 279.163 197.452 281.75 199.12 281.75Z" fill="white"/>
<path d="M268.81 262.809C270.474 262.809 270.478 260.222 268.81 260.222C267.144 260.222 267.142 262.809 268.81 262.809Z" fill="white"/>
<path d="M95.289 194.333C96.9528 194.333 96.9569 191.747 95.289 191.747C93.6231 191.747 93.6211 194.333 95.289 194.333Z" fill="white"/>
<path d="M105.404 188.887C107.068 188.887 107.072 186.3 105.404 186.3C103.74 186.3 103.736 188.887 105.404 188.887Z" fill="white"/>
<path d="M139.642 261.253C141.306 261.253 141.31 258.666 139.642 258.666C137.976 258.666 137.974 261.253 139.642 261.253Z" fill="white"/>
<path d="M106.182 272.924C107.846 272.924 107.85 270.337 106.182 270.337C104.518 270.337 104.514 272.924 106.182 272.924Z" fill="white"/>
<path d="M134.973 302.493C136.637 302.493 136.641 299.906 134.973 299.906C133.307 299.906 133.305 302.493 134.973 302.493Z" fill="white"/>
<path d="M104.626 240.758C107.956 240.758 107.96 235.584 104.626 235.584C101.296 235.584 101.292 240.758 104.626 240.758Z" fill="white"/>
<path d="M224.457 96.8059C227.787 96.8059 227.791 91.6324 224.457 91.6324C221.128 91.6324 221.121 96.8059 224.457 96.8059Z" fill="white"/>
<path d="M341.174 208.856C344.504 208.856 344.508 203.683 341.174 203.683C337.846 203.683 337.84 208.856 341.174 208.856Z" fill="white"/>
<path d="M320.166 253.209C323.495 253.209 323.499 248.036 320.166 248.036C316.836 248.036 316.83 253.209 320.166 253.209Z" fill="white"/>
<path d="M362.184 142.978C363.848 142.978 363.852 140.391 362.184 140.391C360.518 140.391 360.516 142.978 362.184 142.978Z" fill="white"/>
<path d="M319.387 287.708C321.051 287.708 321.055 285.121 319.387 285.121C317.722 285.121 317.72 287.708 319.387 287.708Z" fill="white"/>
<path d="M258.693 274.48C260.357 274.48 260.361 271.893 258.693 271.893C257.029 271.893 257.027 274.48 258.693 274.48Z" fill="white"/>
<path d="M148.979 234.018C150.643 234.018 150.647 231.431 148.979 231.431C147.315 231.431 147.311 234.018 148.979 234.018Z" fill="white"/>
<path d="M135.751 241.799C137.415 241.799 137.419 239.212 135.751 239.212C134.086 239.212 134.083 241.799 135.751 241.799Z" fill="white"/>
<path d="M148.201 135.975C149.865 135.975 149.869 133.388 148.201 133.388C146.537 133.388 146.533 135.975 148.201 135.975Z" fill="white"/>
<path d="M207.337 143.756C209.001 143.756 209.005 141.169 207.337 141.169C205.673 141.169 205.671 143.756 207.337 143.756Z" fill="white"/>
<path d="M148.979 300.159C150.643 300.159 150.647 297.572 148.979 297.572C147.315 297.572 147.311 300.159 148.979 300.159Z" fill="white"/>
<path d="M106.182 315.721C107.846 315.721 107.85 313.134 106.182 313.134C104.518 313.134 104.514 315.721 106.182 315.721Z" fill="white"/>
<path d="M385.527 262.809C387.191 262.809 387.195 260.222 385.527 260.222C383.863 260.222 383.861 262.809 385.527 262.809Z" fill="white"/>
<path d="M362.184 198.689C363.848 198.689 363.852 196.103 362.184 196.103C360.518 196.103 360.516 198.689 362.184 198.689Z" fill="white"/>
<path d="M228.348 302.493C230.011 302.493 230.016 299.906 228.348 299.906C226.682 299.906 226.68 302.493 228.348 302.493Z" fill="white"/>
<path d="M328.725 237.908C330.388 237.908 330.393 235.322 328.725 235.322C327.061 235.322 327.057 237.908 328.725 237.908Z" fill="white"/>
<path d="M298.377 102.515C300.041 102.515 300.045 99.9286 298.377 99.9286C296.713 99.9286 296.711 102.515 298.377 102.515Z" fill="white"/>
<path d="M176.214 109.518C177.878 109.518 177.882 106.931 176.214 106.931C174.548 106.931 174.546 109.518 176.214 109.518Z" fill="white"/>
<path d="M195.666 257.102C197.33 257.102 197.334 254.515 195.666 254.515C194.002 254.515 193.998 257.102 195.666 257.102Z" fill="white"/>
<path d="M372.928 209.216C374.592 209.216 374.596 206.63 372.928 206.63C371.265 206.63 371.261 209.216 372.928 209.216Z" fill="white"/>
<defs>
<filter id="filter0_d_95_6010" x="66.2944" y="65.2944" width="347.411" height="347.411" filterUnits="userSpaceOnUse" color-interpolation-filters="sRGB">
<feFlood flood-opacity="0" result="BackgroundImageFix"/>
<feColorMatrix in="SourceAlpha" type="matrix" values="0 0 0 0 0 0 0 0 0 0 0 0 0 0 0 0 0 0 127 0" result="hardAlpha"/>
<feOffset dy="-1"/>
<feGaussianBlur stdDeviation="2"/>
<feComposite in2="hardAlpha" operator="out"/>
<feColorMatrix type="matrix" values="0 0 0 0 0.835294 0 0 0 0 0.72549 0 0 0 0 0.576471 0 0 0 1 0"/>
<feBlend mode="normal" in2="BackgroundImageFix" result="effect1_dropShadow_95_6010"/>
<feBlend mode="normal" in="SourceGraphic" in2="effect1_dropShadow_95_6010" result="shape"/>
</filter>
</defs>
</svg>
