<svg width="1440" height="344" viewBox="0 0 1440 344" fill="none" xmlns="http://www.w3.org/2000/svg">
<path d="M1424.76 0.525217C1389.14 -2.47364 1352.62 7.53545 1323.19 27.7473C1293.67 48.0228 1272.12 78.2493 1261.81 112.457C1258.92 122.04 1256.96 131.883 1255.9 141.831C1255.37 146.794 1255.08 151.785 1255.04 156.778C1255.02 159.18 1255.03 161.592 1255.17 163.991C1255.33 166.575 1256.2 168.954 1256.8 171.46C1257.08 172.611 1258.71 172.282 1258.78 171.192C1258.93 168.965 1259.52 166.771 1259.49 164.544C1259.45 162.325 1259.39 160.107 1259.4 157.888C1259.42 153.636 1259.61 149.381 1259.98 145.145C1260.73 136.495 1262.25 127.919 1264.44 119.514C1268.82 102.672 1275.97 86.593 1285.59 72.0773C1304.8 43.0902 1334.09 21.6057 1367.17 11.0101C1385.72 5.06771 1405.3 2.43685 1424.77 3.5296C1426.7 3.6375 1426.66 0.685672 1424.76 0.525217Z" fill="#D5B993"/>
<path d="M1275.37 167.825C1253.16 164.472 1230.49 175.422 1217.85 193.722C1214.31 198.854 1211.41 204.727 1209.95 210.811C1209.35 213.311 1213.08 214.346 1213.81 211.873C1216.81 201.745 1222.23 192.9 1230.08 185.766C1237.78 178.764 1247.25 173.942 1257.39 171.637C1263.16 170.326 1269.11 169.994 1274.99 170.65C1276.59 170.827 1276.98 168.066 1275.37 167.825Z" fill="#D5B993"/>
<path d="M1229.78 213.608C1221.67 209.746 1212.47 208.658 1203.68 210.576C1199.38 211.511 1195.19 213.148 1191.39 215.364C1189.42 216.515 1187.55 217.849 1185.8 219.312C1184.12 220.712 1182.18 222.278 1181.53 224.43C1181.11 225.83 1182.66 226.734 1183.82 226.187C1185.62 225.34 1186.92 223.553 1188.41 222.267C1189.95 220.941 1191.62 219.769 1193.36 218.728C1196.81 216.676 1200.55 215.198 1204.45 214.283C1212.35 212.429 1220.87 212.742 1228.37 216.034C1229.99 216.748 1231.44 214.393 1229.78 213.608Z" fill="#D5B993"/>
<path d="M1199.18 231.429C1186.64 220.02 1168.47 215.94 1152.12 220.222C1135.67 224.532 1123.04 237.521 1117.84 253.522C1115.01 262.253 1114.31 272.11 1116.77 281.018C1117.43 283.444 1121.06 282.421 1120.52 279.983C1117.22 264.928 1121.11 248.946 1131.42 237.344C1141.84 225.628 1157.79 220.507 1173.21 222.93C1181.89 224.297 1190.3 227.869 1196.99 233.609C1198.48 234.898 1200.66 232.782 1199.18 231.429Z" fill="#D5B993"/>
<path d="M1135.64 284.601C1117.39 276.448 1095.04 281.206 1081.78 296.253C1080.09 298.181 1082.93 301.025 1084.62 299.08C1096.63 285.27 1117.66 280.1 1134.77 286.676C1135.96 287.132 1136.82 285.126 1135.64 284.601Z" fill="#D5B993"/>
<path d="M1097.36 306.243C1090.87 300.713 1083.85 296.021 1075.99 292.659C1068.04 289.257 1059.68 287.057 1051.11 285.931C1034.15 283.707 1016.57 285.895 1000.78 292.507C996.355 294.361 992.069 296.53 987.994 299.069C983.904 301.617 979.679 304.442 976.468 308.06C975.196 309.493 976.878 312.113 978.646 310.877C981.97 308.553 985.051 305.919 988.445 303.687C991.897 301.415 995.516 299.399 999.259 297.647C1006.67 294.175 1014.6 291.802 1022.66 290.427C1038.88 287.663 1055.69 289.174 1071.16 294.737C1079.83 297.852 1088.39 302.262 1095.58 308.033C1096.82 309.034 1098.62 307.311 1097.36 306.243Z" fill="#D5B993"/>
<path d="M986.409 321.243C976.185 308.434 962.221 299.332 946.695 294.228C931.191 289.13 914.318 288.062 898.323 291.376C889.44 293.216 880.322 296.4 872.678 301.352C870.406 302.824 872.415 306.312 874.809 304.99C881.802 301.131 888.872 297.96 896.658 296.032C904.186 294.167 911.943 293.373 919.693 293.548C935.275 293.902 950.654 298.287 964.045 306.246C971.697 310.794 978.626 316.462 984.45 323.199C985.633 324.565 987.5 322.607 986.409 321.243Z" fill="#D5B993"/>
<path d="M881.04 311.931C872.518 299.247 860.366 290.062 845.923 285.008C831.092 279.818 814.709 279.818 799.773 284.623C795.647 285.951 791.619 287.636 787.782 289.65C784.047 291.608 779.481 293.874 777.034 297.41C776.311 298.453 777.522 300.063 778.733 299.617C782.179 298.345 785.138 295.769 788.344 293.976C791.66 292.123 795.124 290.54 798.7 289.257C805.663 286.761 812.991 285.317 820.389 285.077C834.943 284.604 849.264 288.878 861.363 296.917C868.093 301.388 874.382 306.846 879.428 313.173C880.148 314.083 881.688 312.894 881.04 311.931Z" fill="#D5B993"/>
<path d="M1354.36 28.9397C1374.4 18.7702 1397.29 13.168 1419.76 12.836C1426.14 12.742 1432.59 13.6328 1438.94 13.2013C1440.14 13.1183 1440.43 11.4528 1439.23 11.0794C1433.83 9.39182 1427.83 9.41945 1422.2 9.42774C1416.4 9.43881 1410.61 9.79849 1404.85 10.5067C1393.28 11.9287 1381.92 14.7062 1371.08 19.0191C1365.02 21.4287 1359.2 24.3197 1353.53 27.5233C1352.6 28.0462 1353.42 29.4183 1354.36 28.9397Z" fill="#D5B993"/>
<path d="M1387.69 25.9326C1395.77 22.8562 1404.38 21.047 1413 20.5186C1417.23 20.2585 1421.49 20.2917 1425.71 20.6292C1427.84 20.798 1429.95 21.0498 1432.06 21.3928C1434.06 21.7192 1436.3 22.5519 1438.32 22.1425C1439.54 21.8963 1439.45 20.3581 1438.63 19.7522C1436.97 18.5211 1434.3 18.4603 1432.31 18.1698C1430.12 17.8517 1427.92 17.6055 1425.71 17.4478C1421.27 17.1324 1416.82 17.185 1412.39 17.6C1403.56 18.4271 1395.08 20.6818 1386.93 24.1372C1385.92 24.566 1386.65 26.3309 1387.69 25.9326Z" fill="#D5B993"/>
<path d="M1409.1 30.8818C1412.14 31.1225 1415.18 31.366 1418.22 31.6066C1419.71 31.7256 1421.2 31.875 1422.68 32.0161C1423.98 32.1378 1426.05 32.7243 1427.17 31.875C1427.69 31.4794 1427.91 30.7463 1427.38 30.229C1426.3 29.1832 1424.25 29.5042 1422.86 29.4793C1421.37 29.4516 1419.88 29.4322 1418.39 29.3824C1415.29 29.2773 1412.2 29.1721 1409.1 29.0642C1407.92 29.0255 1407.95 30.7905 1409.1 30.8818Z" fill="#D5B993"/>
<path d="M1275.7 110.067C1269.37 125.656 1265.89 142.091 1265.15 158.892C1265.05 161.064 1268.42 161.055 1268.53 158.892C1269.32 142.498 1272.43 126.17 1277.58 110.584C1277.98 109.369 1276.16 108.938 1275.7 110.067Z" fill="#D5B993"/>
<path d="M1273.91 143.441C1273.83 145.621 1273.75 147.804 1273.67 149.984C1273.63 151.032 1273.58 152.084 1273.58 153.135C1273.58 154.3 1273.32 155.647 1274.34 156.458C1274.77 156.798 1275.22 156.801 1275.66 156.458C1276.67 155.65 1276.42 154.297 1276.42 153.135C1276.42 152.084 1276.36 151.035 1276.33 149.984C1276.25 147.804 1276.17 145.621 1276.09 143.441C1276.04 142.036 1273.96 142.033 1273.91 143.441Z" fill="#D5B993"/>
<path d="M1281.2 152.712C1281.19 153.329 1281.17 153.948 1281.16 154.565C1281.14 155.185 1281.09 155.802 1281.04 156.419C1281.05 156.314 1281.07 156.211 1281.08 156.106C1281.06 156.239 1281.03 156.366 1281.01 156.496C1280.92 156.928 1280.99 157.404 1281.33 157.716C1281.58 157.94 1281.88 158.084 1282.21 158.084C1282.54 158.084 1282.87 157.943 1283.1 157.716C1283.43 157.384 1283.52 156.942 1283.43 156.496C1283.4 156.366 1283.37 156.236 1283.35 156.106C1283.36 156.211 1283.38 156.314 1283.39 156.419C1283.35 155.802 1283.29 155.185 1283.28 154.565C1283.26 153.948 1283.25 153.329 1283.23 152.712C1283.22 152.181 1282.77 151.672 1282.21 151.696C1281.66 151.719 1281.21 152.142 1281.2 152.712Z" fill="#D5B993"/>
<path d="M1234.16 194.286C1249.9 181.392 1271.07 175.225 1291.26 177.358C1294.1 177.657 1296.91 178.141 1299.68 178.786C1302.29 179.392 1305.3 180.791 1308 180.504C1308.83 180.415 1309.37 179.455 1308.71 178.788C1307 177.051 1304.15 176.462 1301.86 175.884C1299.21 175.211 1296.52 174.697 1293.81 174.323C1288.49 173.59 1283.12 173.391 1277.77 173.767C1267.22 174.506 1256.66 177.375 1247.3 182.316C1241.96 185.135 1237.1 188.701 1232.65 192.77C1231.62 193.719 1233.12 195.147 1234.16 194.286Z" fill="#D5B993"/>
<path d="M1268.19 189.418C1276.3 185.937 1285.25 184.54 1294.06 185.06C1298.38 185.318 1302.69 186.065 1306.86 187.265C1311.05 188.474 1314.86 190.66 1319.04 191.858C1319.95 192.12 1320.71 190.895 1319.98 190.231C1316.67 187.213 1311.85 185.708 1307.62 184.504C1303.2 183.251 1298.64 182.537 1294.06 182.349C1284.79 181.967 1275.61 183.851 1267.2 187.735C1266.06 188.269 1267.06 189.904 1268.19 189.418Z" fill="#D5B993"/>
<path d="M1294.59 194.781C1298.23 194.734 1301.83 195.257 1305.31 196.361C1307.02 196.906 1308.68 197.589 1310.28 198.403C1311.07 198.801 1311.85 199.216 1312.61 199.667C1313.37 200.115 1314.14 200.674 1315.02 200.807C1315.63 200.898 1316.16 200.342 1315.84 199.745C1315.02 198.22 1312.85 197.293 1311.36 196.56C1309.64 195.714 1307.85 195.008 1306.02 194.452C1302.33 193.329 1298.45 192.826 1294.6 192.945C1293.41 192.981 1293.41 194.795 1294.59 194.781Z" fill="#D5B993"/>
<path d="M1351.84 175.217C1353.85 174.29 1356.09 173.961 1358.29 174.155C1360.48 174.346 1362.57 175.17 1364.58 176.011C1365.25 176.293 1365.73 175.292 1365.26 174.838C1361.56 171.267 1355.25 171.446 1350.87 173.557C1349.74 174.097 1350.72 175.729 1351.84 175.217Z" fill="#D5B993"/>
<path d="M1359.99 168.865C1362.74 167.338 1365.86 167.637 1368.72 168.674C1369.2 168.849 1369.65 168.116 1369.24 167.789C1368.54 167.241 1367.81 166.757 1366.94 166.522C1366.08 166.29 1365.18 166.168 1364.29 166.157C1362.5 166.137 1360.73 166.583 1359.16 167.446C1358.24 167.955 1359.07 169.38 1359.99 168.865Z" fill="#D5B993"/>
<path d="M1366.8 162.049C1367.98 162.475 1369.16 162.903 1370.34 163.329C1370.63 163.435 1370.92 163.515 1371.22 163.573C1371.52 163.631 1371.82 163.614 1372.12 163.65C1372.78 163.728 1373.4 163.827 1374.05 163.982C1374.2 164.018 1374.25 163.808 1374.11 163.753C1373.51 163.512 1372.95 163.246 1372.39 162.928C1372.1 162.768 1371.84 162.577 1371.55 162.45C1371.26 162.325 1370.97 162.215 1370.67 162.129C1369.46 161.797 1368.26 161.465 1367.05 161.133C1366.46 160.967 1366.23 161.841 1366.8 162.049Z" fill="#D5B993"/>
<path d="M1201.95 224.532C1206.3 222.977 1210.88 222.33 1215.49 222.64C1217.8 222.795 1220.09 223.163 1222.32 223.769C1223.34 224.045 1224.35 224.366 1225.35 224.704C1226.4 225.058 1227.47 225.619 1228.59 225.487C1229.09 225.429 1229.51 224.925 1229.2 224.43C1228.09 222.634 1225.11 221.94 1223.2 221.423C1220.84 220.778 1218.39 220.377 1215.94 220.261C1211 220.026 1206.03 220.847 1201.43 222.659C1200.29 223.107 1200.75 224.958 1201.95 224.532Z" fill="#D5B993"/>
<path d="M1213.23 230.417C1215.42 229.888 1217.67 229.75 1219.9 230.013C1222.13 230.275 1224.17 231.199 1226.36 231.551C1226.85 231.631 1227.38 231.02 1226.91 230.61C1225.09 229.042 1222.46 228.64 1220.13 228.499C1217.71 228.353 1215.26 228.665 1212.95 229.396C1212.3 229.6 1212.57 230.58 1213.23 230.417Z" fill="#D5B993"/>
<path d="M1223.2 241.076C1224.45 241.43 1225.7 241.781 1226.95 242.135C1227.58 242.315 1228.27 242.415 1228.92 242.467C1229.55 242.52 1230.17 242.611 1230.79 242.509C1231.07 242.462 1231.16 242.055 1230.96 241.878C1230.49 241.458 1229.9 241.206 1229.34 240.915C1228.76 240.614 1228.12 240.337 1227.49 240.152C1226.25 239.787 1225 239.419 1223.76 239.054C1223.21 238.893 1222.61 239.247 1222.46 239.787C1222.31 240.337 1222.65 240.921 1223.2 241.076Z" fill="#D5B993"/>
<path d="M1258.36 271.684C1264.48 262.831 1273.81 256.383 1284.22 253.622C1289.79 252.147 1295.66 251.799 1301.38 252.479C1304.28 252.825 1307.16 253.475 1309.94 254.371C1312.76 255.279 1315.37 256.776 1318.21 257.578C1319.44 257.924 1320.53 256.25 1319.51 255.356C1316.03 252.321 1310.64 250.927 1306.21 250.011C1301.42 249.021 1296.46 248.703 1291.58 249.223C1282.43 250.194 1273.87 253.788 1266.73 259.564C1262.82 262.726 1259.44 266.516 1256.68 270.705C1255.98 271.756 1257.65 272.702 1258.36 271.684Z" fill="#D5B993"/>
<path d="M1314.53 264.375C1317.38 257.428 1323.15 252.28 1329.96 249.314C1336.81 246.332 1344.07 246.321 1351.27 247.917C1352.56 248.202 1353.52 246.321 1352.21 245.685C1344.86 242.102 1335.93 243.377 1328.73 246.761C1321.49 250.169 1315.58 256.388 1312.76 263.888C1312.34 265.006 1314.09 265.446 1314.53 264.375Z" fill="#D5B993"/>
<path d="M1351.17 252.092C1354.09 246.982 1358.59 242.949 1363.85 240.345C1366.39 239.095 1369.09 238.177 1371.87 237.645C1373.28 237.374 1374.72 237.208 1376.16 237.142C1377.55 237.075 1379.22 237.164 1380.54 236.649C1381.36 236.328 1381.57 235.285 1380.78 234.774C1378.34 233.175 1374.32 233.866 1371.64 234.375C1368.46 234.978 1365.36 236.082 1362.52 237.632C1356.91 240.688 1352.31 245.386 1349.48 251.113C1348.93 252.222 1350.54 253.19 1351.17 252.092Z" fill="#D5B993"/>
<path d="M1318.99 245.48C1323.03 242.509 1327.64 240.481 1332.57 239.518C1335.03 239.037 1337.54 238.86 1340.05 238.901C1341.28 238.921 1342.51 239.026 1343.74 239.12C1344.92 239.211 1346.19 239.457 1347.37 239.302C1348.1 239.206 1348.39 238.362 1347.75 237.914C1345.75 236.519 1342.64 236.353 1340.28 236.27C1337.62 236.176 1334.95 236.447 1332.35 236.976C1327.1 238.038 1322.11 240.298 1317.87 243.554C1316.75 244.412 1317.83 246.338 1318.99 245.48Z" fill="#D5B993"/>
<path d="M1329.24 235.083C1331.16 233.827 1333.4 233.216 1335.69 233.285C1336.82 233.318 1337.88 233.548 1338.95 233.872C1339.49 234.038 1340.02 234.267 1340.56 234.436C1341.1 234.602 1341.76 234.857 1342.31 234.649C1342.59 234.544 1342.86 234.29 1342.84 233.96C1342.72 232.58 1340.94 231.872 1339.82 231.482C1338.55 231.044 1337.13 230.895 1335.79 230.912C1333.1 230.945 1330.41 231.761 1328.22 233.349C1327.2 234.093 1328.14 235.803 1329.24 235.083Z" fill="#D5B993"/>
<path d="M1283.18 263.149C1275.89 263.858 1268.9 266.43 1262.96 270.727C1260.01 272.857 1257.34 275.308 1255.03 278.119C1252.95 280.658 1249.9 284.108 1250.06 287.572C1250.09 288.291 1250.98 289.024 1251.67 288.496C1254.24 286.529 1255.48 283.104 1257.5 280.584C1259.63 277.928 1262.11 275.496 1264.82 273.443C1270.29 269.316 1276.72 266.547 1283.5 265.551C1284.86 265.349 1284.55 263.014 1283.18 263.149Z" fill="#D5B993"/>
<path d="M1267.41 277.803C1262.1 280.205 1257.47 283.892 1253.92 288.499C1252.16 290.773 1250.64 293.24 1249.49 295.874C1248.91 297.194 1248.35 298.555 1247.99 299.949C1247.58 301.498 1247.48 302.68 1247.9 304.215C1248.09 304.904 1248.93 304.907 1249.31 304.398C1249.73 303.828 1250.13 303.421 1250.39 302.743C1250.63 302.104 1250.83 301.44 1251.05 300.79C1251.48 299.559 1251.88 298.333 1252.4 297.141C1253.47 294.673 1254.79 292.327 1256.38 290.15C1259.55 285.787 1263.72 282.169 1268.51 279.685C1269.78 279.029 1268.67 277.234 1267.41 277.803Z" fill="#D5B993"/>
<path d="M1261.63 293.238C1259.78 295.672 1257.93 298.109 1256.07 300.544C1255.15 301.758 1254.23 302.987 1253.33 304.22C1252.54 305.319 1251.3 306.782 1251.47 308.235C1251.53 308.788 1251.95 309.159 1252.53 309.037C1253.99 308.73 1254.96 307.092 1255.76 305.969C1256.68 304.694 1257.56 303.393 1258.44 302.09C1260.16 299.526 1261.88 296.958 1263.61 294.394C1263.95 293.879 1263.71 293.124 1263.2 292.828C1262.61 292.482 1262.01 292.742 1261.63 293.238Z" fill="#D5B993"/>
<path d="M1324.98 281.242C1330.61 277.065 1337.34 274.509 1344.34 273.894C1351.43 273.269 1357.92 274.824 1364.6 277.054C1365.79 277.452 1366.45 275.704 1365.43 275.078C1359.17 271.239 1350.97 270.461 1343.81 271.36C1336.47 272.282 1329.57 275.092 1323.75 279.649C1322.84 280.351 1324.05 281.931 1324.98 281.242Z" fill="#D5B993"/>
<path d="M1346.42 283.353C1350.47 282.025 1354.8 281.718 1358.99 282.504C1363.22 283.295 1366.82 285.209 1370.46 287.4C1371.32 287.918 1372.26 286.717 1371.53 286.009C1368.33 282.877 1363.7 281.195 1359.33 280.548C1354.85 279.881 1350.26 280.282 1346 281.834C1345.06 282.174 1345.44 283.674 1346.42 283.353Z" fill="#D5B993"/>
<path d="M1360.61 292.72C1362.19 292.767 1363.69 293.265 1365.01 294.109C1366.33 294.956 1367.31 296.245 1368.44 297.362C1368.95 297.874 1369.72 297.343 1369.59 296.69C1369.21 294.776 1367.62 293.365 1366 292.408C1364.38 291.445 1362.5 290.919 1360.61 290.928C1359.45 290.93 1359.46 292.684 1360.61 292.72Z" fill="#D5B993"/>
<path d="M1148.79 234.525C1141.55 237.999 1135.51 243.424 1131.11 250.108C1128.95 253.373 1127.26 256.933 1126.03 260.64C1125.38 262.591 1124.86 264.588 1124.51 266.613C1124.2 268.436 1123.84 270.633 1124.53 272.401C1124.81 273.117 1125.89 273.441 1126.31 272.633C1127.13 271.07 1127.25 269.169 1127.56 267.451C1127.89 265.592 1128.32 263.761 1128.88 261.957C1129.99 258.399 1131.59 254.999 1133.55 251.829C1137.53 245.38 1143.19 239.975 1149.87 236.373C1151.09 235.709 1150.01 233.933 1148.79 234.525Z" fill="#D5B993"/>
<path d="M1146.9 245.109C1141.58 248.02 1137.55 252.781 1135.23 258.344C1134.07 261.116 1133.35 264.079 1133.16 267.078C1133.07 268.538 1133.13 270.013 1133.31 271.463C1133.48 272.804 1133.66 274.727 1134.97 275.452C1135.45 275.712 1136.04 275.563 1136.32 275.101C1136.97 274.033 1136.52 272.619 1136.36 271.454C1136.2 270.135 1136.14 268.807 1136.19 267.476C1136.29 264.726 1136.8 262.04 1137.75 259.451C1139.64 254.283 1143.26 249.801 1148 246.99C1149.22 246.277 1148.13 244.434 1146.9 245.109Z" fill="#D5B993"/>
<path d="M1147.59 257.827C1144.76 260.012 1142.78 263.089 1141.99 266.591C1141.61 268.287 1141.48 270.052 1141.69 271.781C1141.79 272.68 1141.96 273.551 1142.24 274.409C1142.52 275.244 1143.12 276.274 1144.06 276.459C1144.44 276.534 1144.84 276.412 1145.04 276.061C1145.36 275.493 1145.29 275.051 1145.18 274.431C1145.18 274.661 1145.18 274.89 1145.18 275.12C1145.4 273.734 1144.66 272.271 1144.56 270.862C1144.47 269.49 1144.57 268.126 1144.9 266.793C1145.57 264.084 1147.06 261.705 1149.25 259.962C1150.44 259.011 1148.82 256.881 1147.59 257.827Z" fill="#D5B993"/>
<path d="M1107.55 297.127C1121.6 290.831 1137.26 293.506 1150.07 301.357C1150.97 301.911 1152.05 300.58 1151.22 299.863C1139.17 289.464 1120.54 288.667 1106.54 295.409C1105.38 295.971 1106.4 297.642 1107.55 297.127Z" fill="#D5B993"/>
<path d="M1122.48 301.54C1127.88 300.414 1133.57 301.072 1138.61 303.286C1141.02 304.342 1143.27 305.739 1145.3 307.408C1146.32 308.251 1147.26 309.175 1148.17 310.138C1149.07 311.09 1149.83 312.185 1150.87 312.971C1151.41 313.375 1152.11 312.708 1151.96 312.141C1151.28 309.596 1148.65 307.336 1146.67 305.745C1144.41 303.927 1141.86 302.514 1139.16 301.451C1133.76 299.324 1127.77 298.856 1122.12 300.226C1121.26 300.433 1121.63 301.717 1122.48 301.54Z" fill="#D5B993"/>
<path d="M1134.47 312.525C1136.71 314.376 1138.93 316.233 1141.15 318.097C1142.23 319.002 1143.31 319.904 1144.38 320.808C1145.47 321.721 1146.62 322.903 1147.99 323.331C1148.68 323.547 1149.26 322.737 1148.91 322.142C1148.21 320.93 1146.84 320.103 1145.74 319.267C1144.58 318.393 1143.43 317.519 1142.27 316.645C1139.96 314.896 1137.66 313.137 1135.36 311.375C1134.71 310.868 1133.83 311.992 1134.47 312.525Z" fill="#D5B993"/>
<path d="M1176.65 284.194C1181.23 279.104 1187.3 275.61 1193.96 274.014C1200.77 272.381 1207.3 273.239 1214.02 274.796C1215.02 275.026 1215.71 273.61 1214.74 273.098C1208.4 269.745 1200.37 269.894 1193.56 271.618C1186.5 273.405 1180 277.259 1175.22 282.772C1174.38 283.743 1175.77 285.162 1176.65 284.194Z" fill="#D5B993"/>
<path d="M1194.76 282.255C1197.95 281.286 1201.34 281.037 1204.64 281.58C1207.98 282.13 1210.84 283.63 1213.91 284.963C1214.51 285.229 1215.18 284.532 1214.65 283.995C1212.19 281.475 1208.38 280.299 1204.96 279.801C1201.39 279.281 1197.76 279.535 1194.31 280.628C1193.28 280.957 1193.72 282.573 1194.76 282.255Z" fill="#D5B993"/>
<path d="M1204.86 293.448C1206.12 293.287 1207.42 293.453 1208.59 293.968C1209.17 294.225 1209.74 294.549 1210.25 294.931C1210.78 295.326 1211.32 295.708 1211.78 296.173C1212.13 296.521 1212.66 296.081 1212.44 295.661C1212.11 295 1211.7 294.363 1211.12 293.893C1210.51 293.395 1209.86 292.994 1209.12 292.693C1207.71 292.103 1206.19 291.932 1204.68 292.15C1203.95 292.258 1204.12 293.542 1204.86 293.448Z" fill="#D5B993"/>
<path d="M1007.43 307.189C1013.46 303.122 1020.53 300.834 1027.8 300.533C1031.35 300.386 1034.93 300.682 1038.4 301.46C1040.14 301.85 1041.87 302.353 1043.56 302.937C1045.15 303.49 1046.64 304.229 1048.32 304.414C1049.05 304.494 1049.3 303.526 1048.88 303.067C1046.58 300.513 1042.08 299.523 1038.84 298.87C1035.12 298.12 1031.31 297.869 1027.53 298.145C1019.99 298.696 1012.66 301.213 1006.5 305.606C1005.55 306.279 1006.43 307.858 1007.43 307.189Z" fill="#D5B993"/>
<path d="M1024.08 311.253C1025.83 311.779 1027.58 312.307 1029.33 312.833C1031.1 313.364 1032.82 313.953 1034.66 314.183C1035.45 314.282 1035.74 313.029 1035.06 312.691C1033.41 311.875 1031.63 311.427 1029.87 310.902C1028.11 310.379 1026.36 309.856 1024.61 309.333C1023.38 308.971 1022.85 310.885 1024.08 311.253Z" fill="#D5B993"/>
<path d="M978.416 307.698C977.568 308.478 976.728 309.264 975.847 310.008C975.917 309.953 975.986 309.9 976.058 309.848C976.041 309.859 976.025 309.87 976.011 309.883C976.094 309.848 976.177 309.814 976.26 309.778C976.21 309.795 976.158 309.812 976.108 309.828C976.307 309.828 976.507 309.828 976.706 309.828C976.695 309.825 976.687 309.823 976.676 309.82C976.066 309.662 975.385 310.016 975.224 310.641C975.18 310.813 975.146 310.99 975.107 311.162C974.966 311.812 975.501 312.329 976.146 312.199C976.321 312.163 976.501 312.133 976.673 312.088C977.305 311.936 977.645 311.245 977.496 310.639C977.493 310.628 977.49 310.619 977.487 310.611C977.487 310.81 977.487 311.009 977.487 311.209C977.504 311.159 977.524 311.109 977.54 311.056C977.504 311.139 977.471 311.222 977.435 311.305C977.446 311.289 977.46 311.272 977.471 311.258C977.415 311.328 977.363 311.397 977.31 311.469C978.064 310.597 978.862 309.773 979.654 308.935C979.97 308.603 980.009 308.022 979.654 307.698C979.294 307.366 978.776 307.366 978.416 307.698Z" fill="#D5B993"/>
<path d="M1334.23 96.5385C1339.29 90.9779 1345.88 87.0467 1353.14 85.0826C1356.65 84.1309 1360.27 83.6606 1363.91 83.6606C1367.65 83.6606 1371.31 84.3688 1375.02 84.7091C1375.91 84.792 1376.24 83.4309 1375.48 83.0381C1368.66 79.5551 1359.55 80.4736 1352.44 82.5512C1344.85 84.7699 1337.92 89.0635 1332.72 95.0252C1331.82 96.0544 1333.3 97.5621 1334.23 96.5385Z" fill="#D5B993"/>
<path d="M1359.08 94.9146C1362.64 92.7623 1366.68 91.487 1370.84 91.2435C1374.98 91.0029 1379.07 91.8079 1383.01 92.9947C1384.19 93.3488 1384.92 91.6198 1383.85 91.0195C1375.91 86.5572 1365.3 88.0317 1357.82 92.7679C1356.47 93.6227 1357.7 95.7474 1359.08 94.9146Z" fill="#D5B993"/>
<path d="M1374.31 102.24C1375.94 101.831 1377.69 101.726 1379.34 102.002C1380.2 102.146 1381.04 102.384 1381.87 102.663C1382.81 102.982 1383.77 103.629 1384.75 103.098C1385.01 102.954 1385.21 102.625 1385.19 102.323C1385.12 101.034 1383.78 100.566 1382.75 100.157C1381.83 99.7891 1380.85 99.5679 1379.87 99.4268C1377.78 99.1308 1375.68 99.2303 1373.63 99.7808C1372.04 100.207 1372.71 102.641 1374.31 102.24Z" fill="#D5B993"/>
<path d="M1378.69 109.878C1379.39 110.443 1380.08 111.007 1380.78 111.574C1381.12 111.848 1381.45 112.125 1381.79 112.396C1382.02 112.581 1382.27 112.744 1382.52 112.91C1382.66 113.007 1382.81 113.096 1382.98 113.137C1383.14 113.179 1383.32 113.182 1383.49 113.193C1384.04 113.223 1384.52 112.598 1384.34 112.069C1384.23 111.751 1384.11 111.475 1383.85 111.253C1383.65 111.085 1383.45 110.91 1383.24 110.75C1382.86 110.457 1382.46 110.191 1382.06 109.914C1381.33 109.4 1380.59 108.882 1379.86 108.368C1379.47 108.091 1378.89 108.266 1378.62 108.617C1378.35 108.96 1378.32 109.574 1378.69 109.878Z" fill="#D5B993"/>
<path d="M1336.05 115.146C1333.37 116.393 1330.7 117.641 1328.03 118.892C1326.74 119.495 1325.45 120.098 1324.16 120.701C1322.9 121.29 1321.13 121.86 1320.44 123.155C1320.16 123.68 1320.37 124.53 1321.04 124.646C1322.57 124.906 1324.02 123.971 1325.33 123.31C1326.64 122.646 1327.96 121.985 1329.27 121.321C1331.94 119.971 1334.62 118.623 1337.29 117.273C1338.72 116.554 1337.47 114.482 1336.05 115.146Z" fill="#D5B993"/>
<path d="M1343.74 123.608C1341.94 124.076 1340.13 124.546 1338.33 125.014C1337.45 125.243 1336.56 125.473 1335.68 125.705C1335.21 125.824 1334.77 125.963 1334.32 126.14C1333.84 126.331 1333.46 126.685 1333.06 127C1332.41 127.509 1333.01 128.452 1333.68 128.494C1334.2 128.527 1334.66 128.563 1335.17 128.447C1335.64 128.342 1336.08 128.181 1336.53 128.021C1337.36 127.722 1338.19 127.421 1339.02 127.122C1340.74 126.499 1342.47 125.877 1344.19 125.254C1345.21 124.887 1344.82 123.326 1343.74 123.608Z" fill="#D5B993"/>
<path d="M892.211 326.93C900.65 320.866 910.791 317.505 921.17 317.121C926.24 316.932 931.321 317.378 936.255 318.565C938.799 319.176 941.306 319.967 943.731 320.952C946.086 321.909 948.396 323.508 950.89 324.017C952.522 324.349 953.561 322.543 952.48 321.29C950.724 319.254 947.74 318.191 945.304 317.206C942.716 316.158 940.046 315.32 937.325 314.689C932.05 313.469 926.575 312.968 921.17 313.281C910.192 313.914 899.42 317.571 890.604 324.186C888.997 325.392 890.532 328.137 892.211 326.93Z" fill="#D5B993"/>
<path d="M918.366 328.333C922.303 327.003 926.398 326.571 930.531 326.978C932.543 327.177 934.526 327.592 936.449 328.209C938.355 328.817 940.181 329.99 942.204 330.054C942.927 330.076 943.512 329.169 943.074 328.541C941.827 326.759 939.622 326.098 937.619 325.481C935.449 324.814 933.194 324.399 930.93 324.222C926.486 323.874 921.926 324.604 917.784 326.228C916.504 326.731 917.011 328.792 918.366 328.333Z" fill="#D5B993"/>
<path d="M929.165 336.616C931.16 336.267 933.233 336.231 935.236 336.533C937.292 336.84 939.173 337.659 941.179 338.138C942.281 338.4 942.791 337.003 941.921 336.381C940.079 335.061 937.627 334.663 935.408 334.453C933.163 334.24 930.891 334.411 928.694 334.909C927.567 335.164 928.057 336.81 929.165 336.616Z" fill="#D5B993"/>
<path d="M1035.19 336.472C1042.24 328.438 1052.57 323.387 1063.3 323.08C1074.21 322.77 1084.78 327.243 1092.38 335.034C1093.9 336.594 1096.24 334.237 1094.76 332.649C1088.57 325.987 1080.12 321.586 1071.12 320.219C1062.13 318.855 1052.98 320.629 1045.07 325.099C1040.67 327.589 1036.78 330.972 1033.62 334.912C1032.76 335.996 1034.23 337.557 1035.19 336.472Z" fill="#D5B993"/>
<path d="M1085.73 343.134C1092.54 335.996 1102.71 333.437 1112.34 333.866C1117.95 334.118 1123.49 335.382 1128.84 337.059C1131.69 337.952 1134.5 338.967 1137.3 340.008C1139.99 341.006 1142.69 342.218 1145.57 342.52C1146.68 342.639 1147.4 340.937 1146.51 340.232C1144.13 338.331 1141.17 337.261 1138.37 336.135C1135.4 334.94 1132.38 333.852 1129.32 332.914C1123.56 331.161 1117.58 329.907 1111.54 329.844C1101.23 329.733 1090.55 333.1 1083.61 341.023C1082.36 342.456 1084.39 344.536 1085.73 343.134Z" fill="#D5B993"/>
<path d="M1142.94 344.121C1146.95 341.286 1151.48 339.51 1156.31 338.683C1158.7 338.273 1161.15 338.176 1163.56 338.334C1164.78 338.414 1165.98 338.566 1167.19 338.735C1168.33 338.893 1169.52 339.214 1170.67 339.062C1171.48 338.954 1172.24 337.891 1171.44 337.216C1169.52 335.617 1166.43 335.349 1164.01 335.208C1161.32 335.05 1158.61 335.249 1155.96 335.728C1150.69 336.674 1145.75 339.039 1141.56 342.34C1140.56 343.131 1141.89 344.868 1142.94 344.121Z" fill="#D5B993"/>
<path d="M1181.88 323.21C1184.39 322.117 1187.13 321.624 1189.86 321.705C1192.59 321.785 1195.19 322.543 1197.79 323.312C1198.9 323.641 1199.48 322.095 1198.56 321.494C1193.44 318.177 1186.15 318.963 1180.91 321.55C1179.78 322.106 1180.77 323.694 1181.88 323.21Z" fill="#D5B993"/>
<path d="M1188.6 329.277C1190 329.86 1191.41 330.441 1192.81 331.025C1194.23 331.617 1195.65 332.165 1197.19 332.339C1197.54 332.378 1197.88 332.063 1197.97 331.753C1198.07 331.385 1197.89 331.067 1197.6 330.851C1196.36 329.913 1194.87 329.354 1193.43 328.801C1192.01 328.259 1190.59 327.714 1189.18 327.171C1188.63 326.961 1187.98 327.407 1187.83 327.935C1187.66 328.563 1188.05 329.05 1188.6 329.277Z" fill="#D5B993"/>
<path d="M1191.15 336.53C1192.3 336.884 1193.45 337.238 1194.61 337.593C1195.17 337.767 1195.74 337.938 1196.31 338.113C1196.61 338.204 1196.9 338.273 1197.2 338.331C1197.38 338.367 1197.59 338.42 1197.77 338.42C1198.04 338.42 1198.27 338.298 1198.52 338.185C1198.95 337.98 1199.16 337.247 1198.86 336.854C1198.71 336.646 1198.58 336.433 1198.34 336.298C1198.19 336.207 1197.99 336.154 1197.82 336.104C1197.52 336.016 1197.23 335.935 1196.92 335.877C1196.34 335.764 1195.76 335.651 1195.17 335.537C1193.99 335.305 1192.8 335.075 1191.61 334.843C1191.14 334.751 1190.66 334.973 1190.53 335.454C1190.41 335.922 1190.69 336.392 1191.15 336.53Z" fill="#D5B993"/>
<path d="M809.581 327.915C817.006 323.066 825.916 320.678 834.771 320.886C839.179 320.991 843.554 321.71 847.746 323.077C849.768 323.735 851.719 324.557 853.619 325.514C854.556 325.987 855.467 326.499 856.393 326.991C857.329 327.489 858.335 328.214 859.427 328.104C860.139 328.032 860.707 327.448 860.502 326.695C859.967 324.729 857.03 323.439 855.332 322.593C853.334 321.597 851.242 320.761 849.117 320.081C844.584 318.626 839.794 317.887 835.034 317.879C825.575 317.868 816.269 320.678 808.608 326.256C807.627 326.969 808.525 328.604 809.581 327.915Z" fill="#D5B993"/>
<path d="M835.516 333.841C839.561 332.178 844.016 331.808 848.283 332.782C850.369 333.26 852.37 334.021 854.226 335.092C855.152 335.626 856.041 336.212 856.916 336.829C857.709 337.388 858.626 338.19 859.645 337.936C859.928 337.864 860.205 337.609 860.266 337.316C860.69 335.233 857.268 333.321 855.747 332.499C853.597 331.34 851.259 330.499 848.859 330.037C844.025 329.11 839.085 329.631 834.585 331.628C833.341 332.179 834.242 334.364 835.516 333.841Z" fill="#D5B993"/>
<path d="M846.995 341.56C847.843 341.98 848.688 342.398 849.536 342.818C850.001 343.048 850.466 343.264 850.951 343.457C851.384 343.632 851.868 343.715 852.323 343.809C852.622 343.87 852.932 343.767 853.093 343.496C853.24 343.247 853.212 342.871 852.985 342.672C852.616 342.348 852.242 342.016 851.838 341.734C851.445 341.46 851.001 341.255 850.575 341.042C849.729 340.619 848.887 340.193 848.042 339.77C847.557 339.526 846.892 339.626 846.621 340.143C846.374 340.608 846.474 341.302 846.995 341.56Z" fill="#D5B993"/>
<path d="M1272.17 330.126C1278.42 325.229 1286.46 322.914 1294.35 323.085C1298.2 323.168 1302 323.876 1305.63 325.165C1307.52 325.838 1309.34 326.673 1311.08 327.677C1312.76 328.648 1314.26 329.94 1316.07 330.665C1317.22 331.124 1318.29 329.572 1317.66 328.601C1315.5 325.287 1310.61 323.301 1307.02 322.006C1302.91 320.523 1298.47 319.804 1294.1 319.79C1285.41 319.763 1276.94 322.645 1270.26 328.217C1268.9 329.343 1270.83 331.18 1272.17 330.126Z" fill="#D5B993"/>
<path d="M1301.4 314.697C1308.15 313.422 1315.07 315.057 1320.75 318.847C1321.71 319.489 1323.93 321.176 1324.62 319.248C1325.2 317.61 1322.88 316.385 1321.77 315.682C1318.91 313.864 1315.59 312.633 1312.27 312C1308.43 311.267 1304.52 311.305 1300.69 312.138C1299 312.501 1299.73 315.013 1301.4 314.697Z" fill="#D5B993"/>
<path d="M1319.51 307.706C1320.94 308.758 1322.37 309.812 1323.8 310.863C1324.5 311.38 1325.2 311.9 1325.91 312.418C1326.69 312.993 1327.64 313.701 1328.68 313.364C1329.05 313.239 1329.37 312.888 1329.36 312.467C1329.32 311.317 1328.33 310.653 1327.47 310.08C1326.72 309.585 1325.97 309.09 1325.22 308.592C1323.73 307.601 1322.23 306.608 1320.73 305.618C1320.19 305.255 1319.39 305.51 1319.08 306.052C1318.71 306.666 1318.98 307.316 1319.51 307.706Z" fill="#D5B993"/>
<path d="M15.2488 3.5296C50.1695 1.56817 85.2786 11.569 114.129 31.2414C142.902 50.8612 163.9 80.3878 173.918 113.635C176.689 122.828 178.667 132.287 179.706 141.834C180.227 146.614 180.526 151.42 180.596 156.225C180.632 158.632 180.579 161.033 180.537 163.437C180.49 166.074 181.05 168.569 181.23 171.195C181.305 172.273 182.926 172.622 183.208 171.463C183.715 169.366 184.583 167.247 184.768 165.103C184.965 162.801 184.976 160.477 184.976 158.167C184.979 153.73 184.785 149.292 184.402 144.872C183.627 135.925 182.114 127.031 179.85 118.338C175.373 101.159 168.061 84.6565 158.248 69.8503C138.455 39.9889 108.604 18.0231 74.4677 7.23109C55.3921 1.20018 35.1944 -1.15134 15.2516 0.527912C13.3426 0.685601 13.2983 3.64026 15.2488 3.5296Z" fill="#D5B993"/>
<path d="M165.011 170.647C185.79 168.334 207.132 178.786 218.824 195.941C222.185 200.871 224.499 206.171 226.191 211.87C226.923 214.338 230.655 213.314 230.054 210.808C224.906 189.381 204.669 172.138 183.325 168.154C177.124 166.998 170.862 166.882 164.629 167.822C163.041 168.063 163.396 170.827 165.011 170.647Z" fill="#D5B993"/>
<path d="M211.64 216.034C219.135 212.744 227.654 212.429 235.559 214.283C239.463 215.198 243.2 216.678 246.644 218.728C248.317 219.727 249.922 220.845 251.407 222.106C252.964 223.431 254.316 225.307 256.183 226.184C257.344 226.732 258.893 225.822 258.472 224.427C257.823 222.269 255.884 220.709 254.208 219.309C252.457 217.846 250.589 216.512 248.614 215.361C244.818 213.143 240.623 211.508 236.326 210.573C227.53 208.658 218.334 209.746 210.219 213.605C208.568 214.39 210.011 216.748 211.64 216.034Z" fill="#D5B993"/>
<path d="M243.017 233.614C254.967 223.362 272.236 219.94 287.339 224.092C302.311 228.209 313.776 240.149 318.444 254.803C321.074 263.055 321.334 271.551 319.483 279.986C318.948 282.418 322.572 283.45 323.24 281.021C327.612 265.141 322.334 247.181 311.673 234.956C300.352 221.97 282.895 216.565 266.058 219.306C256.654 220.839 247.874 225.016 240.829 231.429C239.343 232.782 241.518 234.901 243.017 233.614Z" fill="#D5B993"/>
<path d="M305.237 286.676C322.348 280.1 343.374 285.27 355.387 299.08C357.077 301.025 359.917 298.181 358.219 296.253C344.959 281.206 322.617 276.451 304.364 284.601C303.2 285.121 304.034 287.138 305.237 286.676Z" fill="#D5B993"/>
<path d="M344.43 308.033C350.821 302.906 358.288 298.898 365.888 295.857C373.482 292.823 381.5 290.726 389.624 289.763C405.884 287.837 422.755 289.965 437.86 296.358C442.035 298.126 446.078 300.234 449.92 302.638C453.924 305.144 457.498 308.182 461.357 310.879C463.108 312.105 464.818 309.51 463.535 308.063C460.684 304.848 457.033 302.323 453.445 299.985C449.915 297.683 446.213 295.653 442.384 293.89C434.541 290.283 426.232 287.752 417.704 286.379C400.87 283.671 383.091 285.162 367.157 291.367C358.083 294.9 350.04 299.938 342.637 306.24C341.385 307.311 343.18 309.034 344.43 308.033Z" fill="#D5B993"/>
<path d="M455.553 323.199C476.064 299.459 510.029 288.892 540.569 295.39C549.371 297.263 557.351 300.66 565.191 304.987C567.582 306.306 569.594 302.821 567.322 301.349C560.523 296.948 552.524 293.976 544.686 292.056C536.812 290.125 528.65 289.282 520.546 289.503C504.305 289.946 487.941 294.508 474.097 303.07C466.275 307.906 459.324 314.058 453.591 321.243C452.505 322.607 454.37 324.568 455.553 323.199Z" fill="#D5B993"/>
<path d="M560.578 313.176C569.364 302.154 581.757 293.301 595.111 288.748C609.169 283.953 624.457 283.887 638.612 288.352C642.602 289.611 646.464 291.215 650.163 293.166C652.088 294.181 653.964 295.285 655.787 296.472C657.572 297.634 659.264 298.878 661.27 299.617C662.475 300.062 663.695 298.461 662.969 297.409C660.802 294.283 656.984 292.275 653.718 290.46C650.26 288.537 646.63 286.905 642.915 285.544C635.465 282.822 627.544 281.314 619.614 281.073C604.304 280.606 588.874 285.248 576.312 294.007C569.356 298.856 563.676 304.918 558.963 311.931C558.323 312.885 559.847 314.091 560.578 313.176Z" fill="#D5B993"/>
<path d="M86.4727 27.5232C76.4348 21.8575 65.8816 17.2983 54.7354 14.2995C43.4979 11.2757 31.8752 9.67114 20.2387 9.45535C13.858 9.33639 6.91206 9.16482 0.769634 11.082C-0.421725 11.4527 -0.155747 13.1209 1.05778 13.2039C6.60729 13.5829 12.2288 12.8359 17.7978 12.8249C23.4913 12.811 29.1877 13.1403 34.8425 13.7987C45.9997 15.1017 57.0239 17.7271 67.6354 21.3954C73.7861 23.5201 79.8343 25.9988 85.6387 28.9451C86.578 29.4154 87.4008 28.0461 86.4727 27.5232Z" fill="#D5B993"/>
<path d="M53.0731 24.1371C44.9164 20.6845 36.4439 18.4271 27.6168 17.5999C23.1838 17.1849 18.7315 17.1351 14.2902 17.4478C12.082 17.6027 9.88492 17.8516 7.69614 18.1698C5.70685 18.4575 3.0249 18.5266 1.37085 19.7522C0.556297 20.3553 0.467638 21.8962 1.68393 22.1424C3.6289 22.5353 5.71516 21.7635 7.64073 21.4425C9.84613 21.0746 12.0626 20.8062 14.2902 20.6292C18.5126 20.2917 22.771 20.2585 26.9989 20.5185C35.6238 21.0469 44.2404 22.8562 52.3139 25.9325C53.3446 26.3281 54.101 24.5714 53.0731 24.1371Z" fill="#D5B993"/>
<path d="M30.8999 29.0669C27.8052 29.172 24.7104 29.2771 21.6156 29.385C20.1251 29.4348 18.6345 29.4542 17.1439 29.4818C15.7475 29.5095 13.6973 29.1886 12.6195 30.2315C12.0875 30.7489 12.312 31.482 12.8328 31.8776C13.9189 32.702 15.886 32.1515 17.1439 32.0325C18.6899 31.8859 20.2387 31.731 21.7874 31.6065C24.824 31.3658 27.8634 31.1224 30.8999 30.8817C32.0497 30.7904 32.083 29.0254 30.8999 29.0669Z" fill="#D5B993"/>
<path d="M162.426 110.584C167.568 126.17 170.688 142.501 171.478 158.892C171.583 161.05 174.949 161.066 174.855 158.892C174.118 142.091 170.63 125.653 164.304 110.066C163.847 108.938 162.024 109.369 162.426 110.584Z" fill="#D5B993"/>
<path d="M163.914 143.441C163.836 145.621 163.759 147.804 163.678 149.984C163.64 151.032 163.59 152.084 163.59 153.135C163.59 154.3 163.332 155.647 164.349 156.458C164.778 156.798 165.233 156.801 165.665 156.458C166.679 155.65 166.424 154.297 166.424 153.135C166.424 152.084 166.371 151.035 166.335 149.984C166.258 147.804 166.177 145.621 166.1 143.441C166.047 142.036 163.964 142.033 163.914 143.441Z" fill="#D5B993"/>
<path d="M156.768 152.712C156.755 153.329 156.741 153.948 156.724 154.565C156.71 155.185 156.655 155.802 156.608 156.419C156.622 156.314 156.635 156.211 156.649 156.106C156.63 156.239 156.599 156.366 156.574 156.496C156.486 156.928 156.555 157.404 156.899 157.716C157.145 157.94 157.447 158.084 157.785 158.084C158.107 158.084 158.445 157.943 158.672 157.716C159.004 157.384 159.087 156.942 158.996 156.496C158.968 156.366 158.938 156.236 158.921 156.106C158.935 156.211 158.949 156.314 158.963 156.419C158.916 155.802 158.86 155.185 158.846 154.565C158.833 153.948 158.819 153.329 158.802 152.712C158.788 152.181 158.342 151.672 157.785 151.696C157.223 151.719 156.782 152.142 156.768 152.712Z" fill="#D5B993"/>
<path d="M207.354 192.776C191.512 178.285 169.516 171.634 148.216 174.072C145.262 174.409 142.325 174.899 139.43 175.574C136.779 176.194 133.274 176.78 131.29 178.791C130.631 179.461 131.168 180.418 132.002 180.506C134.396 180.761 136.992 179.605 139.289 179.035C141.685 178.44 144.115 177.967 146.562 177.624C151.568 176.924 156.66 176.777 161.703 177.104C171.943 177.768 181.934 180.47 191.141 184.988C196.346 187.542 201.353 190.612 205.839 194.289C206.886 195.144 208.388 193.719 207.354 192.776Z" fill="#D5B993"/>
<path d="M172.799 187.738C164.39 183.854 155.211 181.97 145.946 182.352C141.361 182.54 136.798 183.254 132.384 184.507C128.154 185.707 123.327 187.218 120.019 190.233C119.293 190.895 120.052 192.123 120.967 191.86C125.136 190.659 128.954 188.479 133.146 187.268C137.31 186.064 141.619 185.32 145.946 185.063C154.749 184.54 163.698 185.94 171.816 189.42C172.946 189.904 173.949 188.269 172.799 187.738Z" fill="#D5B993"/>
<path d="M145.409 192.945C141.555 192.826 137.679 193.326 133.989 194.452C132.213 194.992 130.475 195.675 128.805 196.483C127.278 197.222 125.012 198.182 124.167 199.745C123.843 200.345 124.375 200.901 124.987 200.807C125.873 200.674 126.641 200.115 127.397 199.667C128.107 199.247 128.835 198.857 129.569 198.483C131.223 197.639 132.93 196.926 134.701 196.361C138.169 195.257 141.771 194.732 145.412 194.782C146.595 194.795 146.589 192.981 145.409 192.945Z" fill="#D5B993"/>
<path d="M89.138 173.557C84.7577 171.446 78.449 171.266 74.742 174.838C74.271 175.292 74.7558 176.293 75.4263 176.011C77.435 175.17 79.5268 174.345 81.7156 174.155C83.9154 173.964 86.1513 174.293 88.1655 175.217C89.2793 175.729 90.2601 174.096 89.138 173.557Z" fill="#D5B993"/>
<path d="M80.8401 167.446C79.2719 166.586 77.4987 166.137 75.7061 166.157C74.8417 166.168 73.969 166.284 73.1322 166.503C72.2373 166.738 71.4837 167.225 70.7661 167.789C70.3505 168.116 70.7994 168.849 71.2815 168.674C74.1435 167.637 77.266 167.335 80.0089 168.865C80.9342 169.38 81.7682 167.955 80.8401 167.446Z" fill="#D5B993"/>
<path d="M72.9494 161.13C71.7442 161.462 70.5389 161.794 69.3337 162.126C69.029 162.209 68.7464 162.32 68.4555 162.447C68.1756 162.569 67.9429 162.749 67.6769 162.892C67.0923 163.213 66.516 163.501 65.8926 163.75C65.7541 163.805 65.804 164.016 65.9564 163.98C66.5742 163.83 67.181 163.717 67.8127 163.656C68.4582 163.592 69.0484 163.551 69.6662 163.33C70.8437 162.903 72.024 162.475 73.2015 162.049C73.7722 161.841 73.5506 160.964 72.9494 161.13Z" fill="#D5B993"/>
<path d="M238.573 222.657C233.974 220.845 229.001 220.023 224.061 220.258C221.689 220.372 219.318 220.753 217.021 221.362C215.065 221.879 211.945 222.587 210.803 224.43C210.496 224.928 210.912 225.429 211.41 225.487C212.535 225.617 213.607 225.058 214.652 224.704C215.652 224.366 216.666 224.045 217.683 223.769C219.913 223.163 222.205 222.795 224.512 222.64C229.123 222.33 233.705 222.98 238.052 224.532C239.249 224.958 239.717 223.107 238.573 222.657Z" fill="#D5B993"/>
<path d="M227.053 229.396C224.74 228.665 222.296 228.356 219.874 228.499C217.544 228.641 214.912 229.042 213.1 230.61C212.632 231.017 213.153 231.628 213.649 231.551C215.84 231.2 217.88 230.276 220.107 230.013C222.337 229.75 224.59 229.888 226.773 230.417C227.435 230.58 227.701 229.6 227.053 229.396Z" fill="#D5B993"/>
<path d="M216.245 239.054C214.998 239.419 213.754 239.787 212.507 240.152C211.878 240.337 211.238 240.614 210.659 240.915C210.1 241.206 209.515 241.458 209.044 241.878C208.845 242.055 208.933 242.465 209.21 242.509C209.834 242.611 210.454 242.52 211.081 242.467C211.737 242.412 212.422 242.312 213.056 242.135C214.306 241.781 215.555 241.427 216.805 241.076C217.35 240.921 217.688 240.334 217.539 239.787C217.389 239.247 216.791 238.893 216.245 239.054Z" fill="#D5B993"/>
<path d="M183.33 270.702C172.974 255.013 154.474 246.631 135.839 249.632C133.099 250.075 130.395 250.756 127.777 251.671C125.231 252.562 122.551 253.561 120.496 255.353C119.473 256.247 120.559 257.923 121.79 257.575C124.627 256.773 127.242 255.276 130.06 254.369C132.75 253.503 135.526 252.864 138.33 252.509C144.137 251.776 150.122 252.119 155.782 253.619C166.194 256.377 175.52 262.828 181.646 271.681C182.352 272.702 184.026 271.756 183.33 270.702Z" fill="#D5B993"/>
<path d="M127.245 263.885C124.427 256.385 118.523 250.166 111.272 246.758C104.077 243.375 95.1419 242.099 87.7943 245.682C86.5004 246.313 87.4396 248.202 88.7363 247.914C95.9398 246.315 103.185 246.338 110.045 249.312C116.858 252.263 122.629 257.434 125.472 264.372C125.909 265.446 127.666 265.009 127.245 263.885Z" fill="#D5B993"/>
<path d="M90.5205 251.11C87.6918 245.386 83.0925 240.688 77.4904 237.629C74.7142 236.113 71.686 235.023 68.5829 234.411C65.8483 233.875 61.7201 233.136 59.2238 234.768C58.4397 235.283 58.6475 236.326 59.4704 236.644C60.7255 237.133 62.3019 237.062 63.6374 237.125C65.0753 237.194 66.5105 237.338 67.9263 237.598C70.7772 238.121 73.5561 239.056 76.1522 240.34C81.4219 242.943 85.9213 246.977 88.8415 252.086C89.4649 253.19 91.0691 252.225 90.5205 251.11Z" fill="#D5B993"/>
<path d="M122.139 243.557C117.894 240.301 112.907 238.041 107.659 236.979C105.13 236.467 102.537 236.193 99.9544 236.265C97.5329 236.331 94.308 236.483 92.2549 237.916C91.6122 238.365 91.9003 239.208 92.6317 239.305C93.812 239.46 95.0809 239.214 96.2668 239.123C97.4941 239.029 98.7215 238.923 99.9544 238.904C102.462 238.863 104.975 239.04 107.435 239.521C112.361 240.484 116.971 242.511 121.011 245.483C122.177 246.335 123.252 244.412 122.139 243.557Z" fill="#D5B993"/>
<path d="M111.779 233.346C109.593 231.761 106.903 230.945 104.21 230.909C102.908 230.892 101.523 231.036 100.284 231.446C99.1371 231.825 97.2836 232.552 97.17 233.958C97.1423 234.29 97.4138 234.541 97.6936 234.647C98.2311 234.846 98.8213 234.611 99.3449 234.458C99.8907 234.298 100.417 234.068 100.96 233.9C102.06 233.562 103.157 233.319 104.31 233.285C106.607 233.216 108.84 233.828 110.763 235.084C111.862 235.803 112.807 234.093 111.779 233.346Z" fill="#D5B993"/>
<path d="M156.5 265.548C163.285 266.547 169.71 269.316 175.179 273.441C177.833 275.444 180.26 277.814 182.352 280.396C183.452 281.754 184.433 283.201 185.342 284.695C186.237 286.169 186.946 287.433 188.334 288.493C189.024 289.021 189.913 288.288 189.946 287.569C190.099 284.161 187.156 280.811 185.12 278.299C182.784 275.413 180.05 272.898 177.044 270.724C171.104 266.428 164.116 263.855 156.824 263.147C155.466 263.017 155.134 265.346 156.5 265.548Z" fill="#D5B993"/>
<path d="M171.494 279.687C176.285 282.174 180.449 285.79 183.627 290.153C185.173 292.275 186.48 294.565 187.53 296.972C188.076 298.223 188.511 299.504 188.952 300.796C189.154 301.385 189.334 301.988 189.55 302.572C189.827 303.321 190.235 303.772 190.7 304.4C191.077 304.909 191.916 304.901 192.105 304.218C192.526 302.691 192.426 301.495 192.019 299.952C191.667 298.616 191.141 297.313 190.595 296.048C189.428 293.351 187.882 290.828 186.09 288.501C182.541 283.895 177.903 280.207 172.6 277.806C171.339 277.233 170.225 279.029 171.494 279.687Z" fill="#D5B993"/>
<path d="M176.393 294.394C178.116 296.958 179.839 299.526 181.563 302.09C182.41 303.355 183.272 304.611 184.153 305.853C184.973 307.006 185.976 308.722 187.475 309.037C188.051 309.159 188.464 308.788 188.531 308.235C188.702 306.782 187.464 305.319 186.666 304.22C185.768 302.984 184.854 301.758 183.929 300.544C182.078 298.109 180.224 295.672 178.371 293.238C177.997 292.745 177.382 292.488 176.803 292.828C176.296 293.124 176.046 293.877 176.393 294.394Z" fill="#D5B993"/>
<path d="M116.262 279.646C110.441 275.09 103.537 272.282 96.2003 271.358C89.0355 270.456 80.8345 271.236 74.5785 275.076C73.5672 275.695 74.21 277.452 75.4124 277.051C82.0868 274.824 88.5756 273.269 95.6711 273.892C102.667 274.509 109.397 277.062 115.032 281.239C115.946 281.923 117.171 280.357 116.262 279.646Z" fill="#D5B993"/>
<path d="M94.0032 281.831C89.7365 280.279 85.1539 279.878 80.6683 280.545C76.299 281.195 71.6721 282.874 68.4665 286.006C67.749 286.706 68.6716 287.92 69.5415 287.398C73.1849 285.207 76.7811 283.295 81.0091 282.501C85.201 281.715 89.5342 282.022 93.5793 283.35C94.5601 283.674 94.948 282.175 94.0032 281.831Z" fill="#D5B993"/>
<path d="M79.391 290.925C77.5015 290.917 75.623 291.445 73.9994 292.405C72.3842 293.359 70.7883 294.776 70.4087 296.687C70.2785 297.34 71.0515 297.874 71.5668 297.36C72.6862 296.245 73.6753 294.953 74.9969 294.106C76.3157 293.263 77.8201 292.765 79.3938 292.718C80.5436 292.684 80.5519 290.93 79.391 290.925Z" fill="#D5B993"/>
<path d="M290.137 236.37C296.811 239.972 302.474 245.38 306.456 251.826C308.415 254.999 310.01 258.397 311.121 261.954C311.684 263.755 312.111 265.59 312.446 267.449C312.753 269.167 312.878 271.067 313.69 272.63C314.114 273.444 315.189 273.117 315.471 272.398C316.164 270.625 315.807 268.439 315.491 266.61C315.155 264.671 314.662 262.754 314.053 260.881C312.817 257.083 311.094 253.442 308.897 250.103C304.497 243.416 298.449 237.994 291.217 234.519C289.99 233.933 288.912 235.709 290.137 236.37Z" fill="#D5B993"/>
<path d="M291.999 246.996C296.742 249.807 300.36 254.288 302.253 259.456C303.175 261.979 303.693 264.599 303.804 267.28C303.86 268.608 303.829 269.941 303.663 271.264C303.511 272.475 303.006 273.991 303.688 275.103C303.971 275.565 304.561 275.718 305.034 275.455C306.295 274.76 306.495 272.959 306.664 271.667C306.863 270.149 306.941 268.61 306.846 267.081C306.664 264.085 305.935 261.113 304.78 258.347C302.458 252.783 298.421 248.022 293.104 245.112C291.869 244.434 290.788 246.277 291.999 246.996Z" fill="#D5B993"/>
<path d="M290.758 259.965C292.944 261.708 294.429 264.087 295.102 266.796C295.423 268.093 295.534 269.418 295.451 270.752C295.409 271.427 295.296 272.08 295.152 272.741C294.972 273.565 294.689 274.268 294.825 275.125C294.825 274.896 294.825 274.666 294.825 274.437C294.711 275.056 294.645 275.496 294.966 276.066C295.166 276.42 295.567 276.536 295.944 276.464C296.836 276.29 297.443 275.322 297.726 274.522C298.028 273.668 298.194 272.796 298.305 271.897C298.524 270.129 298.402 268.331 298.014 266.594C297.23 263.091 295.246 260.015 292.412 257.829C291.195 256.892 289.547 259 290.758 259.965Z" fill="#D5B993"/>
<path d="M333.458 295.409C319.461 288.667 300.837 289.467 288.779 299.863C287.956 300.574 289.02 301.916 289.935 301.357C302.746 293.503 318.403 290.828 332.452 297.127C333.605 297.642 334.622 295.971 333.458 295.409Z" fill="#D5B993"/>
<path d="M317.885 300.226C312.238 298.854 306.248 299.324 300.845 301.451C298.213 302.489 295.72 303.858 293.498 305.615C291.459 307.228 288.746 309.535 288.051 312.141C287.901 312.705 288.594 313.375 289.131 312.971C290.129 312.221 290.843 311.195 291.694 310.287C292.6 309.322 293.528 308.39 294.545 307.538C296.615 305.808 298.923 304.367 301.394 303.283C306.436 301.07 312.127 300.414 317.524 301.537C318.375 301.717 318.741 300.433 317.885 300.226Z" fill="#D5B993"/>
<path d="M304.638 311.372C302.339 313.137 300.036 314.893 297.728 316.642C296.609 317.491 295.49 318.338 294.37 319.187C293.24 320.042 291.816 320.894 291.093 322.139C290.746 322.734 291.323 323.544 292.01 323.328C293.351 322.911 294.462 321.779 295.52 320.891C296.631 319.959 297.739 319.027 298.851 318.097C301.07 316.232 303.297 314.376 305.53 312.525C306.165 312 305.303 310.86 304.638 311.372Z" fill="#D5B993"/>
<path d="M264.78 282.772C260.007 277.258 253.51 273.405 246.445 271.618C239.634 269.894 231.608 269.745 225.261 273.098C224.302 273.604 224.978 275.029 225.978 274.796C232.697 273.239 239.23 272.381 246.043 274.013C252.703 275.61 258.771 279.101 263.356 284.194C264.229 285.162 265.623 283.743 264.78 282.772Z" fill="#D5B993"/>
<path d="M245.691 280.631C242.244 279.538 238.612 279.283 235.038 279.803C231.619 280.301 227.815 281.477 225.346 283.997C224.825 284.529 225.482 285.231 226.094 284.966C229.161 283.632 232.018 282.136 235.365 281.582C238.662 281.04 242.048 281.289 245.239 282.257C246.287 282.573 246.724 280.957 245.691 280.631Z" fill="#D5B993"/>
<path d="M235.323 292.153C233.813 291.934 232.292 292.106 230.879 292.695C230.167 292.991 229.527 293.379 228.926 293.863C228.328 294.344 227.906 294.983 227.56 295.664C227.35 296.079 227.87 296.527 228.222 296.175C228.685 295.713 229.217 295.34 229.732 294.944C230.242 294.554 230.824 294.228 231.414 293.968C232.586 293.453 233.88 293.287 235.146 293.448C235.877 293.539 236.06 292.258 235.323 292.153Z" fill="#D5B993"/>
<path d="M433.507 305.604C427.337 301.21 420.017 298.701 412.473 298.142C408.782 297.869 405.062 298.104 401.429 298.815C398.11 299.462 393.475 300.452 391.12 303.067C390.71 303.52 390.945 304.494 391.68 304.414C393.367 304.229 394.86 303.49 396.448 302.937C398.132 302.35 399.861 301.85 401.601 301.459C405.07 300.682 408.649 300.386 412.201 300.533C419.471 300.834 426.545 303.122 432.576 307.189C433.568 307.855 434.458 306.279 433.507 305.604Z" fill="#D5B993"/>
<path d="M415.396 309.336C413.645 309.858 411.891 310.381 410.14 310.904C408.378 311.43 406.596 311.878 404.942 312.694C404.261 313.032 404.554 314.282 405.347 314.185C407.181 313.956 408.907 313.366 410.675 312.835C412.426 312.31 414.177 311.781 415.928 311.256C417.15 310.885 416.629 308.97 415.396 309.336Z" fill="#D5B993"/>
<path d="M460.349 308.935C461.141 309.77 461.939 310.597 462.693 311.469C462.637 311.4 462.585 311.33 462.532 311.259C462.543 311.275 462.557 311.292 462.568 311.306C462.532 311.223 462.499 311.14 462.463 311.057C462.48 311.106 462.496 311.156 462.516 311.209C462.516 311.01 462.516 310.81 462.516 310.611C462.513 310.62 462.51 310.631 462.507 310.639C462.36 311.242 462.696 311.934 463.33 312.088C463.505 312.13 463.682 312.163 463.856 312.199C464.502 312.329 465.037 311.815 464.895 311.162C464.857 310.987 464.823 310.813 464.782 310.642C464.621 310.019 463.94 309.662 463.33 309.82C463.319 309.823 463.311 309.825 463.3 309.828C463.499 309.828 463.699 309.828 463.898 309.828C463.848 309.812 463.796 309.795 463.746 309.778C463.829 309.814 463.912 309.848 463.995 309.884C463.978 309.873 463.962 309.859 463.945 309.848C464.014 309.9 464.084 309.956 464.156 310.008C463.275 309.267 462.435 308.478 461.587 307.698C461.249 307.388 460.676 307.341 460.349 307.698C460.019 308.055 460.011 308.581 460.349 308.935Z" fill="#D5B993"/>
<path d="M107.288 95.0252C102.085 89.0607 95.1558 84.7782 87.5671 82.5511C80.4577 80.4652 71.3452 79.555 64.5295 83.038C63.7621 83.4309 64.0945 84.792 64.9839 84.709C68.6106 84.377 72.1819 83.6826 75.8363 83.6605C79.5628 83.6411 83.2726 84.1115 86.8689 85.0825C94.1223 87.0384 100.716 90.9806 105.773 96.5384C106.706 97.562 108.189 96.0543 107.288 95.0252Z" fill="#D5B993"/>
<path d="M82.1838 92.7705C74.7032 88.0343 64.0973 86.5598 56.1567 91.0222C55.0956 91.617 55.8049 93.3543 56.9907 92.9974C60.936 91.8078 65.0227 91.0028 69.1592 91.2462C73.3206 91.4897 77.3629 92.765 80.9259 94.9173C82.3029 95.7473 83.5331 93.6226 82.1838 92.7705Z" fill="#D5B993"/>
<path d="M66.3747 99.7807C64.33 99.2302 62.2244 99.1306 60.1353 99.4266C59.185 99.5622 58.2375 99.7752 57.3398 100.124C56.2897 100.533 54.8906 101.009 54.813 102.32C54.7964 102.622 54.9931 102.951 55.2563 103.095C56.2316 103.626 57.1902 102.976 58.1294 102.661C58.9578 102.381 59.8001 102.146 60.6645 101.999C62.3158 101.723 64.0641 101.825 65.6959 102.237C67.289 102.641 67.9651 100.21 66.3747 99.7807Z" fill="#D5B993"/>
<path d="M60.1436 108.368C59.4094 108.882 58.6752 109.4 57.941 109.914C57.5864 110.163 57.2234 110.407 56.8743 110.664C56.6361 110.841 56.4116 111.038 56.1845 111.228C56.0515 111.339 55.9323 111.453 55.8464 111.607C55.7661 111.751 55.7162 111.914 55.6636 112.069C55.4835 112.598 55.9656 113.223 56.5197 113.193C56.8633 113.173 57.1625 113.129 57.4506 112.933C57.6695 112.786 57.8939 112.642 58.1017 112.482C58.4841 112.188 58.8525 111.876 59.2266 111.574C59.922 111.01 60.6174 110.446 61.3128 109.878C61.6841 109.577 61.6564 108.96 61.3876 108.617C61.1161 108.263 60.5398 108.091 60.1436 108.368Z" fill="#D5B993"/>
<path d="M102.711 117.273C105.385 118.623 108.056 119.971 110.729 121.321C112.043 121.985 113.356 122.646 114.669 123.31C115.985 123.974 117.431 124.909 118.955 124.646C119.631 124.53 119.845 123.68 119.565 123.155C118.867 121.857 117.104 121.287 115.847 120.701C114.556 120.098 113.264 119.495 111.976 118.892C109.302 117.644 106.632 116.396 103.958 115.146C102.537 114.485 101.282 116.551 102.711 117.273Z" fill="#D5B993"/>
<path d="M95.8124 125.255C97.5357 125.877 99.2618 126.499 100.985 127.122C101.816 127.421 102.645 127.72 103.476 128.021C103.925 128.184 104.365 128.342 104.833 128.447C105.34 128.563 105.809 128.527 106.327 128.494C106.995 128.453 107.599 127.506 106.947 127C106.543 126.685 106.166 126.328 105.684 126.14C105.238 125.963 104.792 125.827 104.329 125.706C103.445 125.476 102.559 125.246 101.675 125.014C99.8741 124.546 98.0704 124.076 96.2695 123.609C95.189 123.329 94.79 124.887 95.8124 125.255Z" fill="#D5B993"/>
<path d="M549.399 324.186C540.583 317.571 529.811 313.914 518.834 313.281C513.428 312.968 507.953 313.469 502.678 314.689C499.957 315.32 497.287 316.158 494.699 317.206C492.263 318.191 489.28 319.256 487.523 321.29C486.445 322.54 487.479 324.349 489.113 324.017C491.604 323.511 493.92 321.909 496.273 320.952C498.697 319.967 501.204 319.176 503.748 318.565C508.685 317.378 513.761 316.932 518.834 317.121C529.215 317.505 539.353 320.864 547.792 326.93C549.468 328.137 551.009 325.395 549.399 324.186Z" fill="#D5B993"/>
<path d="M522.219 326.231C518.077 324.607 513.517 323.876 509.07 324.225C506.876 324.396 504.684 324.792 502.576 325.423C500.517 326.04 498.209 326.712 496.929 328.543C496.491 329.169 497.073 330.079 497.799 330.057C499.766 329.996 501.517 328.878 503.362 328.272C505.346 327.622 507.396 327.185 509.472 326.98C513.605 326.574 517.7 327.005 521.637 328.336C522.989 328.792 523.502 326.731 522.219 326.231Z" fill="#D5B993"/>
<path d="M511.309 334.906C509.111 334.408 506.84 334.234 504.595 334.45C502.376 334.66 499.924 335.059 498.082 336.378C497.22 336.998 497.71 338.4 498.824 338.135C500.83 337.656 502.711 336.84 504.767 336.53C506.77 336.232 508.843 336.265 510.838 336.613C511.943 336.81 512.439 335.164 511.309 334.906Z" fill="#D5B993"/>
<path d="M406.38 334.912C400.806 327.954 392.996 323.002 384.329 320.878C375.402 318.689 366.051 319.79 357.726 323.602C352.994 325.769 348.779 328.842 345.239 332.649C343.765 334.237 346.103 336.597 347.627 335.034C355.221 327.243 365.797 322.77 376.704 323.08C387.438 323.384 397.764 328.438 404.818 336.472C405.771 337.554 407.25 335.999 406.38 334.912Z" fill="#D5B993"/>
<path d="M356.388 341.026C349.45 333.103 338.767 329.736 328.457 329.846C322.423 329.91 316.435 331.163 310.684 332.917C307.617 333.852 304.605 334.942 301.629 336.137C298.826 337.263 295.867 338.334 293.487 340.235C292.608 340.937 293.315 342.641 294.434 342.522C297.31 342.218 300.009 341.009 302.699 340.01C305.5 338.97 308.312 337.955 311.163 337.061C316.51 335.385 322.049 334.121 327.662 333.869C337.287 333.44 347.461 335.999 354.271 343.137C355.615 344.536 357.643 342.459 356.388 341.026Z" fill="#D5B993"/>
<path d="M298.44 342.34C294.248 339.04 289.317 336.674 284.044 335.728C281.465 335.263 278.836 335.064 276.215 335.197C273.738 335.321 270.538 335.576 268.568 337.216C267.753 337.894 268.518 338.954 269.332 339.062C270.485 339.214 271.674 338.893 272.818 338.735C274.023 338.566 275.223 338.414 276.439 338.334C278.855 338.176 281.304 338.273 283.692 338.683C288.524 339.51 293.057 341.286 297.061 344.121C298.105 344.86 299.454 343.139 298.44 342.34Z" fill="#D5B993"/>
<path d="M259.095 321.55C253.856 318.963 246.561 318.177 241.446 321.494C240.529 322.089 241.089 323.644 242.214 323.312C244.813 322.546 247.411 321.785 250.141 321.705C252.872 321.624 255.615 322.12 258.123 323.21C259.234 323.694 260.225 322.109 259.095 321.55Z" fill="#D5B993"/>
<path d="M250.825 327.171C249.409 327.713 247.993 328.258 246.578 328.801C245.137 329.354 243.646 329.913 242.405 330.851C242.117 331.069 241.934 331.382 242.036 331.752C242.122 332.065 242.463 332.378 242.809 332.339C244.35 332.165 245.771 331.614 247.193 331.025C248.597 330.441 250.002 329.857 251.407 329.276C251.952 329.05 252.34 328.552 252.171 327.935C252.027 327.406 251.379 326.958 250.825 327.171Z" fill="#D5B993"/>
<path d="M248.392 334.843C247.204 335.075 246.015 335.305 244.826 335.537C244.245 335.65 243.66 335.764 243.075 335.877C242.771 335.935 242.48 336.016 242.183 336.104C242.009 336.157 241.815 336.209 241.66 336.298C241.427 336.433 241.294 336.646 241.139 336.854C240.842 337.247 241.05 337.983 241.488 338.185C241.732 338.298 241.956 338.42 242.236 338.42C242.411 338.42 242.624 338.367 242.798 338.331C243.103 338.27 243.397 338.201 243.693 338.113C244.261 337.938 244.826 337.764 245.394 337.593C246.55 337.238 247.702 336.884 248.858 336.53C249.309 336.392 249.597 335.919 249.47 335.454C249.337 334.97 248.858 334.751 248.392 334.843Z" fill="#D5B993"/>
<path d="M631.395 326.253C623.734 320.675 614.428 317.865 604.969 317.876C600.295 317.881 595.593 318.595 591.135 319.998C588.924 320.692 586.744 321.55 584.671 322.59C582.978 323.436 580.033 324.734 579.501 326.693C579.296 327.448 579.864 328.032 580.576 328.101C582.422 328.286 584.768 326.325 586.384 325.511C588.284 324.554 590.235 323.735 592.257 323.074C596.446 321.705 600.829 320.98 605.232 320.883C614.092 320.684 622.992 323.057 630.422 327.913C631.478 328.604 632.378 326.969 631.395 326.253Z" fill="#D5B993"/>
<path d="M605.423 331.628C600.921 329.628 595.986 329.116 591.149 330.037C588.808 330.483 586.522 331.299 584.416 332.414C582.859 333.238 579.305 335.186 579.74 337.316C579.798 337.606 580.078 337.864 580.36 337.936C581.347 338.182 582.167 337.46 582.943 336.931C583.826 336.328 584.699 335.722 585.622 335.18C587.522 334.065 589.573 333.274 591.72 332.782C595.986 331.805 600.442 332.179 604.487 333.841C605.747 334.359 606.675 332.184 605.423 331.628Z" fill="#D5B993"/>
<path d="M591.961 339.767C591.116 340.193 590.274 340.616 589.429 341.04C589.013 341.247 588.597 341.452 588.209 341.706C587.788 341.983 587.398 342.334 587.021 342.669C586.796 342.868 586.769 343.244 586.916 343.493C587.074 343.765 587.387 343.867 587.686 343.806C588.129 343.715 588.586 343.632 589.013 343.474C589.517 343.289 589.994 343.054 590.473 342.816C591.321 342.395 592.166 341.977 593.014 341.557C593.501 341.316 593.676 340.586 593.388 340.138C593.061 339.642 592.482 339.507 591.961 339.767Z" fill="#D5B993"/>
<path d="M169.749 328.217C163.063 322.645 154.594 319.763 145.902 319.79C141.613 319.804 137.274 320.501 133.224 321.923C129.569 323.207 124.541 325.235 122.346 328.601C121.718 329.564 122.781 331.124 123.934 330.665C125.743 329.94 127.242 328.651 128.927 327.677C130.592 326.715 132.334 325.91 134.144 325.251C137.84 323.91 141.721 323.176 145.653 323.085C153.543 322.902 161.589 325.232 167.834 330.126C169.178 331.18 171.101 329.346 169.749 328.217Z" fill="#D5B993"/>
<path d="M139.316 312.135C132.609 310.675 125.505 311.684 119.468 314.96C118.191 315.651 116.138 316.65 115.498 318.017C115.196 318.661 115.256 319.477 115.891 319.901C116.595 320.368 117.442 320.067 118.088 319.663C119.559 318.742 120.936 317.735 122.499 316.955C123.981 316.213 125.535 315.635 127.134 315.195C130.866 314.169 134.806 313.981 138.613 314.7C140.275 315.012 141.004 312.5 139.316 312.135Z" fill="#D5B993"/>
<path d="M119.274 305.615C117.778 306.605 116.282 307.598 114.785 308.589C114.06 309.07 113.334 309.552 112.611 310.03C111.724 310.617 110.688 311.281 110.649 312.465C110.635 312.888 110.951 313.237 111.333 313.361C112.336 313.687 113.273 313.026 114.035 312.465C114.761 311.931 115.486 311.397 116.212 310.863C117.642 309.812 119.072 308.758 120.498 307.706C121.025 307.319 121.288 306.658 120.933 306.049C120.615 305.51 119.822 305.252 119.274 305.615Z" fill="#D5B993"/>
<path d="M653.82 307.231C657.43 303.933 661.567 301.039 665.581 298.248C669.51 295.514 673.613 293.033 677.869 290.845C686.555 286.377 695.953 283.251 705.58 281.588C724.595 278.307 744.491 281.408 761.782 289.893C766.633 292.275 771.288 295.061 775.674 298.22C777.877 299.808 780.002 301.498 782.046 303.283C784.155 305.12 786.066 307.189 788.252 308.926C789.71 310.086 792.433 308.547 791.109 306.727C788.216 302.754 784.069 299.526 780.196 296.541C776.209 293.467 771.997 290.695 767.584 288.275C758.693 283.397 749.029 279.851 739.069 277.903C718.998 273.98 698.069 276.738 679.587 285.433C674.478 287.838 669.615 290.687 665.041 293.996C662.728 295.669 660.392 297.434 658.331 299.412C656.23 301.429 654.352 303.656 652.413 305.822C651.556 306.777 652.87 308.099 653.82 307.231Z" fill="#D5B993"/>
<path d="M681.967 301.208C689.888 296.018 698.701 292.272 707.922 290.101C712.546 289.011 717.256 288.341 721.999 288.106C726.693 287.874 731.383 288.25 736.06 287.774C737.038 287.674 737.257 286.399 736.293 286.056C731.716 284.424 726.803 284.454 721.999 284.75C717.07 285.054 712.158 285.799 707.362 286.969C697.803 289.304 688.763 293.415 680.701 299.042C679.393 299.957 680.604 302.104 681.967 301.208Z" fill="#D5B993"/>
<path d="M703.303 303.089C709.93 300.511 717.043 299.233 724.155 299.515C727.682 299.656 731.173 300.148 734.589 301.025C736.276 301.457 737.93 301.996 739.576 302.561C741.379 303.18 742.961 303.662 744.84 303.985C745.666 304.126 746.416 303.155 745.713 302.486C744.325 301.164 743.081 300.331 741.296 299.587C739.507 298.84 737.672 298.239 735.797 297.75C732.098 296.784 728.266 296.217 724.446 296.09C716.76 295.833 709.191 297.288 702.187 300.447C700.707 301.111 701.768 303.687 703.303 303.089Z" fill="#D5B993"/>
<path d="M704.6 314.18C709.623 312.224 714.987 311.164 720.384 311.148C723.008 311.139 725.62 311.372 728.2 311.848C729.466 312.08 730.724 312.365 731.965 312.708C732.622 312.891 733.295 313.17 733.982 313.206C734.688 313.245 735.353 313.079 736.068 313.164C736.935 313.272 737.074 312.052 736.478 311.654C735.869 311.247 735.417 310.633 734.78 310.265C734.198 309.93 733.467 309.781 732.824 309.607C731.405 309.219 729.965 308.901 728.51 308.669C725.734 308.226 722.919 308.03 720.11 308.11C714.385 308.276 708.861 309.562 703.627 311.867C702.325 312.442 703.259 314.703 704.6 314.18Z" fill="#D5B993"/>
<path d="M708.542 322.125C711.504 321.832 714.485 322.028 717.397 322.645C718.852 322.952 720.281 323.376 721.664 323.923C722.307 324.178 722.927 324.524 723.581 324.739C723.786 324.8 723.997 324.842 724.21 324.856C724.446 324.856 724.664 324.795 724.867 324.679C724.692 324.842 724.753 324.922 725.047 324.916C725.23 324.975 725.415 325.035 725.598 325.099C726.288 325.334 726.928 324.311 726.335 323.835C726.069 323.622 725.701 323.417 725.473 323.163C725.371 323.049 725.127 322.631 724.867 322.438C724.238 321.965 723.387 321.727 722.647 321.475C721.096 320.949 719.5 320.576 717.879 320.343C714.701 319.89 711.485 320.111 708.376 320.891C707.706 321.06 707.825 322.194 708.542 322.125Z" fill="#D5B993"/>
<path d="M667.413 333.966C670.474 332.641 673.752 331.739 677.063 331.318C680.354 330.9 683.668 331.053 686.973 330.911C687.879 330.873 688.056 329.62 687.186 329.34C683.748 328.245 680.083 328.413 676.558 328.933C672.99 329.456 669.549 330.519 666.268 332.004C664.927 332.61 666.091 334.536 667.413 333.966Z" fill="#D5B993"/>
<path d="M771.817 331.562C775.383 332.027 778.932 333.017 782.215 334.483C783.878 335.225 785.485 336.088 787.036 337.039C788.546 337.966 790.006 339.078 791.691 339.665C792.508 339.95 793.209 338.934 792.791 338.237C791.813 336.608 790.12 335.46 788.541 334.469C786.853 333.413 785.069 332.508 783.241 331.728C779.578 330.162 775.771 329.16 771.82 328.665C771.036 328.568 770.377 329.401 770.371 330.112C770.357 330.978 771.044 331.459 771.817 331.562Z" fill="#D5B993"/>
</svg>
