<svg width="1440" height="918" viewBox="0 0 1440 918" fill="none" xmlns="http://www.w3.org/2000/svg">
<path d="M1424.76 343.475C1389.14 346.474 1352.62 336.465 1323.19 316.253C1293.67 295.977 1272.12 265.751 1261.81 231.543C1258.92 221.96 1256.96 212.117 1255.9 202.169C1255.37 197.206 1255.08 192.215 1255.04 187.222C1255.02 184.82 1255.03 182.408 1255.17 180.009C1255.33 177.425 1256.2 175.046 1256.8 172.54C1257.08 171.389 1258.71 171.718 1258.78 172.808C1258.93 175.035 1259.52 177.229 1259.49 179.456C1259.45 181.675 1259.39 183.893 1259.4 186.112C1259.42 190.364 1259.61 194.619 1259.98 198.855C1260.73 207.505 1262.25 216.081 1264.44 224.486C1268.82 241.328 1275.97 257.407 1285.59 271.923C1304.8 300.91 1334.09 322.394 1367.17 332.99C1385.72 338.932 1405.3 341.563 1424.77 340.47C1426.7 340.363 1426.66 343.314 1424.76 343.475Z" fill="#D5B993"/>
<path d="M1275.37 176.175C1253.16 179.528 1230.49 168.578 1217.85 150.278C1214.31 145.146 1211.41 139.273 1209.95 133.189C1209.35 130.689 1213.08 129.654 1213.81 132.127C1216.81 142.255 1222.23 151.1 1230.08 158.234C1237.78 165.236 1247.25 170.058 1257.39 172.363C1263.16 173.674 1269.11 174.006 1274.99 173.35C1276.59 173.173 1276.98 175.934 1275.37 176.175Z" fill="#D5B993"/>
<path d="M1229.78 130.393C1221.67 134.255 1212.47 135.342 1203.68 133.425C1199.38 132.49 1195.19 130.852 1191.39 128.636C1189.42 127.485 1187.55 126.152 1185.8 124.688C1184.12 123.288 1182.18 121.722 1181.53 119.57C1181.11 118.17 1182.66 117.266 1183.82 117.813C1185.62 118.66 1186.92 120.447 1188.41 121.734C1189.95 123.059 1191.62 124.232 1193.36 125.272C1196.81 127.325 1200.55 128.802 1204.45 129.718C1212.35 131.571 1220.87 131.258 1228.37 127.966C1229.99 127.253 1231.44 129.607 1229.78 130.393Z" fill="#D5B993"/>
<path d="M1199.18 112.571C1186.64 123.98 1168.47 128.06 1152.12 123.778C1135.67 119.468 1123.04 106.479 1117.84 90.4779C1115.01 81.7469 1114.31 71.89 1116.77 62.9819C1117.43 60.5557 1121.06 61.5793 1120.52 64.0165C1117.22 79.0717 1121.11 95.0536 1131.42 106.656C1141.84 118.372 1157.79 123.493 1173.21 121.07C1181.89 119.703 1190.3 116.131 1196.99 110.391C1198.48 109.102 1200.66 111.218 1199.18 112.571Z" fill="#D5B993"/>
<path d="M1135.64 59.3993C1117.39 67.5521 1095.04 62.7937 1081.78 47.7469C1080.09 45.8186 1082.93 42.9748 1084.62 44.9196C1096.63 58.7299 1117.66 63.9003 1134.77 57.3244C1135.96 56.868 1136.82 58.8737 1135.64 59.3993Z" fill="#D5B993"/>
<path d="M1097.36 37.7572C1090.87 43.2874 1083.85 47.9794 1075.99 51.3406C1068.04 54.7434 1059.68 56.9428 1051.11 58.0687C1034.15 60.293 1016.57 58.1046 1000.78 51.4928C996.355 49.6392 992.069 47.4704 987.994 44.9307C983.904 42.3828 979.679 39.5583 976.468 35.9397C975.196 34.5067 976.878 31.8868 978.646 33.1234C981.97 35.4473 985.051 38.0809 988.445 40.3135C991.897 42.5848 995.516 44.6015 999.259 46.3527C1006.67 49.8246 1014.6 52.1983 1022.66 53.5732C1038.88 56.3369 1055.69 54.8264 1071.16 49.263C1079.83 46.1479 1088.39 41.7382 1095.58 35.9673C1096.82 34.9658 1098.62 36.6894 1097.36 37.7572Z" fill="#D5B993"/>
<path d="M986.409 22.7573C976.185 35.5661 962.221 44.6678 946.695 49.772C931.191 54.8706 914.318 55.9384 898.323 52.6241C889.44 50.7844 880.322 47.6003 872.678 42.6483C870.406 41.1765 872.415 37.688 874.809 39.0103C881.802 42.8696 888.872 46.04 896.658 47.9682C904.186 49.8328 911.943 50.6268 919.693 50.4525C935.275 50.0984 950.654 45.7135 964.045 37.7543C971.697 33.2063 978.626 27.5378 984.45 20.8014C985.633 19.4348 987.5 21.3934 986.409 22.7573Z" fill="#D5B993"/>
<path d="M881.04 32.0692C872.518 44.7535 860.366 53.9382 845.923 58.9926C831.092 64.1825 814.709 64.1825 799.773 59.3771C795.647 58.0492 791.619 56.3645 787.782 54.3505C784.047 52.3918 779.481 50.126 777.034 46.5904C776.311 45.5475 777.522 43.9375 778.733 44.3829C782.179 45.6554 785.138 48.231 788.344 50.0236C791.66 51.8772 795.124 53.4597 798.7 54.7433C805.663 57.2387 812.991 58.6827 820.389 58.9234C834.943 59.3965 849.264 55.1223 861.363 47.0829C868.093 42.6123 874.382 37.154 879.428 30.8271C880.148 29.9169 881.688 31.1065 881.04 32.0692Z" fill="#D5B993"/>
<path d="M1354.36 315.06C1374.4 325.23 1397.29 330.832 1419.76 331.164C1426.14 331.258 1432.59 330.367 1438.94 330.799C1440.14 330.882 1440.43 332.547 1439.23 332.921C1433.83 334.608 1427.83 334.581 1422.2 334.572C1416.4 334.561 1410.61 334.202 1404.85 333.493C1393.28 332.071 1381.92 329.294 1371.08 324.981C1365.02 322.571 1359.2 319.68 1353.53 316.477C1352.6 315.954 1353.42 314.582 1354.36 315.06Z" fill="#D5B993"/>
<path d="M1387.69 318.067C1395.77 321.144 1404.38 322.953 1413 323.481C1417.23 323.741 1421.49 323.708 1425.71 323.371C1427.84 323.202 1429.95 322.95 1432.06 322.607C1434.06 322.281 1436.3 321.448 1438.32 321.857C1439.54 322.104 1439.45 323.642 1438.63 324.248C1436.97 325.479 1434.3 325.54 1432.31 325.83C1430.12 326.148 1427.92 326.394 1425.71 326.552C1421.27 326.868 1416.82 326.815 1412.39 326.4C1403.56 325.573 1395.08 323.318 1386.93 319.863C1385.92 319.434 1386.65 317.669 1387.69 318.067Z" fill="#D5B993"/>
<path d="M1409.1 313.118C1412.14 312.877 1415.18 312.634 1418.22 312.393C1419.71 312.274 1421.2 312.125 1422.68 311.984C1423.98 311.862 1426.05 311.276 1427.17 312.125C1427.69 312.521 1427.91 313.254 1427.38 313.771C1426.3 314.817 1424.25 314.496 1422.86 314.521C1421.37 314.548 1419.88 314.568 1418.39 314.618C1415.29 314.723 1412.2 314.828 1409.1 314.936C1407.92 314.975 1407.95 313.209 1409.1 313.118Z" fill="#D5B993"/>
<path d="M1275.7 233.933C1269.37 218.344 1265.89 201.909 1265.15 185.108C1265.05 182.936 1268.42 182.945 1268.53 185.108C1269.32 201.502 1272.43 217.83 1277.58 233.416C1277.98 234.631 1276.16 235.062 1275.7 233.933Z" fill="#D5B993"/>
<path d="M1273.91 200.559C1273.83 198.379 1273.75 196.196 1273.67 194.016C1273.63 192.968 1273.58 191.916 1273.58 190.865C1273.58 189.7 1273.32 188.353 1274.34 187.542C1274.77 187.202 1275.22 187.199 1275.66 187.542C1276.67 188.35 1276.42 189.703 1276.42 190.865C1276.42 191.916 1276.36 192.965 1276.33 194.016C1276.25 196.196 1276.17 198.379 1276.09 200.559C1276.04 201.964 1273.96 201.967 1273.91 200.559Z" fill="#D5B993"/>
<path d="M1281.2 191.288C1281.19 190.671 1281.17 190.052 1281.16 189.435C1281.14 188.815 1281.09 188.198 1281.04 187.581C1281.05 187.686 1281.07 187.789 1281.08 187.894C1281.06 187.761 1281.03 187.634 1281.01 187.504C1280.92 187.072 1280.99 186.596 1281.33 186.284C1281.58 186.06 1281.88 185.916 1282.21 185.916C1282.54 185.916 1282.87 186.057 1283.1 186.284C1283.43 186.616 1283.52 187.058 1283.43 187.504C1283.4 187.634 1283.37 187.764 1283.35 187.894C1283.36 187.789 1283.38 187.686 1283.39 187.581C1283.35 188.198 1283.29 188.815 1283.28 189.435C1283.26 190.052 1283.25 190.671 1283.23 191.288C1283.22 191.819 1282.77 192.328 1282.21 192.304C1281.66 192.281 1281.21 191.858 1281.2 191.288Z" fill="#D5B993"/>
<path d="M1234.16 149.714C1249.9 162.608 1271.07 168.775 1291.26 166.642C1294.1 166.343 1296.91 165.859 1299.68 165.214C1302.29 164.608 1305.3 163.209 1308 163.496C1308.83 163.585 1309.37 164.545 1308.71 165.211C1307 166.949 1304.15 167.538 1301.86 168.116C1299.21 168.788 1296.52 169.303 1293.81 169.676C1288.49 170.41 1283.12 170.609 1277.77 170.233C1267.22 169.494 1256.66 166.625 1247.3 161.684C1241.96 158.865 1237.1 155.299 1232.65 151.23C1231.62 150.281 1233.12 148.853 1234.16 149.714Z" fill="#D5B993"/>
<path d="M1268.19 154.583C1276.3 158.063 1285.25 159.46 1294.06 158.94C1298.38 158.683 1302.69 157.936 1306.86 156.735C1311.05 155.526 1314.86 153.34 1319.04 152.143C1319.95 151.88 1320.71 153.105 1319.98 153.769C1316.67 156.787 1311.85 158.292 1307.62 159.496C1303.2 160.749 1298.64 161.463 1294.06 161.651C1284.79 162.033 1275.61 160.149 1267.2 156.265C1266.06 155.731 1267.06 154.096 1268.19 154.583Z" fill="#D5B993"/>
<path d="M1294.59 149.218C1298.23 149.265 1301.83 148.743 1305.31 147.639C1307.02 147.094 1308.68 146.41 1310.28 145.597C1311.07 145.199 1311.85 144.784 1312.61 144.333C1313.37 143.885 1314.14 143.326 1315.02 143.193C1315.63 143.102 1316.16 143.658 1315.84 144.255C1315.02 145.78 1312.85 146.706 1311.36 147.44C1309.64 148.286 1307.85 148.992 1306.02 149.548C1302.33 150.671 1298.45 151.174 1294.6 151.055C1293.41 151.019 1293.41 149.205 1294.59 149.218Z" fill="#D5B993"/>
<path d="M1351.84 168.783C1353.85 169.71 1356.09 170.039 1358.29 169.845C1360.48 169.654 1362.57 168.83 1364.58 167.989C1365.25 167.707 1365.73 168.708 1365.26 169.162C1361.56 172.733 1355.25 172.554 1350.87 170.443C1349.74 169.903 1350.72 168.271 1351.84 168.783Z" fill="#D5B993"/>
<path d="M1359.99 175.135C1362.74 176.662 1365.86 176.363 1368.72 175.326C1369.2 175.151 1369.65 175.884 1369.24 176.211C1368.54 176.759 1367.81 177.243 1366.94 177.478C1366.08 177.71 1365.18 177.832 1364.29 177.843C1362.5 177.863 1360.73 177.417 1359.16 176.554C1358.24 176.045 1359.07 174.62 1359.99 175.135Z" fill="#D5B993"/>
<path d="M1366.8 181.951C1367.98 181.525 1369.16 181.097 1370.34 180.671C1370.63 180.565 1370.92 180.485 1371.22 180.427C1371.52 180.369 1371.82 180.386 1372.12 180.35C1372.78 180.272 1373.4 180.173 1374.05 180.018C1374.2 179.982 1374.25 180.192 1374.11 180.247C1373.51 180.488 1372.95 180.754 1372.39 181.072C1372.1 181.232 1371.84 181.423 1371.55 181.55C1371.26 181.675 1370.97 181.785 1370.67 181.871C1369.46 182.203 1368.26 182.535 1367.05 182.867C1366.46 183.033 1366.23 182.159 1366.8 181.951Z" fill="#D5B993"/>
<path d="M1201.95 119.468C1206.3 121.023 1210.88 121.67 1215.49 121.36C1217.8 121.205 1220.09 120.837 1222.32 120.231C1223.34 119.955 1224.35 119.634 1225.35 119.296C1226.4 118.942 1227.47 118.381 1228.59 118.513C1229.09 118.571 1229.51 119.075 1229.2 119.57C1228.09 121.366 1225.11 122.06 1223.2 122.577C1220.84 123.222 1218.39 123.623 1215.94 123.739C1211 123.974 1206.03 123.153 1201.43 121.341C1200.29 120.893 1200.75 119.042 1201.95 119.468Z" fill="#D5B993"/>
<path d="M1213.23 113.583C1215.42 114.112 1217.67 114.25 1219.9 113.987C1222.13 113.725 1224.17 112.801 1226.36 112.449C1226.85 112.369 1227.38 112.98 1226.91 113.39C1225.09 114.958 1222.46 115.36 1220.13 115.501C1217.71 115.647 1215.26 115.335 1212.95 114.604C1212.3 114.4 1212.57 113.42 1213.23 113.583Z" fill="#D5B993"/>
<path d="M1223.2 102.924C1224.45 102.57 1225.7 102.219 1226.95 101.865C1227.58 101.685 1228.27 101.585 1228.92 101.533C1229.55 101.48 1230.17 101.389 1230.79 101.491C1231.07 101.538 1231.16 101.945 1230.96 102.122C1230.49 102.542 1229.9 102.794 1229.34 103.085C1228.76 103.386 1228.12 103.663 1227.49 103.848C1226.25 104.213 1225 104.581 1223.76 104.946C1223.21 105.107 1222.61 104.753 1222.46 104.213C1222.31 103.663 1222.65 103.079 1223.2 102.924Z" fill="#D5B993"/>
<path d="M1258.36 72.3159C1264.48 81.1687 1273.81 87.6173 1284.22 90.3782C1289.79 91.8528 1295.66 92.2013 1301.38 91.5208C1304.28 91.175 1307.16 90.5249 1309.94 89.6285C1312.76 88.7211 1315.37 87.2245 1318.21 86.4222C1319.44 86.0764 1320.53 87.7501 1319.51 88.6437C1316.03 91.6785 1310.64 93.0729 1306.21 93.9886C1301.42 94.979 1296.46 95.297 1291.58 94.7769C1282.43 93.8059 1273.87 90.2123 1266.73 84.4359C1262.82 81.2738 1259.44 77.4837 1256.68 73.2953C1255.98 72.244 1257.65 71.2979 1258.36 72.3159Z" fill="#D5B993"/>
<path d="M1314.53 79.6251C1317.38 86.5717 1323.15 91.7201 1329.96 94.6858C1336.81 97.668 1344.07 97.6791 1351.27 96.0828C1352.56 95.7979 1353.52 97.6791 1352.21 98.3154C1344.86 101.898 1335.93 100.623 1328.73 97.2392C1321.49 93.8309 1315.58 87.6119 1312.76 80.112C1312.34 78.9943 1314.09 78.5544 1314.53 79.6251Z" fill="#D5B993"/>
<path d="M1351.17 91.9082C1354.09 97.0178 1358.59 101.051 1363.85 103.655C1366.39 104.905 1369.09 105.823 1371.87 106.355C1373.28 106.626 1374.72 106.792 1376.16 106.858C1377.55 106.925 1379.22 106.836 1380.54 107.351C1381.36 107.672 1381.57 108.715 1380.78 109.226C1378.34 110.825 1374.32 110.134 1371.64 109.625C1368.46 109.022 1365.36 107.918 1362.52 106.368C1356.91 103.312 1352.31 98.6141 1349.48 92.8875C1348.93 91.7781 1350.54 90.8099 1351.17 91.9082Z" fill="#D5B993"/>
<path d="M1318.99 98.5201C1323.03 101.491 1327.64 103.519 1332.57 104.482C1335.03 104.963 1337.54 105.14 1340.05 105.099C1341.28 105.079 1342.51 104.974 1343.74 104.88C1344.92 104.789 1346.19 104.543 1347.37 104.698C1348.1 104.794 1348.39 105.638 1347.75 106.086C1345.75 107.481 1342.64 107.647 1340.28 107.73C1337.62 107.824 1334.95 107.553 1332.35 107.024C1327.1 105.962 1322.11 103.702 1317.87 100.446C1316.75 99.5879 1317.83 97.6625 1318.99 98.5201Z" fill="#D5B993"/>
<path d="M1329.24 108.917C1331.16 110.173 1333.4 110.784 1335.69 110.715C1336.82 110.682 1337.88 110.452 1338.95 110.128C1339.49 109.962 1340.02 109.733 1340.56 109.564C1341.1 109.398 1341.76 109.143 1342.31 109.351C1342.59 109.456 1342.86 109.71 1342.84 110.04C1342.72 111.42 1340.94 112.128 1339.82 112.518C1338.55 112.956 1337.13 113.105 1335.79 113.088C1333.1 113.055 1330.41 112.239 1328.22 110.651C1327.2 109.907 1328.14 108.197 1329.24 108.917Z" fill="#D5B993"/>
<path d="M1283.18 80.8505C1275.89 80.1423 1268.9 77.5695 1262.96 73.2732C1260.01 71.143 1257.34 68.6919 1255.03 65.8812C1252.95 63.3416 1249.9 59.8917 1250.06 56.4281C1250.09 55.7088 1250.98 54.9757 1251.67 55.5041C1254.24 57.4711 1255.48 60.8959 1257.5 63.4162C1259.63 66.072 1262.11 68.5038 1264.82 70.5565C1270.29 74.6841 1276.72 77.4533 1283.5 78.4493C1284.86 78.6512 1284.55 80.9861 1283.18 80.8505Z" fill="#D5B993"/>
<path d="M1267.41 66.1965C1262.1 63.7952 1257.47 60.1075 1253.92 55.5013C1252.16 53.2273 1250.64 50.7596 1249.49 48.126C1248.91 46.8063 1248.35 45.4452 1247.99 44.0509C1247.58 42.5017 1247.48 41.3204 1247.9 39.785C1248.09 39.0961 1248.93 39.0934 1249.31 39.6024C1249.73 40.1723 1250.13 40.579 1250.39 41.2568C1250.63 41.8959 1250.83 42.5598 1251.05 43.2099C1251.48 44.441 1251.88 45.6665 1252.4 46.8589C1253.47 49.3266 1254.79 51.6726 1256.38 53.8498C1259.55 58.2125 1263.72 61.831 1268.51 64.3153C1269.78 64.971 1268.67 66.7664 1267.41 66.1965Z" fill="#D5B993"/>
<path d="M1261.63 50.7624C1259.78 48.3279 1257.93 45.8906 1256.07 43.4561C1255.15 42.2416 1254.23 41.0133 1253.33 39.7795C1252.54 38.6812 1251.3 37.2177 1251.47 35.7653C1251.53 35.212 1251.95 34.8413 1252.53 34.963C1253.99 35.2701 1254.96 36.9078 1255.76 38.031C1256.68 39.3064 1257.56 40.6066 1258.44 41.9097C1260.16 44.4742 1261.88 47.0415 1263.61 49.606C1263.95 50.1206 1263.71 50.8758 1263.2 51.1718C1262.61 51.5176 1262.01 51.2576 1261.63 50.7624Z" fill="#D5B993"/>
<path d="M1324.98 62.7577C1330.61 66.9351 1337.34 69.4913 1344.34 70.1054C1351.43 70.7307 1357.92 69.1759 1364.6 66.9461C1365.79 66.5478 1366.45 68.2962 1365.43 68.9214C1359.17 72.7613 1350.97 73.5387 1343.81 72.6396C1336.47 71.7183 1329.57 68.9076 1323.75 64.3512C1322.84 63.6485 1324.05 62.0689 1324.98 62.7577Z" fill="#D5B993"/>
<path d="M1346.42 60.6471C1350.47 61.975 1354.8 62.282 1358.99 61.4963C1363.22 60.7051 1366.82 58.7908 1370.46 56.5997C1371.32 56.0824 1372.26 57.283 1371.53 57.9912C1368.33 61.1229 1363.7 62.8049 1359.33 63.4522C1354.85 64.119 1350.26 63.7178 1346 62.1658C1345.06 61.8256 1345.44 60.3262 1346.42 60.6471Z" fill="#D5B993"/>
<path d="M1360.61 51.2797C1362.19 51.2327 1363.69 50.7348 1365.01 49.891C1366.33 49.0444 1367.31 47.7552 1368.44 46.6375C1368.95 46.1257 1369.72 46.6569 1369.59 47.3098C1369.21 49.2242 1367.62 50.6351 1366 51.5923C1364.38 52.5551 1362.5 53.0807 1360.61 53.0724C1359.45 53.0696 1359.46 51.3157 1360.61 51.2797Z" fill="#D5B993"/>
<path d="M1148.79 109.475C1141.55 106.001 1135.51 100.576 1131.11 93.8917C1128.95 90.6273 1127.26 87.0668 1126.03 83.3597C1125.38 81.4094 1124.86 79.412 1124.51 77.3869C1124.2 75.5638 1123.84 73.3672 1124.53 71.5994C1124.81 70.8829 1125.89 70.5593 1126.31 71.3671C1127.13 72.9302 1127.25 74.8307 1127.56 76.5487C1127.89 78.4077 1128.32 80.2391 1128.88 82.0429C1129.99 85.6006 1131.59 89.0006 1133.55 92.171C1137.53 98.6196 1143.19 104.025 1149.87 107.627C1151.09 108.291 1150.01 110.067 1148.79 109.475Z" fill="#D5B993"/>
<path d="M1146.9 98.8907C1141.58 95.9804 1137.55 91.2193 1135.23 85.6559C1134.07 82.8839 1133.35 79.9211 1133.16 76.9222C1133.07 75.4615 1133.13 73.9869 1133.31 72.5373C1133.48 71.1955 1133.66 69.2729 1134.97 68.5481C1135.45 68.288 1136.04 68.4374 1136.32 68.8994C1136.97 69.9673 1136.52 71.381 1136.36 72.5456C1136.2 73.8653 1136.14 75.1931 1136.19 76.5238C1136.29 79.2737 1136.8 81.9599 1137.75 84.5493C1139.64 89.7171 1143.26 94.1988 1148 97.0095C1149.22 97.7233 1148.13 99.5657 1146.9 98.8907Z" fill="#D5B993"/>
<path d="M1147.59 86.1733C1144.76 83.9878 1142.78 80.9114 1141.99 77.4091C1141.61 75.7132 1141.48 73.9482 1141.69 72.2192C1141.79 71.32 1141.96 70.4487 1142.24 69.5911C1142.52 68.7556 1143.12 67.7264 1144.06 67.541C1144.44 67.4663 1144.84 67.5881 1145.04 67.9394C1145.36 68.5066 1145.29 68.9492 1145.18 69.5688C1145.18 69.3392 1145.18 69.1096 1145.18 68.88C1145.4 70.266 1144.66 71.7295 1144.56 73.1376C1144.47 74.5098 1144.57 75.8737 1144.9 77.2071C1145.57 79.9155 1147.06 82.2947 1149.25 84.0375C1150.44 84.9892 1148.82 87.1194 1147.59 86.1733Z" fill="#D5B993"/>
<path d="M1107.55 46.8728C1121.6 53.1693 1137.26 50.494 1150.07 42.6428C1150.97 42.0895 1152.05 43.4202 1151.22 44.1367C1139.17 54.5359 1120.54 55.3327 1106.54 48.5908C1105.38 48.0292 1106.4 46.3582 1107.55 46.8728Z" fill="#D5B993"/>
<path d="M1122.48 42.4602C1127.88 43.5861 1133.57 42.9277 1138.61 40.7145C1141.02 39.6577 1143.27 38.2607 1145.3 36.5925C1146.32 35.7487 1147.26 34.8247 1148.17 33.862C1149.07 32.9103 1149.83 31.8147 1150.87 31.029C1151.41 30.6251 1152.11 31.2919 1151.96 31.859C1151.28 34.4042 1148.65 36.6644 1146.67 38.2551C1144.41 40.0726 1141.86 41.4863 1139.16 42.5486C1133.76 44.6761 1127.77 45.1437 1122.12 43.7743C1121.26 43.5668 1121.63 42.2831 1122.48 42.4602Z" fill="#D5B993"/>
<path d="M1134.47 31.4745C1136.71 29.6238 1138.93 27.7674 1141.15 25.9028C1142.23 24.9982 1143.31 24.0964 1144.38 23.1917C1145.47 22.2788 1146.62 21.0975 1147.99 20.6687C1148.68 20.4529 1149.26 21.2634 1148.91 21.8582C1148.21 23.07 1146.84 23.8971 1145.74 24.7326C1144.58 25.6068 1143.43 26.481 1142.27 27.3552C1139.96 29.1036 1137.66 30.8632 1135.36 32.6254C1134.71 33.1317 1133.83 32.0085 1134.47 31.4745Z" fill="#D5B993"/>
<path d="M1176.65 59.8059C1181.23 64.8962 1187.3 68.3903 1193.96 69.9865C1200.77 71.6187 1207.3 70.7612 1214.02 69.2036C1215.02 68.974 1215.71 70.3905 1214.74 70.9023C1208.4 74.2553 1200.37 74.1058 1193.56 72.3823C1186.5 70.5951 1180 66.7415 1175.22 61.2279C1174.38 60.2569 1175.77 58.8376 1176.65 59.8059Z" fill="#D5B993"/>
<path d="M1194.76 61.7453C1197.95 62.7135 1201.34 62.9626 1204.64 62.4203C1207.98 61.8698 1210.84 60.3704 1213.91 59.037C1214.51 58.7714 1215.18 59.4685 1214.65 60.0052C1212.19 62.5254 1208.38 63.7012 1204.96 64.1992C1201.39 64.7193 1197.76 64.4648 1194.31 63.372C1193.28 63.0428 1193.72 61.4271 1194.76 61.7453Z" fill="#D5B993"/>
<path d="M1204.86 50.5521C1206.12 50.7125 1207.42 50.5466 1208.59 50.032C1209.17 49.7747 1209.74 49.4511 1210.25 49.0693C1210.78 48.6737 1211.32 48.2919 1211.78 47.8272C1212.13 47.4786 1212.66 47.9184 1212.44 48.3389C1212.11 49.0001 1211.7 49.6364 1211.12 50.1067C1210.51 50.6047 1209.86 51.0058 1209.12 51.3074C1207.71 51.8966 1206.19 52.0681 1204.68 51.8495C1203.95 51.7417 1204.12 50.458 1204.86 50.5521Z" fill="#D5B993"/>
<path d="M1007.43 36.811C1013.46 40.8777 1020.53 43.1655 1027.8 43.4671C1031.35 43.6137 1034.93 43.3177 1038.4 42.5403C1040.14 42.1503 1041.87 41.6468 1043.56 41.063C1045.15 40.5097 1046.64 39.7711 1048.32 39.5858C1049.05 39.5055 1049.3 40.4738 1048.88 40.933C1046.58 43.4865 1042.08 44.4769 1038.84 45.1298C1035.12 45.8795 1031.31 46.1312 1027.53 45.8546C1019.99 45.304 1012.66 42.7866 1006.5 38.3934C1005.55 37.7211 1006.43 36.1415 1007.43 36.811Z" fill="#D5B993"/>
<path d="M1024.08 32.7471C1025.83 32.2214 1027.58 31.6931 1029.33 31.1674C1031.1 30.6363 1032.82 30.047 1034.66 29.8174C1035.45 29.7178 1035.74 30.971 1035.06 31.3085C1033.41 32.1246 1031.63 32.5728 1029.87 33.0984C1028.11 33.6213 1026.36 34.1441 1024.61 34.667C1023.38 35.0294 1022.85 33.115 1024.08 32.7471Z" fill="#D5B993"/>
<path d="M978.416 36.302C977.568 35.5219 976.728 34.7362 975.847 33.9921C975.917 34.0474 975.986 34.0999 976.058 34.1525C976.041 34.1414 976.025 34.1303 976.011 34.1165C976.094 34.1525 976.177 34.1857 976.26 34.2217C976.21 34.2051 976.158 34.1885 976.108 34.1719C976.307 34.1719 976.507 34.1719 976.706 34.1719C976.695 34.1747 976.687 34.1774 976.676 34.1802C976.066 34.3379 975.385 33.9837 975.224 33.3585C975.18 33.187 975.146 33.01 975.107 32.8385C974.966 32.1883 975.501 31.671 976.146 31.801C976.321 31.837 976.501 31.8674 976.673 31.9116C977.305 32.0638 977.645 32.7555 977.496 33.3613C977.493 33.3724 977.49 33.3806 977.487 33.3889C977.487 33.1897 977.487 32.9906 977.487 32.7914C977.504 32.8412 977.524 32.891 977.54 32.9436C977.504 32.8606 977.471 32.7776 977.435 32.6946C977.446 32.7112 977.46 32.7278 977.471 32.7416C977.415 32.6725 977.363 32.6032 977.31 32.5313C978.064 33.4028 978.862 34.2272 979.654 35.0655C979.97 35.3974 980.009 35.9784 979.654 36.302C979.294 36.634 978.776 36.634 978.416 36.302Z" fill="#D5B993"/>
<path d="M1334.23 247.462C1339.29 253.022 1345.88 256.953 1353.14 258.917C1356.65 259.869 1360.27 260.339 1363.91 260.339C1367.65 260.339 1371.31 259.631 1375.02 259.291C1375.91 259.208 1376.24 260.569 1375.48 260.962C1368.66 264.445 1359.55 263.526 1352.44 261.449C1344.85 259.23 1337.92 254.937 1332.72 248.975C1331.82 247.946 1333.3 246.438 1334.23 247.462Z" fill="#D5B993"/>
<path d="M1359.08 249.085C1362.64 251.238 1366.68 252.513 1370.84 252.756C1374.98 252.997 1379.07 252.192 1383.01 251.005C1384.19 250.651 1384.92 252.38 1383.85 252.981C1375.91 257.443 1365.3 255.968 1357.82 251.232C1356.47 250.377 1357.7 248.253 1359.08 249.085Z" fill="#D5B993"/>
<path d="M1374.31 241.76C1375.94 242.169 1377.69 242.274 1379.34 241.998C1380.2 241.854 1381.04 241.616 1381.87 241.337C1382.81 241.018 1383.77 240.371 1384.75 240.902C1385.01 241.046 1385.21 241.375 1385.19 241.677C1385.12 242.966 1383.78 243.434 1382.75 243.843C1381.83 244.211 1380.85 244.432 1379.87 244.573C1377.78 244.869 1375.68 244.77 1373.63 244.219C1372.04 243.793 1372.71 241.359 1374.31 241.76Z" fill="#D5B993"/>
<path d="M1378.69 234.122C1379.39 233.557 1380.08 232.993 1380.78 232.426C1381.12 232.152 1381.45 231.875 1381.79 231.604C1382.02 231.419 1382.27 231.256 1382.52 231.09C1382.66 230.993 1382.81 230.904 1382.98 230.863C1383.14 230.821 1383.32 230.818 1383.49 230.807C1384.04 230.777 1384.52 231.402 1384.34 231.931C1384.23 232.249 1384.11 232.525 1383.85 232.747C1383.65 232.915 1383.45 233.09 1383.24 233.25C1382.86 233.543 1382.46 233.809 1382.06 234.086C1381.33 234.6 1380.59 235.118 1379.86 235.632C1379.47 235.909 1378.89 235.734 1378.62 235.383C1378.35 235.04 1378.32 234.426 1378.69 234.122Z" fill="#D5B993"/>
<path d="M1336.05 228.854C1333.37 227.606 1330.7 226.359 1328.03 225.108C1326.74 224.505 1325.45 223.902 1324.16 223.299C1322.9 222.71 1321.13 222.14 1320.44 220.845C1320.16 220.32 1320.37 219.47 1321.04 219.354C1322.57 219.094 1324.02 220.029 1325.33 220.69C1326.64 221.354 1327.96 222.015 1329.27 222.679C1331.94 224.029 1334.62 225.377 1337.29 226.727C1338.72 227.446 1337.47 229.518 1336.05 228.854Z" fill="#D5B993"/>
<path d="M1343.74 220.391C1341.94 219.924 1340.13 219.454 1338.33 218.986C1337.45 218.757 1336.56 218.527 1335.68 218.295C1335.21 218.176 1334.77 218.037 1334.32 217.86C1333.84 217.669 1333.46 217.315 1333.06 217C1332.41 216.491 1333.01 215.547 1333.68 215.506C1334.2 215.473 1334.66 215.437 1335.17 215.553C1335.64 215.658 1336.08 215.819 1336.53 215.979C1337.36 216.278 1338.19 216.579 1339.02 216.878C1340.74 217.501 1342.47 218.123 1344.19 218.745C1345.21 219.113 1344.82 220.674 1343.74 220.391Z" fill="#D5B993"/>
<path d="M892.211 17.0694C900.65 23.1335 910.791 26.4947 921.17 26.8793C926.24 27.0674 931.321 26.622 936.255 25.4352C938.799 24.8238 941.306 24.0326 943.731 23.0478C946.086 22.0906 948.396 20.4915 950.89 19.9825C952.522 19.6505 953.561 21.457 952.48 22.7102C950.724 24.7464 947.74 25.8087 945.304 26.7936C942.716 27.8421 940.046 28.6802 937.325 29.311C932.05 30.531 926.575 31.0318 921.17 30.7191C910.192 30.0856 899.42 26.4284 890.604 19.8137C888.997 18.6076 890.532 15.8632 892.211 17.0694Z" fill="#D5B993"/>
<path d="M918.366 15.6668C922.303 16.9975 926.398 17.429 930.531 17.0224C932.543 16.8232 934.526 16.4082 936.449 15.7913C938.355 15.1826 940.181 14.0097 942.204 13.946C942.927 13.9239 943.512 14.8313 943.074 15.4593C941.827 17.2409 939.622 17.9021 937.619 18.519C935.449 19.1857 933.194 19.6007 930.93 19.7778C926.486 20.1264 921.926 19.396 917.784 17.7721C916.504 17.2686 917.011 15.2076 918.366 15.6668Z" fill="#D5B993"/>
<path d="M929.165 7.38402C931.16 7.73259 933.233 7.76855 935.236 7.46701C937.292 7.15993 939.173 6.34109 941.179 5.86249C942.281 5.59967 942.791 6.99677 941.921 7.61923C940.079 8.93883 937.627 9.33718 935.408 9.54743C933.163 9.76045 930.891 9.58891 928.694 9.09094C927.567 8.83643 928.057 7.19036 929.165 7.38402Z" fill="#D5B993"/>
<path d="M1035.19 7.52786C1042.24 15.5617 1052.57 20.6133 1063.3 20.9204C1074.21 21.2302 1084.78 16.7569 1092.38 8.96648C1093.9 7.40619 1096.24 9.76322 1094.76 11.3512C1088.57 18.0129 1080.12 22.4143 1071.12 23.7809C1062.13 25.1448 1052.98 23.3714 1045.07 18.9008C1040.67 16.411 1036.78 13.0276 1033.62 9.08814C1032.76 8.00368 1034.23 6.4434 1035.19 7.52786Z" fill="#D5B993"/>
<path d="M1085.73 0.866193C1092.54 8.0037 1102.71 10.5627 1112.34 10.1339C1117.95 9.88215 1123.49 8.61781 1128.84 6.94133C1131.69 6.04776 1134.5 5.03252 1137.3 3.99232C1139.99 2.99363 1142.69 1.78185 1145.57 1.48031C1146.68 1.36135 1147.4 3.06281 1146.51 3.76826C1144.13 5.66882 1141.17 6.73942 1138.37 7.86537C1135.4 9.06049 1132.38 10.1477 1129.32 11.0856C1123.56 12.8395 1117.58 14.0927 1111.54 14.1563C1101.23 14.267 1090.55 10.9002 1083.61 2.97701C1082.36 1.54398 1084.39 -0.53641 1085.73 0.866193Z" fill="#D5B993"/>
<path d="M1142.94 -0.121455C1146.95 2.71418 1151.48 4.49027 1156.31 5.31744C1158.7 5.72688 1161.15 5.82365 1163.56 5.66596C1164.78 5.58573 1165.98 5.4336 1167.19 5.26485C1168.33 5.10716 1169.52 4.78622 1170.67 4.93837C1171.48 5.04626 1172.24 6.10865 1171.44 6.78367C1169.52 8.3827 1166.43 8.651 1164.01 8.79209C1161.32 8.94978 1158.61 8.75062 1155.96 8.27202C1150.69 7.32589 1145.75 4.96051 1141.56 1.66011C1140.56 0.868893 1141.89 -0.868403 1142.94 -0.121455Z" fill="#D5B993"/>
<path d="M1181.88 20.7903C1184.39 21.8831 1187.13 22.3755 1189.86 22.2953C1192.59 22.2151 1195.19 21.4571 1197.79 20.688C1198.9 20.3588 1199.48 21.9052 1198.56 22.5055C1193.44 25.8225 1186.15 25.0369 1180.91 22.4502C1179.78 21.8942 1180.77 20.3062 1181.88 20.7903Z" fill="#D5B993"/>
<path d="M1188.6 14.7235C1190 14.1398 1191.41 13.5588 1192.81 12.975C1194.23 12.383 1195.65 11.8353 1197.19 11.661C1197.54 11.6223 1197.88 11.9376 1197.97 12.2474C1198.07 12.6154 1197.89 12.9336 1197.6 13.1494C1196.36 14.0872 1194.87 14.646 1193.43 15.1993C1192.01 15.7415 1190.59 16.2865 1189.18 16.8287C1188.63 17.039 1187.98 16.5936 1187.83 16.0652C1187.66 15.4372 1188.05 14.9503 1188.6 14.7235Z" fill="#D5B993"/>
<path d="M1191.15 7.46974C1192.3 7.11563 1193.45 6.76151 1194.61 6.4074C1195.17 6.23311 1195.74 6.06162 1196.31 5.88734C1196.61 5.79604 1196.9 5.72685 1197.2 5.66876C1197.38 5.63279 1197.59 5.58028 1197.77 5.58028C1198.04 5.58028 1198.27 5.70198 1198.52 5.81541C1198.95 6.02012 1199.16 6.75321 1198.86 7.14605C1198.71 7.35353 1198.58 7.5666 1198.34 7.70216C1198.19 7.79345 1197.99 7.84595 1197.82 7.89575C1197.52 7.98428 1197.23 8.06451 1196.92 8.1226C1196.34 8.23603 1195.76 8.3495 1195.17 8.46292C1193.99 8.69531 1192.8 8.92495 1191.61 9.15733C1191.14 9.24862 1190.66 9.02728 1190.53 8.54592C1190.41 8.07838 1190.69 7.60806 1191.15 7.46974Z" fill="#D5B993"/>
<path d="M809.581 16.0846C817.006 20.9342 825.916 23.3216 834.771 23.1141C839.179 23.009 843.554 22.2897 847.746 20.9231C849.768 20.2647 851.719 19.443 853.619 18.4858C854.556 18.0127 855.467 17.501 856.393 17.0085C857.329 16.5106 858.335 15.7857 859.427 15.8964C860.139 15.9683 860.707 16.552 860.502 17.3045C859.967 19.2715 857.03 20.5607 855.332 21.4072C853.334 22.4031 851.242 23.2387 849.117 23.9192C844.584 25.3744 839.794 26.113 835.034 26.1213C825.575 26.1324 816.269 23.3216 808.608 17.7444C807.627 17.0306 808.525 15.3957 809.581 16.0846Z" fill="#D5B993"/>
<path d="M835.516 10.1589C839.561 11.8215 844.016 12.1922 848.283 11.2184C850.369 10.7398 852.37 9.97897 854.226 8.90834C855.152 8.37441 856.041 7.78794 856.916 7.17102C857.709 6.61219 858.626 5.80993 859.645 6.06445C859.928 6.13638 860.205 6.39089 860.266 6.68413C860.69 8.76729 857.268 10.6789 855.747 11.5006C853.597 12.6597 851.259 13.5008 848.859 13.9628C844.025 14.8895 839.085 14.3694 834.585 12.372C833.341 11.8215 834.242 9.636 835.516 10.1589Z" fill="#D5B993"/>
<path d="M846.995 2.44036C847.843 2.01985 848.688 1.60207 849.536 1.18156C850.001 0.951947 850.466 0.736197 850.951 0.542543C851.384 0.368256 851.868 0.285222 852.323 0.191162C852.622 0.1303 852.932 0.232677 853.093 0.503792C853.24 0.752775 853.212 1.12903 852.985 1.32821C852.616 1.65189 852.242 1.98384 851.838 2.26602C851.445 2.5399 851.001 2.74462 850.575 2.95764C849.729 3.38091 848.887 3.80701 848.042 4.23028C847.557 4.47373 846.892 4.37411 846.621 3.85678C846.374 3.39201 846.474 2.69764 846.995 2.44036Z" fill="#D5B993"/>
<path d="M1272.17 13.8741C1278.42 18.7708 1286.46 21.0863 1294.35 20.9148C1298.2 20.8318 1302 20.1236 1305.63 18.8344C1307.52 18.1621 1309.34 17.3267 1311.08 16.3225C1312.76 15.3514 1314.26 14.0594 1316.07 13.3346C1317.22 12.8754 1318.29 14.4274 1317.66 15.3984C1315.5 18.7127 1310.61 20.699 1307.02 21.9937C1302.91 23.4765 1298.47 24.1958 1294.1 24.2096C1285.41 24.2373 1276.94 21.3547 1270.26 15.783C1268.9 14.657 1270.83 12.8201 1272.17 13.8741Z" fill="#D5B993"/>
<path d="M1301.4 29.3028C1308.15 30.5781 1315.07 28.9431 1320.75 25.1531C1321.71 24.5112 1323.93 22.8237 1324.62 24.752C1325.2 26.3897 1322.88 27.6153 1321.77 28.3179C1318.91 30.1355 1315.59 31.3666 1312.27 32.0001C1308.43 32.7332 1304.52 32.6945 1300.69 31.8618C1299 31.4994 1299.73 28.9874 1301.4 29.3028Z" fill="#D5B993"/>
<path d="M1319.51 36.2936C1320.94 35.2424 1322.37 34.1884 1323.8 33.1371C1324.5 32.6198 1325.2 32.0997 1325.91 31.5823C1326.69 31.0069 1327.64 30.2986 1328.68 30.6362C1329.05 30.7607 1329.37 31.112 1329.36 31.5325C1329.32 32.6834 1328.33 33.3473 1327.47 33.92C1326.72 34.4152 1325.97 34.9104 1325.22 35.4083C1323.73 36.3987 1322.23 37.3919 1320.73 38.3823C1320.19 38.7447 1319.39 38.4902 1319.08 37.948C1318.71 37.3338 1318.98 36.6837 1319.51 36.2936Z" fill="#D5B993"/>
<path d="M15.2488 340.47C50.1695 342.432 85.2786 332.431 114.129 312.759C142.902 293.139 163.9 263.612 173.918 230.365C176.689 221.172 178.667 211.713 179.706 202.166C180.227 197.386 180.526 192.58 180.596 187.775C180.632 185.368 180.579 182.967 180.537 180.563C180.49 177.926 181.05 175.431 181.23 172.805C181.305 171.727 182.926 171.378 183.208 172.537C183.715 174.634 184.583 176.753 184.768 178.897C184.965 181.199 184.976 183.523 184.976 185.833C184.979 190.27 184.785 194.708 184.402 199.128C183.627 208.075 182.114 216.969 179.85 225.662C175.373 242.841 168.061 259.344 158.248 274.15C138.455 304.011 108.604 325.977 74.4677 336.769C55.3921 342.8 35.1944 345.151 15.2516 343.472C13.3426 343.314 13.2983 340.36 15.2488 340.47Z" fill="#D5B993"/>
<path d="M165.011 173.353C185.79 175.666 207.132 165.214 218.824 148.059C222.185 143.129 224.499 137.829 226.191 132.13C226.923 129.662 230.655 130.686 230.054 133.192C224.906 154.619 204.669 171.862 183.325 175.846C177.124 177.002 170.862 177.118 164.629 176.178C163.041 175.937 163.396 173.173 165.011 173.353Z" fill="#D5B993"/>
<path d="M211.64 127.966C219.135 131.256 227.654 131.571 235.559 129.718C239.463 128.802 243.2 127.322 246.644 125.272C248.317 124.273 249.922 123.155 251.407 121.894C252.964 120.569 254.316 118.693 256.183 117.816C257.344 117.268 258.893 118.179 258.472 119.573C257.823 121.731 255.884 123.291 254.208 124.691C252.457 126.154 250.589 127.488 248.614 128.639C244.818 130.857 240.623 132.492 236.326 133.427C227.53 135.342 218.334 134.255 210.219 130.395C208.568 129.61 210.011 127.253 211.64 127.966Z" fill="#D5B993"/>
<path d="M243.017 110.386C254.967 120.638 272.236 124.06 287.339 119.908C302.311 115.791 313.776 103.851 318.444 89.1971C321.074 80.9447 321.334 72.4489 319.483 64.0139C318.948 61.5821 322.572 60.5503 323.24 62.9792C327.612 78.8588 322.334 96.8188 311.673 109.044C300.352 122.03 282.895 127.435 266.058 124.694C256.654 123.161 247.874 118.984 240.829 112.571C239.343 111.218 241.518 109.099 243.017 110.386Z" fill="#D5B993"/>
<path d="M305.237 57.3244C322.348 63.9004 343.374 58.7299 355.387 44.9196C357.077 42.9748 359.917 45.8187 358.219 47.7469C344.959 62.7937 322.617 67.5493 304.364 59.3993C303.2 58.8792 304.034 56.8624 305.237 57.3244Z" fill="#D5B993"/>
<path d="M344.43 35.9673C350.821 41.0936 358.288 45.1023 365.888 48.1426C373.482 51.1774 381.5 53.2744 389.624 54.2372C405.884 56.1626 422.755 54.0352 437.86 47.6419C442.035 45.8741 446.078 43.7661 449.92 41.362C453.924 38.8556 457.498 35.818 461.357 33.1207C463.108 31.8951 464.818 34.4901 463.535 35.937C460.684 39.1516 457.033 41.6773 453.445 44.015C449.915 46.3167 446.213 48.3473 442.384 50.1096C434.541 53.717 426.232 56.2484 417.704 57.6205C400.87 60.3289 383.091 58.8378 367.157 52.6326C358.083 49.0999 350.04 44.0621 342.637 37.76C341.385 36.6894 343.18 34.9659 344.43 35.9673Z" fill="#D5B993"/>
<path d="M455.553 20.8014C476.064 44.5405 510.029 55.1084 540.569 48.61C549.371 46.7371 557.351 43.3399 565.191 39.0131C567.582 37.6935 569.594 41.1793 567.322 42.651C560.523 47.0525 552.524 50.0236 544.686 51.9436C536.812 53.8746 528.65 54.7183 520.546 54.497C504.305 54.0544 487.941 49.4925 474.097 40.9303C466.275 36.0945 459.324 29.9418 453.591 22.7573C452.505 21.3934 454.37 19.432 455.553 20.8014Z" fill="#D5B993"/>
<path d="M560.578 30.8245C569.364 41.8461 581.757 50.6988 595.111 55.2524C609.169 60.0467 624.457 60.1131 638.612 55.648C642.602 54.3893 646.464 52.7847 650.163 50.8343C652.088 49.819 653.964 48.7152 655.787 47.5284C657.572 46.3665 659.264 45.1216 661.27 44.383C662.475 43.9375 663.695 45.5393 662.969 46.5905C660.802 49.7166 656.984 51.7252 653.718 53.54C650.26 55.4627 646.63 57.0948 642.915 58.4559C635.465 61.1782 627.544 62.6859 619.614 62.9266C604.304 63.3941 588.874 58.752 576.312 49.9933C569.356 45.1437 563.676 39.0823 558.963 32.0693C558.323 31.1149 559.847 29.9088 560.578 30.8245Z" fill="#D5B993"/>
<path d="M86.4727 316.477C76.4348 322.143 65.8816 326.702 54.7354 329.701C43.4979 332.724 31.8752 334.329 20.2387 334.545C13.858 334.664 6.91206 334.835 0.769634 332.918C-0.421725 332.547 -0.155747 330.879 1.05778 330.796C6.60729 330.417 12.2288 331.164 17.7978 331.175C23.4913 331.189 29.1877 330.86 34.8425 330.201C45.9997 328.898 57.0239 326.273 67.6354 322.605C73.7861 320.48 79.8343 318.001 85.6387 315.055C86.578 314.585 87.4008 315.954 86.4727 316.477Z" fill="#D5B993"/>
<path d="M53.0731 319.863C44.9164 323.315 36.4439 325.573 27.6168 326.4C23.1838 326.815 18.7315 326.865 14.2902 326.552C12.082 326.397 9.88492 326.148 7.69614 325.83C5.70685 325.543 3.0249 325.473 1.37085 324.248C0.556297 323.645 0.467638 322.104 1.68393 321.858C3.6289 321.465 5.71516 322.237 7.64073 322.557C9.84613 322.925 12.0626 323.194 14.2902 323.371C18.5126 323.708 22.771 323.742 26.9989 323.481C35.6238 322.953 44.2404 321.144 52.3139 318.068C53.3446 317.672 54.101 319.429 53.0731 319.863Z" fill="#D5B993"/>
<path d="M30.8999 314.933C27.8052 314.828 24.7104 314.723 21.6156 314.615C20.1251 314.565 18.6345 314.546 17.1439 314.518C15.7475 314.49 13.6973 314.811 12.6195 313.768C12.0875 313.251 12.312 312.518 12.8328 312.122C13.9189 311.298 15.886 311.849 17.1439 311.967C18.6899 312.114 20.2387 312.269 21.7874 312.393C24.824 312.634 27.8634 312.878 30.8999 313.118C32.0497 313.21 32.083 314.975 30.8999 314.933Z" fill="#D5B993"/>
<path d="M162.426 233.416C167.568 217.83 170.688 201.499 171.478 185.108C171.583 182.95 174.949 182.934 174.855 185.108C174.118 201.909 170.63 218.347 164.304 233.934C163.847 235.062 162.024 234.631 162.426 233.416Z" fill="#D5B993"/>
<path d="M163.914 200.559C163.836 198.379 163.759 196.196 163.678 194.016C163.64 192.968 163.59 191.916 163.59 190.865C163.59 189.7 163.332 188.353 164.349 187.542C164.778 187.202 165.233 187.199 165.665 187.542C166.679 188.35 166.424 189.703 166.424 190.865C166.424 191.916 166.371 192.965 166.335 194.016C166.258 196.196 166.177 198.379 166.1 200.559C166.047 201.964 163.964 201.967 163.914 200.559Z" fill="#D5B993"/>
<path d="M156.768 191.288C156.755 190.671 156.741 190.052 156.724 189.435C156.71 188.815 156.655 188.198 156.608 187.581C156.622 187.686 156.635 187.789 156.649 187.894C156.63 187.761 156.599 187.634 156.574 187.504C156.486 187.072 156.555 186.596 156.899 186.284C157.145 186.06 157.447 185.916 157.785 185.916C158.107 185.916 158.445 186.057 158.672 186.284C159.004 186.616 159.087 187.058 158.996 187.504C158.968 187.634 158.938 187.764 158.921 187.894C158.935 187.789 158.949 187.686 158.963 187.581C158.916 188.198 158.86 188.815 158.846 189.435C158.833 190.052 158.819 190.671 158.802 191.288C158.788 191.819 158.342 192.328 157.785 192.304C157.223 192.281 156.782 191.858 156.768 191.288Z" fill="#D5B993"/>
<path d="M207.354 151.224C191.512 165.715 169.516 172.366 148.216 169.928C145.262 169.591 142.325 169.101 139.43 168.426C136.779 167.806 133.274 167.22 131.29 165.209C130.631 164.539 131.168 163.582 132.002 163.494C134.396 163.239 136.992 164.395 139.289 164.965C141.685 165.56 144.115 166.033 146.562 166.376C151.568 167.076 156.66 167.223 161.703 166.896C171.943 166.232 181.934 163.53 191.141 159.012C196.346 156.458 201.353 153.388 205.839 149.711C206.886 148.856 208.388 150.281 207.354 151.224Z" fill="#D5B993"/>
<path d="M172.799 156.262C164.39 160.146 155.211 162.03 145.946 161.648C141.361 161.46 136.798 160.746 132.384 159.493C128.154 158.292 123.327 156.782 120.019 153.766C119.293 153.105 120.052 151.877 120.967 152.14C125.136 153.34 128.954 155.52 133.146 156.732C137.31 157.936 141.619 158.68 145.946 158.937C154.749 159.46 163.698 158.06 171.816 154.58C172.946 154.096 173.949 155.731 172.799 156.262Z" fill="#D5B993"/>
<path d="M145.409 151.055C141.555 151.174 137.679 150.674 133.989 149.548C132.213 149.008 130.475 148.325 128.805 147.517C127.278 146.778 125.012 145.818 124.167 144.255C123.843 143.655 124.375 143.099 124.987 143.193C125.873 143.326 126.641 143.885 127.397 144.333C128.107 144.753 128.835 145.143 129.569 145.517C131.223 146.361 132.93 147.074 134.701 147.639C138.169 148.743 141.771 149.268 145.412 149.218C146.595 149.205 146.589 151.019 145.409 151.055Z" fill="#D5B993"/>
<path d="M89.138 170.443C84.7577 172.554 78.449 172.733 74.742 169.162C74.271 168.708 74.7558 167.707 75.4263 167.989C77.435 168.83 79.5268 169.654 81.7156 169.845C83.9154 170.036 86.1513 169.707 88.1655 168.783C89.2793 168.271 90.2601 169.903 89.138 170.443Z" fill="#D5B993"/>
<path d="M80.8401 176.554C79.2719 177.414 77.4987 177.863 75.7061 177.843C74.8417 177.832 73.969 177.716 73.1322 177.497C72.2373 177.262 71.4837 176.775 70.7661 176.211C70.3505 175.884 70.7994 175.151 71.2815 175.326C74.1435 176.363 77.266 176.665 80.0089 175.135C80.9342 174.62 81.7682 176.045 80.8401 176.554Z" fill="#D5B993"/>
<path d="M72.9494 182.87C71.7442 182.538 70.5389 182.206 69.3337 181.874C69.029 181.791 68.7464 181.68 68.4555 181.553C68.1756 181.431 67.9429 181.251 67.6769 181.108C67.0923 180.787 66.516 180.499 65.8926 180.25C65.7541 180.195 65.804 179.984 65.9564 180.02C66.5742 180.17 67.181 180.283 67.8127 180.344C68.4582 180.408 69.0484 180.449 69.6662 180.67C70.8437 181.097 72.024 181.525 73.2015 181.951C73.7722 182.159 73.5506 183.036 72.9494 182.87Z" fill="#D5B993"/>
<path d="M238.573 121.343C233.974 123.155 229.001 123.977 224.061 123.742C221.689 123.628 219.318 123.247 217.021 122.638C215.065 122.121 211.945 121.413 210.803 119.57C210.496 119.072 210.912 118.571 211.41 118.513C212.535 118.383 213.607 118.942 214.652 119.296C215.652 119.634 216.666 119.955 217.683 120.231C219.913 120.837 222.205 121.205 224.512 121.36C229.123 121.67 233.705 121.02 238.052 119.468C239.249 119.042 239.717 120.893 238.573 121.343Z" fill="#D5B993"/>
<path d="M227.053 114.604C224.74 115.335 222.296 115.645 219.874 115.501C217.544 115.36 214.912 114.959 213.1 113.39C212.632 112.983 213.153 112.372 213.649 112.449C215.84 112.801 217.88 113.725 220.107 113.987C222.337 114.25 224.59 114.112 226.773 113.584C227.435 113.42 227.701 114.4 227.053 114.604Z" fill="#D5B993"/>
<path d="M216.245 104.947C214.998 104.581 213.754 104.213 212.507 103.848C211.878 103.663 211.238 103.386 210.659 103.085C210.1 102.794 209.515 102.542 209.044 102.122C208.845 101.945 208.933 101.535 209.21 101.491C209.834 101.389 210.454 101.48 211.081 101.533C211.737 101.588 212.422 101.688 213.056 101.865C214.306 102.219 215.555 102.573 216.805 102.924C217.35 103.079 217.688 103.666 217.539 104.213C217.389 104.753 216.791 105.107 216.245 104.947Z" fill="#D5B993"/>
<path d="M183.33 73.2982C172.974 88.9869 154.474 97.3693 135.839 94.3677C133.099 93.925 130.395 93.2445 127.777 92.3288C125.231 91.438 122.551 90.4393 120.496 88.6466C119.473 87.7531 120.559 86.0765 121.79 86.4251C124.627 87.2274 127.242 88.7241 130.06 89.6315C132.75 90.4974 135.526 91.1364 138.33 91.4905C144.137 92.2236 150.122 91.8806 155.782 90.3812C166.194 87.623 175.52 81.1716 181.646 72.3189C182.352 71.298 184.026 72.2442 183.33 73.2982Z" fill="#D5B993"/>
<path d="M127.245 80.1147C124.427 87.6146 118.523 93.8337 111.272 97.242C104.077 100.625 95.1419 101.901 87.7943 98.3181C86.5004 97.6873 87.4396 95.7979 88.7363 96.0856C95.9398 97.6846 103.185 97.6625 110.045 94.6885C116.858 91.7367 122.629 86.5661 125.472 79.6278C125.909 78.5544 127.666 78.9915 127.245 80.1147Z" fill="#D5B993"/>
<path d="M90.5205 92.8903C87.6918 98.6142 83.0925 103.312 77.4904 106.371C74.7142 107.887 71.686 108.977 68.5829 109.589C65.8483 110.125 61.7201 110.864 59.2238 109.232C58.4397 108.717 58.6475 107.674 59.4704 107.356C60.7255 106.867 62.3019 106.938 63.6374 106.875C65.0753 106.806 66.5105 106.662 67.9263 106.402C70.7772 105.879 73.5561 104.944 76.1522 103.66C81.4219 101.057 85.9213 97.0235 88.8415 91.9138C89.4649 90.81 91.0691 91.7755 90.5205 92.8903Z" fill="#D5B993"/>
<path d="M122.139 100.443C117.894 103.699 112.907 105.959 107.659 107.021C105.13 107.533 102.537 107.807 99.9544 107.735C97.5329 107.669 94.308 107.517 92.2549 106.083C91.6122 105.635 91.9003 104.792 92.6317 104.695C93.812 104.54 95.0809 104.786 96.2668 104.877C97.4941 104.971 98.7215 105.077 99.9544 105.096C102.462 105.137 104.975 104.96 107.435 104.479C112.361 103.516 116.971 101.488 121.011 98.5172C122.177 97.6651 123.252 99.5878 122.139 100.443Z" fill="#D5B993"/>
<path d="M111.779 110.654C109.593 112.239 106.903 113.055 104.21 113.091C102.908 113.108 101.523 112.964 100.284 112.554C99.1371 112.175 97.2836 111.448 97.17 110.042C97.1423 109.71 97.4138 109.459 97.6936 109.354C98.2311 109.154 98.8213 109.39 99.3449 109.542C99.8907 109.702 100.417 109.932 100.96 110.101C102.06 110.438 103.157 110.682 104.31 110.715C106.607 110.784 108.84 110.172 110.763 108.917C111.862 108.197 112.807 109.907 111.779 110.654Z" fill="#D5B993"/>
<path d="M156.5 78.4521C163.285 77.4534 169.71 74.6841 175.179 70.5593C177.833 68.5564 180.26 66.1856 182.352 63.6045C183.452 62.2461 184.433 60.7992 185.342 59.3053C186.237 57.8308 186.946 56.5666 188.334 55.507C189.024 54.9786 189.913 55.7117 189.946 56.431C190.099 59.8392 187.156 63.1895 185.12 65.7014C182.784 68.5869 180.05 71.1016 177.044 73.2761C171.104 77.5724 164.116 80.1452 156.824 80.8534C155.466 80.9834 155.134 78.654 156.5 78.4521Z" fill="#D5B993"/>
<path d="M171.494 64.3127C176.285 61.8256 180.449 58.2099 183.627 53.8471C185.173 51.7252 186.48 49.4346 187.53 47.0278C188.076 45.7773 188.511 44.4964 188.952 43.2045C189.154 42.6152 189.334 42.0121 189.55 41.4284C189.827 40.6787 190.235 40.2278 190.7 39.5998C191.077 39.0908 191.916 39.099 192.105 39.7823C192.526 41.3094 192.426 42.5046 192.019 44.0483C191.667 45.3845 191.141 46.6875 190.595 47.9517C189.428 50.649 187.882 53.1721 186.09 55.4987C182.541 60.1048 177.903 63.7926 172.6 66.1939C171.339 66.7665 170.225 64.9711 171.494 64.3127Z" fill="#D5B993"/>
<path d="M176.393 49.606C178.116 47.0415 179.839 44.4741 181.563 41.9096C182.41 40.6453 183.272 39.3893 184.153 38.1472C184.973 36.9936 185.976 35.2783 187.475 34.963C188.051 34.8412 188.464 35.212 188.531 35.7653C188.702 37.2177 187.464 38.6812 186.666 39.7795C185.768 41.0161 184.854 42.2416 183.929 43.4561C182.078 45.8906 180.224 48.3279 178.371 50.7624C177.997 51.2548 177.382 51.512 176.803 51.1718C176.296 50.8757 176.046 50.1233 176.393 49.606Z" fill="#D5B993"/>
<path d="M116.262 64.3541C110.441 68.9105 103.537 71.7185 96.2003 72.6425C89.0355 73.5443 80.8345 72.7641 74.5785 68.9242C73.5672 68.3046 74.21 66.5479 75.4124 66.949C82.0868 69.176 88.5756 70.7308 95.6711 70.1083C102.667 69.4914 109.397 66.9379 115.032 62.7605C115.946 62.0772 117.171 63.6431 116.262 64.3541Z" fill="#D5B993"/>
<path d="M94.0032 62.1685C89.7365 63.7205 85.1539 64.1216 80.6683 63.4549C76.299 62.8048 71.6721 61.1256 68.4665 57.9939C67.749 57.294 68.6716 56.0795 69.5415 56.6024C73.1849 58.7934 76.7811 60.705 81.0091 61.499C85.201 62.2847 89.5342 61.9776 93.5793 60.6497C94.5601 60.326 94.948 61.8255 94.0032 62.1685Z" fill="#D5B993"/>
<path d="M79.391 53.0752C77.5015 53.0835 75.623 52.5551 73.9994 51.5951C72.3842 50.6407 70.7883 49.2243 70.4087 47.3126C70.2785 46.6597 71.0515 46.1258 71.5668 46.6403C72.6862 47.7552 73.6753 49.0472 74.9969 49.8937C76.3157 50.7375 77.8201 51.2355 79.3938 51.2825C80.5436 51.3157 80.5519 53.0697 79.391 53.0752Z" fill="#D5B993"/>
<path d="M290.137 107.63C296.811 104.028 302.474 98.6197 306.456 92.1738C308.415 89.0006 310.01 85.6034 311.121 82.0457C311.684 80.2447 312.111 78.4106 312.446 76.5515C312.753 74.8335 312.878 72.9329 313.69 71.3698C314.114 70.5565 315.189 70.883 315.471 71.6023C316.164 73.3756 315.807 75.5611 315.491 77.3898C315.155 79.3291 314.662 81.2462 314.053 83.1191C312.817 86.9175 311.094 90.5581 308.897 93.8973C304.497 100.584 298.449 106.006 291.217 109.481C289.99 110.067 288.912 108.291 290.137 107.63Z" fill="#D5B993"/>
<path d="M291.999 97.004C296.742 94.1933 300.36 89.7116 302.253 84.5438C303.175 82.0208 303.693 79.4009 303.804 76.7202C303.86 75.3923 303.829 74.0588 303.663 72.7365C303.511 71.5248 303.006 70.0087 303.688 68.8966C303.971 68.4346 304.561 68.2824 305.034 68.5452C306.295 69.2396 306.495 71.0406 306.664 72.3326C306.863 73.8514 306.941 75.3895 306.846 76.9194C306.664 79.9155 305.935 82.8867 304.78 85.6532C302.458 91.2165 298.421 95.9776 293.104 98.888C291.869 99.5658 290.788 97.7233 291.999 97.004Z" fill="#D5B993"/>
<path d="M290.758 84.0348C292.944 82.2919 294.429 79.9128 295.102 77.2044C295.423 75.9069 295.534 74.5818 295.451 73.2484C295.409 72.5734 295.296 71.9205 295.152 71.2593C294.972 70.4349 294.689 69.7322 294.825 68.8746C294.825 69.1042 294.825 69.3338 294.825 69.5634C294.711 68.9437 294.645 68.5039 294.966 67.934C295.166 67.5799 295.567 67.4637 295.944 67.5356C296.836 67.7099 297.443 68.6781 297.726 69.4776C298.028 70.3325 298.194 71.2039 298.305 72.103C298.524 73.8708 298.402 75.669 298.014 77.4064C297.23 80.9087 295.246 83.985 292.412 86.1705C291.195 87.1084 289.547 85.0003 290.758 84.0348Z" fill="#D5B993"/>
<path d="M333.458 48.5908C319.461 55.3327 300.837 54.5331 288.779 44.1367C287.956 43.4257 289.02 42.0839 289.935 42.6428C302.746 50.4968 318.403 53.172 332.452 46.8728C333.605 46.3582 334.622 48.0292 333.458 48.5908Z" fill="#D5B993"/>
<path d="M317.885 43.7743C312.238 45.1464 306.248 44.6761 300.845 42.5487C298.213 41.5112 295.72 40.1418 293.498 38.3851C291.459 36.7722 288.746 34.4651 288.051 31.859C287.901 31.2947 288.594 30.6251 289.131 31.0291C290.129 31.7788 290.843 32.8051 291.694 33.7125C292.6 34.678 293.528 35.6104 294.545 36.4625C296.615 38.1915 298.923 39.6328 301.394 40.7173C306.436 42.9305 312.127 43.5862 317.524 42.463C318.375 42.2831 318.741 43.5668 317.885 43.7743Z" fill="#D5B993"/>
<path d="M304.638 32.6281C302.339 30.8631 300.036 29.1064 297.728 27.358C296.609 26.5087 295.49 25.6622 294.37 24.8129C293.24 23.958 291.816 23.1059 291.093 21.861C290.746 21.2662 291.323 20.4556 292.01 20.6714C293.351 21.0892 294.462 22.2207 295.52 23.1087C296.631 24.041 297.739 24.9733 298.851 25.9028C301.07 27.7674 303.297 29.6237 305.53 31.4745C306.165 32.0001 305.303 33.1399 304.638 32.6281Z" fill="#D5B993"/>
<path d="M264.78 61.228C260.007 66.7416 253.51 70.5953 246.445 72.3824C239.634 74.1059 231.608 74.2554 225.261 70.9024C224.302 70.3961 224.978 68.9714 225.978 69.2038C232.697 70.7613 239.23 71.6189 246.043 69.9866C252.703 68.3904 258.771 64.8991 263.356 59.806C264.229 58.8378 265.623 60.257 264.78 61.228Z" fill="#D5B993"/>
<path d="M245.691 63.3692C242.244 64.4619 238.612 64.7165 235.038 64.1964C231.619 63.6984 227.815 62.5227 225.346 60.0024C224.825 59.4713 225.482 58.7686 226.094 59.0342C229.161 60.3676 232.018 61.8642 235.365 62.4175C238.662 62.9598 242.048 62.7108 245.239 61.7425C246.287 61.4272 246.724 63.0427 245.691 63.3692Z" fill="#D5B993"/>
<path d="M235.323 51.8469C233.813 52.0654 232.292 51.8939 230.879 51.3046C230.167 51.0086 229.527 50.6213 228.926 50.1372C228.328 49.6558 227.906 49.0167 227.56 48.3362C227.35 47.9212 227.87 47.4731 228.222 47.8244C228.685 48.2864 229.217 48.6599 229.732 49.0555C230.242 49.4456 230.824 49.772 231.414 50.0321C232.586 50.5466 233.88 50.7126 235.146 50.5521C235.877 50.4608 236.06 51.7418 235.323 51.8469Z" fill="#D5B993"/>
<path d="M433.507 38.3963C427.337 42.7895 420.017 45.2986 412.473 45.8575C408.782 46.1313 405.062 45.8962 401.429 45.1852C398.11 44.5378 393.475 43.5475 391.12 40.9331C390.71 40.4794 390.945 39.5056 391.68 39.5859C393.367 39.7712 394.86 40.5099 396.448 41.0632C398.132 41.6496 399.861 42.1504 401.601 42.5404C405.07 43.3178 408.649 43.6138 412.201 43.4672C419.471 43.1656 426.545 40.8778 432.576 36.8111C433.568 36.1444 434.458 37.7213 433.507 38.3963Z" fill="#D5B993"/>
<path d="M415.396 34.6644C413.645 34.1415 411.891 33.6186 410.14 33.0957C408.378 32.5701 406.596 32.1219 404.942 31.3058C404.261 30.9683 404.554 29.7179 405.347 29.8147C407.181 30.0443 408.907 30.6336 410.675 31.1647C412.426 31.6904 414.177 32.2188 415.928 32.7444C417.15 33.1152 416.629 35.0296 415.396 34.6644Z" fill="#D5B993"/>
<path d="M460.349 35.0653C461.141 34.2299 461.939 33.4026 462.693 32.5312C462.637 32.6004 462.585 32.6696 462.532 32.7415C462.543 32.7249 462.557 32.7083 462.568 32.6945C462.532 32.7775 462.499 32.8605 462.463 32.9434C462.48 32.8936 462.496 32.8439 462.516 32.7913C462.516 32.9905 462.516 33.1896 462.516 33.3888C462.513 33.3805 462.51 33.3695 462.507 33.3612C462.36 32.7581 462.696 32.0664 463.33 31.9115C463.505 31.87 463.682 31.8369 463.856 31.8009C464.502 31.6709 465.037 32.1854 464.895 32.8383C464.857 33.0126 464.823 33.1869 464.782 33.3584C464.621 33.9809 463.94 34.3377 463.33 34.18C463.319 34.1773 463.311 34.1745 463.3 34.1718C463.499 34.1718 463.699 34.1718 463.898 34.1718C463.848 34.1884 463.796 34.205 463.746 34.2216C463.829 34.1856 463.912 34.1523 463.995 34.1164C463.978 34.1274 463.962 34.1413 463.945 34.1523C464.014 34.0998 464.084 34.0445 464.156 33.9919C463.275 34.7333 462.435 35.5218 461.587 36.3019C461.249 36.6118 460.676 36.6588 460.349 36.3019C460.019 35.945 460.011 35.4194 460.349 35.0653Z" fill="#D5B993"/>
<path d="M107.288 248.975C102.085 254.939 95.1558 259.222 87.5671 261.449C80.4577 263.535 71.3452 264.445 64.5295 260.962C63.7621 260.569 64.0945 259.208 64.9839 259.291C68.6106 259.623 72.1819 260.317 75.8363 260.339C79.5628 260.359 83.2726 259.889 86.8689 258.918C94.1223 256.962 100.716 253.019 105.773 247.462C106.706 246.438 108.189 247.946 107.288 248.975Z" fill="#D5B993"/>
<path d="M82.1838 251.229C74.7032 255.966 64.0973 257.44 56.1567 252.978C55.0956 252.383 55.8049 250.646 56.9907 251.003C60.936 252.192 65.0227 252.997 69.1592 252.754C73.3206 252.51 77.3629 251.235 80.9259 249.083C82.3029 248.253 83.5331 250.377 82.1838 251.229Z" fill="#D5B993"/>
<path d="M66.3747 244.219C64.33 244.77 62.2244 244.869 60.1353 244.573C59.185 244.438 58.2375 244.225 57.3398 243.876C56.2897 243.467 54.8906 242.991 54.813 241.68C54.7964 241.378 54.9931 241.049 55.2563 240.905C56.2316 240.374 57.1902 241.024 58.1294 241.339C58.9578 241.619 59.8001 241.854 60.6645 242.001C62.3158 242.277 64.0641 242.175 65.6959 241.763C67.289 241.359 67.9651 243.79 66.3747 244.219Z" fill="#D5B993"/>
<path d="M60.1436 235.632C59.4094 235.118 58.6752 234.6 57.941 234.086C57.5864 233.837 57.2234 233.593 56.8743 233.336C56.6361 233.159 56.4116 232.962 56.1845 232.772C56.0515 232.661 55.9323 232.547 55.8464 232.393C55.7661 232.249 55.7162 232.086 55.6636 231.931C55.4835 231.402 55.9656 230.777 56.5197 230.807C56.8633 230.827 57.1625 230.871 57.4506 231.067C57.6695 231.214 57.8939 231.358 58.1017 231.518C58.4841 231.812 58.8525 232.124 59.2266 232.426C59.922 232.99 60.6174 233.554 61.3128 234.122C61.6841 234.423 61.6564 235.04 61.3876 235.383C61.1161 235.737 60.5398 235.909 60.1436 235.632Z" fill="#D5B993"/>
<path d="M102.711 226.727C105.385 225.377 108.056 224.029 110.729 222.679C112.043 222.015 113.356 221.354 114.669 220.69C115.985 220.026 117.431 219.091 118.955 219.354C119.631 219.47 119.845 220.32 119.565 220.845C118.867 222.143 117.104 222.713 115.847 223.299C114.556 223.902 113.264 224.505 111.976 225.108C109.302 226.356 106.632 227.604 103.958 228.854C102.537 229.515 101.282 227.449 102.711 226.727Z" fill="#D5B993"/>
<path d="M95.8124 218.746C97.5357 218.123 99.2618 217.501 100.985 216.878C101.816 216.579 102.645 216.281 103.476 215.979C103.925 215.816 104.365 215.658 104.833 215.553C105.34 215.437 105.809 215.473 106.327 215.506C106.995 215.548 107.599 216.494 106.947 217C106.543 217.315 106.166 217.672 105.684 217.86C105.238 218.037 104.792 218.173 104.329 218.295C103.445 218.524 102.559 218.754 101.675 218.986C99.8741 219.454 98.0704 219.924 96.2695 220.392C95.189 220.671 94.79 219.113 95.8124 218.746Z" fill="#D5B993"/>
<path d="M549.399 19.8139C540.583 26.4285 529.811 30.0857 518.834 30.7193C513.428 31.0319 507.953 30.5311 502.678 29.3111C499.957 28.6804 497.287 27.8422 494.699 26.7937C492.263 25.8088 489.28 24.7437 487.523 22.7104C486.445 21.4599 487.479 19.6507 489.113 19.9826C491.604 20.4889 493.92 22.0907 496.273 23.0479C498.697 24.0328 501.204 24.8239 503.748 25.4353C508.685 26.6221 513.761 27.0675 518.834 26.8794C529.215 26.4949 539.353 23.1364 547.792 17.0695C549.468 15.8633 551.009 18.6049 549.399 19.8139Z" fill="#D5B993"/>
<path d="M522.219 17.7694C518.077 19.3933 513.517 20.1237 509.07 19.7751C506.876 19.6036 504.684 19.208 502.576 18.5773C500.517 17.9603 498.209 17.288 496.929 15.4566C496.491 14.8314 497.073 13.9212 497.799 13.9434C499.766 14.0042 501.517 15.1219 503.362 15.7278C505.346 16.3779 507.396 16.815 509.472 17.0197C513.605 17.4263 517.7 16.9948 521.637 15.6641C522.989 15.2077 523.502 17.2686 522.219 17.7694Z" fill="#D5B993"/>
<path d="M511.309 9.09376C509.111 9.59173 506.84 9.76604 504.595 9.55026C502.376 9.34 499.924 8.94157 498.082 7.62196C497.22 7.00227 497.71 5.59973 498.824 5.86531C500.83 6.34391 502.711 7.15998 504.767 7.46983C506.77 7.76861 508.843 7.73541 510.838 7.38684C511.943 7.19042 512.439 8.83648 511.309 9.09376Z" fill="#D5B993"/>
<path d="M406.38 9.08813C400.806 16.0458 392.996 20.9978 384.329 23.1224C375.402 25.3107 366.051 24.2097 357.726 20.3975C352.994 18.2314 348.779 15.1578 345.239 11.3512C343.765 9.76321 346.103 7.40341 347.627 8.96647C355.221 16.7569 365.797 21.2302 376.704 20.9204C387.438 20.6161 397.764 15.5617 404.818 7.52785C405.771 6.44616 407.25 8.0009 406.38 9.08813Z" fill="#D5B993"/>
<path d="M356.388 2.97425C349.45 10.8974 338.767 14.2643 328.457 14.1536C322.423 14.09 316.435 12.8367 310.684 11.0828C307.617 10.1477 304.605 9.05772 301.629 7.8626C298.826 6.73665 295.867 5.66606 293.487 3.76549C292.608 3.0628 293.315 1.35867 294.434 1.47762C297.31 1.78194 300.009 2.99086 302.699 3.98955C305.5 5.02975 308.312 6.04507 311.163 6.93864C316.51 8.61513 322.049 9.87938 327.662 10.1311C337.287 10.5599 347.461 8.00093 354.271 0.863424C355.615 -0.536412 357.643 1.54121 356.388 2.97425Z" fill="#D5B993"/>
<path d="M298.44 1.6602C294.248 4.9606 289.317 7.32598 284.044 8.27211C281.465 8.73688 278.836 8.93603 276.215 8.80324C273.738 8.67875 270.538 8.42429 268.568 6.78377C267.753 6.10598 268.518 5.04636 269.332 4.93846C270.485 4.78631 271.674 5.10725 272.818 5.26494C274.023 5.4337 275.223 5.58582 276.439 5.66605C278.855 5.82374 281.304 5.72698 283.692 5.31754C288.524 4.49036 293.057 2.71427 297.061 -0.121362C298.105 -0.86001 299.454 0.860687 298.44 1.6602Z" fill="#D5B993"/>
<path d="M259.095 22.4504C253.856 25.037 246.561 25.8227 241.446 22.5057C240.529 21.9109 241.089 20.3561 242.214 20.6881C244.813 21.4544 247.411 22.2152 250.141 22.2954C252.872 22.3757 255.615 21.8804 258.123 20.7905C259.234 20.3063 260.225 21.8915 259.095 22.4504Z" fill="#D5B993"/>
<path d="M250.825 16.8289C249.409 16.2866 247.993 15.7417 246.578 15.1994C245.137 14.6461 243.646 14.0873 242.405 13.1495C242.117 12.9309 241.934 12.6183 242.036 12.2476C242.122 11.9349 242.463 11.6224 242.809 11.6611C244.35 11.8354 245.771 12.3859 247.193 12.9751C248.597 13.5589 250.002 14.1426 251.407 14.7236C251.952 14.9505 252.34 15.4484 252.171 16.0653C252.027 16.5937 251.379 17.0419 250.825 16.8289Z" fill="#D5B993"/>
<path d="M248.392 9.15742C247.204 8.92503 246.015 8.6954 244.826 8.46301C244.245 8.34959 243.66 8.23612 243.075 8.12269C242.771 8.0646 242.48 7.98437 242.183 7.89584C242.009 7.84328 241.815 7.79078 241.66 7.70225C241.427 7.56669 241.294 7.35362 241.139 7.14613C240.842 6.75329 241.05 6.01745 241.488 5.81549C241.732 5.70207 241.956 5.58037 242.236 5.58037C242.411 5.58037 242.624 5.63288 242.798 5.66885C243.103 5.72971 243.397 5.7989 243.693 5.88743C244.261 6.06171 244.826 6.23597 245.394 6.40749C246.55 6.7616 247.702 7.11572 248.858 7.46982C249.309 7.60815 249.597 8.08124 249.47 8.546C249.337 9.03014 248.858 9.24871 248.392 9.15742Z" fill="#D5B993"/>
<path d="M631.395 17.7473C623.734 23.3245 614.428 26.1353 604.969 26.1242C600.295 26.1187 595.593 25.405 591.135 24.0024C588.924 23.308 586.744 22.4503 584.671 21.4101C582.978 20.5636 580.033 19.2661 579.501 17.3074C579.296 16.5522 579.864 15.9685 580.576 15.8993C582.422 15.714 584.768 17.6754 586.384 18.4887C588.284 19.4459 590.235 20.2648 592.257 20.926C596.446 22.2954 600.829 23.0202 605.232 23.1171C614.092 23.3162 622.992 20.9426 630.422 16.0874C631.478 15.3958 632.378 17.0308 631.395 17.7473Z" fill="#D5B993"/>
<path d="M605.423 12.3719C600.921 14.3721 595.986 14.8839 591.149 13.9627C588.808 13.5173 586.522 12.7012 584.416 11.5863C582.859 10.7619 579.305 8.81425 579.74 6.68406C579.798 6.39358 580.078 6.1363 580.36 6.06437C581.347 5.81816 582.167 6.54023 582.943 7.06862C583.826 7.67171 584.699 8.27756 585.622 8.81979C587.522 9.93468 589.573 10.7259 591.72 11.2183C595.986 12.1949 600.442 11.8214 604.487 10.1588C605.747 9.64146 606.675 11.8159 605.423 12.3719Z" fill="#D5B993"/>
<path d="M591.961 4.23304C591.116 3.807 590.274 3.38367 589.429 2.9604C589.013 2.75291 588.597 2.5482 588.209 2.29369C587.788 2.01704 587.398 1.66572 587.021 1.33098C586.796 1.13179 586.769 0.755537 586.916 0.506554C587.074 0.23544 587.387 0.133062 587.686 0.193924C588.129 0.285218 588.586 0.368199 589.013 0.525888C589.517 0.711241 589.994 0.94641 590.473 1.18433C591.321 1.60483 592.166 2.02262 593.014 2.44312C593.501 2.6838 593.676 3.41415 593.388 3.86232C593.061 4.35752 592.482 4.49309 591.961 4.23304Z" fill="#D5B993"/>
<path d="M169.749 15.7831C163.063 21.3548 154.594 24.2374 145.902 24.2098C141.613 24.1959 137.274 23.4988 133.224 22.0768C129.569 20.7932 124.541 18.7653 122.346 15.3985C121.718 14.4358 122.781 12.8755 123.934 13.3348C125.743 14.0596 127.242 15.3488 128.927 16.3226C130.592 17.2853 132.334 18.0903 134.144 18.7487C137.84 20.0905 141.721 20.8237 145.653 20.915C153.543 21.0975 161.589 18.7681 167.834 13.8742C169.178 12.8202 171.101 14.6544 169.749 15.7831Z" fill="#D5B993"/>
<path d="M139.316 31.8646C132.609 33.3253 125.505 32.3155 119.468 29.04C118.191 28.3484 116.138 27.3497 115.498 25.9831C115.196 25.3385 115.256 24.5224 115.891 24.0991C116.595 23.6316 117.442 23.9331 118.088 24.337C119.559 25.2583 120.936 26.2652 122.499 27.0454C123.981 27.7868 125.535 28.365 127.134 28.8049C130.866 29.8312 134.806 30.0193 138.613 29.3C140.275 28.9874 141.004 31.4994 139.316 31.8646Z" fill="#D5B993"/>
<path d="M119.274 38.3851C117.778 37.3947 116.282 36.4016 114.785 35.4112C114.06 34.9298 113.334 34.4485 112.611 33.9699C111.724 33.3834 110.688 32.7194 110.649 31.5354C110.635 31.1121 110.951 30.7635 111.333 30.639C112.336 30.3126 113.273 30.9738 114.035 31.5354C114.761 32.0693 115.486 32.6032 116.212 33.1372C117.642 34.1884 119.072 35.2424 120.498 36.2937C121.025 36.681 121.288 37.3422 120.933 37.9508C120.615 38.4903 119.822 38.7475 119.274 38.3851Z" fill="#D5B993"/>
<path d="M653.82 36.7696C657.43 40.0673 661.567 42.961 665.581 45.7524C669.51 48.4857 673.613 50.9672 677.869 53.1555C686.555 57.6233 695.953 60.7495 705.58 62.4121C724.595 65.6931 744.491 62.5919 761.782 54.1071C766.633 51.7252 771.288 48.9393 775.674 45.78C777.877 44.192 780.002 42.5018 782.046 40.7174C784.155 38.8804 786.066 36.8111 788.252 35.0737C789.71 33.9146 792.433 35.4528 791.109 37.2731C788.216 41.2458 784.069 44.4743 780.196 47.4593C776.209 50.5329 771.997 53.3048 767.584 55.7255C758.693 60.6028 749.029 64.1495 739.069 66.0971C718.998 70.0199 698.069 67.2617 679.587 58.5667C674.478 56.1626 669.615 53.3131 665.041 50.0044C662.728 48.3307 660.392 46.5657 658.331 44.5876C656.23 42.5709 654.352 40.3439 652.413 38.1778C651.556 37.2233 652.87 35.9009 653.82 36.7696Z" fill="#D5B993"/>
<path d="M681.967 42.7922C689.888 47.9821 698.701 51.7279 707.922 53.8996C712.546 54.9896 717.256 55.6591 721.999 55.8942C726.693 56.1266 731.383 55.7504 736.06 56.2262C737.038 56.3258 737.257 57.6011 736.293 57.9442C731.716 59.5764 726.803 59.546 721.999 59.25C717.07 58.9457 712.158 58.2015 707.362 57.0313C697.803 54.6964 688.763 50.5854 680.701 44.9583C679.393 44.0426 680.604 41.8959 681.967 42.7922Z" fill="#D5B993"/>
<path d="M703.303 40.9109C709.93 43.4893 717.043 44.7674 724.155 44.4852C727.682 44.3441 731.173 43.8517 734.589 42.9747C736.276 42.5431 737.93 42.0036 739.576 41.4393C741.379 40.8196 742.961 40.3382 744.84 40.0146C745.666 39.8735 746.416 40.8445 745.713 41.514C744.325 42.8363 743.081 43.6691 741.296 44.4132C739.507 45.1602 737.672 45.7605 735.797 46.2502C732.098 47.2157 728.266 47.7828 724.446 47.9101C716.76 48.1674 709.191 46.7122 702.187 43.5529C700.707 42.8889 701.768 40.3134 703.303 40.9109Z" fill="#D5B993"/>
<path d="M704.6 29.8203C709.623 31.7762 714.987 32.8357 720.384 32.8523C723.008 32.8606 725.62 32.6282 728.2 32.1524C729.466 31.92 730.724 31.635 731.965 31.292C732.622 31.1094 733.295 30.83 733.982 30.7941C734.688 30.7553 735.353 30.9213 736.068 30.8356C736.935 30.7277 737.074 31.9477 736.478 32.3461C735.869 32.7527 735.417 33.3668 734.78 33.7348C734.198 34.0695 733.467 34.2189 732.824 34.3932C731.405 34.7805 729.965 35.0987 728.51 35.3311C725.734 35.7737 722.919 35.9702 720.11 35.8899C714.385 35.7239 708.861 34.4375 703.627 32.133C702.325 31.5576 703.259 29.2974 704.6 29.8203Z" fill="#D5B993"/>
<path d="M708.542 21.8749C711.504 22.1682 714.485 21.9718 717.397 21.3549C718.852 21.0478 720.281 20.6245 721.664 20.0767C722.307 19.8222 722.927 19.4764 723.581 19.2606C723.786 19.1997 723.997 19.1582 724.21 19.1444C724.446 19.1444 724.664 19.2053 724.867 19.3215C724.692 19.1582 724.753 19.078 725.047 19.0835C725.23 19.0254 725.415 18.9646 725.598 18.9009C726.288 18.6658 726.928 19.6894 726.335 20.1652C726.069 20.3782 725.701 20.583 725.473 20.8375C725.371 20.9509 725.127 21.3686 724.867 21.5623C724.238 22.0354 723.387 22.2733 722.647 22.5251C721.096 23.0507 719.5 23.4242 717.879 23.6566C714.701 24.1103 711.485 23.889 708.376 23.1088C707.706 22.9401 707.825 21.8058 708.542 21.8749Z" fill="#D5B993"/>
<path d="M667.413 10.0343C670.474 11.3595 673.752 12.2614 677.063 12.6819C680.354 13.0996 683.668 12.9475 686.973 13.0885C687.879 13.1273 688.056 14.3805 687.186 14.6599C683.748 15.7554 680.083 15.5867 676.558 15.0666C672.99 14.5437 669.549 13.4814 666.268 11.9958C664.927 11.39 666.091 9.46445 667.413 10.0343Z" fill="#D5B993"/>
<path d="M771.817 12.4384C775.383 11.9736 778.932 10.9832 782.215 9.51696C783.878 8.77554 785.485 7.91246 787.036 6.96079C788.546 6.03402 790.006 4.92188 791.691 4.33539C792.508 4.05044 793.209 5.06571 792.791 5.76287C791.813 7.39232 790.12 8.54041 788.541 9.5308C786.853 10.5876 785.069 11.4922 783.241 12.2724C779.578 13.8382 775.771 14.8397 771.82 15.3349C771.036 15.4318 770.377 14.599 770.371 13.888C770.357 13.0221 771.044 12.5407 771.817 12.4384Z" fill="#D5B993"/>
<path d="M1074.13 464.289C1075.55 465.927 1074.92 469.049 1076.15 470.845C1077.9 473.404 1082.12 474.033 1085 474.632C1082.73 475.304 1080.05 475.605 1078.02 476.841C1075.17 478.572 1074.74 482.347 1074.09 485.289L1073.81 485.24C1073.66 482.922 1073.04 480.455 1071.76 478.47C1070.03 475.777 1065.92 475.415 1063 474.814C1065.35 474.266 1068.05 473.837 1070.09 472.502C1072.95 470.624 1073.44 467.331 1074.13 464.289Z" fill="#D5B993"/>
<path d="M385.118 828C387.943 831.331 386.691 837.681 389.131 841.334C392.607 846.538 400.998 847.818 406.72 849.036C402.212 850.402 396.885 851.016 392.847 853.528C387.186 857.049 386.331 864.727 385.032 870.711L384.48 870.612C384.193 865.897 382.959 860.879 380.418 856.841C376.972 851.364 368.812 850.629 363 849.406C367.68 848.291 373.04 847.419 377.088 844.704C382.782 840.884 383.757 834.187 385.118 828Z" fill="#D5B993"/>
<path d="M490.13 536.289C491.552 537.927 490.921 541.049 492.149 542.845C493.899 545.404 498.121 546.033 501 546.632C498.731 547.304 496.051 547.605 494.019 548.841C491.171 550.572 490.74 554.347 490.087 557.289L489.809 557.24C489.664 554.922 489.043 552.455 487.765 550.47C486.031 547.777 481.925 547.415 479 546.814C481.355 546.266 484.052 545.837 486.089 544.502C488.954 542.624 489.445 539.331 490.13 536.289Z" fill="#D5B993"/>
<path d="M1035.13 886.289C1036.55 887.927 1035.92 891.049 1037.15 892.845C1038.9 895.404 1043.12 896.033 1046 896.632C1043.73 897.304 1041.05 897.605 1039.02 898.841C1036.17 900.572 1035.74 904.347 1035.09 907.289L1034.81 907.24C1034.66 904.922 1034.04 902.455 1032.76 900.47C1031.03 897.777 1026.92 897.415 1024 896.814C1026.35 896.266 1029.05 895.837 1031.09 894.502C1033.95 892.624 1034.44 889.331 1035.13 886.289Z" fill="#D5B993"/>
<path d="M1302.12 604C1304.94 607.331 1303.69 613.681 1306.13 617.334C1309.61 622.538 1318 623.818 1323.72 625.036C1319.21 626.402 1313.88 627.016 1309.85 629.528C1304.19 633.049 1303.33 640.727 1302.03 646.711L1301.48 646.612C1301.19 641.897 1299.96 636.879 1297.42 632.841C1293.97 627.364 1285.81 626.629 1280 625.406C1284.68 624.291 1290.04 623.419 1294.09 620.704C1299.78 616.884 1300.76 610.187 1302.12 604Z" fill="#D5B993"/>
<path d="M125.118 443C127.943 446.331 126.691 452.681 129.131 456.334C132.607 461.538 140.998 462.818 146.72 464.036C142.212 465.402 136.885 466.016 132.847 468.528C127.186 472.049 126.331 479.727 125.032 485.711L124.48 485.612C124.193 480.897 122.959 475.879 120.418 471.841C116.972 466.364 108.812 465.629 103 464.406C107.68 463.291 113.04 462.419 117.088 459.704C122.782 455.884 123.757 449.187 125.118 443Z" fill="#D5B993"/>
<path d="M279.13 266.289C280.552 267.927 279.921 271.049 281.149 272.845C282.899 275.404 287.121 276.033 290 276.632C287.731 277.304 285.051 277.605 283.019 278.841C280.171 280.572 279.74 284.347 279.087 287.289L278.809 287.24C278.664 284.922 278.043 282.455 276.765 280.47C275.031 277.777 270.925 277.415 268 276.814C270.355 276.266 273.052 275.837 275.089 274.502C277.954 272.624 278.445 269.331 279.13 266.289Z" fill="#D5B993"/>
<path d="M1176.12 198C1178.94 201.331 1177.69 207.681 1180.13 211.334C1183.61 216.538 1192 217.818 1197.72 219.036C1193.21 220.402 1187.88 221.016 1183.85 223.528C1178.19 227.049 1177.33 234.727 1176.03 240.711L1175.48 240.612C1175.19 235.897 1173.96 230.879 1171.42 226.841C1167.97 221.364 1159.81 220.629 1154 219.406C1158.68 218.291 1164.04 217.419 1168.09 214.704C1173.78 210.884 1174.76 204.187 1176.12 198Z" fill="#D5B993"/>
</svg>
