<svg width="1440" height="1024" viewBox="0 0 1440 1024" fill="none" xmlns="http://www.w3.org/2000/svg">
<rect width="1440" height="1024" fill="#1B2628"/>
<path d="M1089.92 394.011C1091.34 395.649 1090.71 398.771 1091.94 400.567C1093.69 403.126 1097.91 403.755 1100.79 404.354C1098.52 405.026 1095.84 405.328 1093.81 406.563C1090.96 408.294 1090.53 412.069 1089.88 415.011L1089.6 414.963C1089.45 412.644 1088.83 410.177 1087.56 408.192C1085.82 405.499 1081.72 405.137 1078.79 404.536C1081.15 403.988 1083.84 403.559 1085.88 402.224C1088.74 400.346 1089.24 397.053 1089.92 394.011Z" fill="#D5B993"/>
<path d="M421.029 810.667C423.773 814.503 422.557 821.818 424.927 826.025C428.304 832.02 436.454 833.494 442.012 834.897C437.633 836.47 432.459 837.178 428.536 840.071C423.038 844.127 422.208 852.971 420.946 859.863L420.409 859.749C420.13 854.318 418.932 848.538 416.464 843.887C413.117 837.578 405.191 836.732 399.545 835.323C404.091 834.039 409.298 833.034 413.229 829.907C418.76 825.507 419.707 817.793 421.029 810.667Z" fill="#D5B993"/>
<path d="M522.665 476.944C524.086 478.582 523.456 481.704 524.684 483.5C526.433 486.059 530.656 486.688 533.535 487.287C531.266 487.959 528.586 488.261 526.554 489.496C523.706 491.227 523.275 495.002 522.622 497.944L522.344 497.896C522.199 495.577 521.578 493.11 520.3 491.125C518.566 488.432 514.46 488.07 511.535 487.469C513.89 486.921 516.587 486.492 518.624 485.157C521.489 483.279 521.98 479.986 522.665 476.944Z" fill="#D5B993"/>
<path d="M1052.04 880.092C1053.46 881.73 1052.83 884.852 1054.06 886.648C1055.81 889.207 1060.03 889.836 1062.91 890.435C1060.64 891.107 1057.96 891.409 1055.93 892.644C1053.08 894.375 1052.65 898.15 1052 901.092L1051.72 901.044C1051.57 898.725 1050.95 896.258 1049.67 894.273C1047.94 891.58 1043.83 891.218 1040.91 890.617C1043.26 890.069 1045.96 889.64 1048 888.305C1050.86 886.427 1051.35 883.134 1052.04 880.092Z" fill="#D5B993"/>
<path d="M1311.74 552.652C1314.48 556.489 1313.26 563.803 1315.64 568.011C1319.01 574.005 1327.16 575.479 1332.72 576.882C1328.34 578.456 1323.17 579.163 1319.24 582.056C1313.75 586.112 1312.92 594.956 1311.65 601.849L1311.12 601.735C1310.84 596.304 1309.64 590.524 1307.17 585.872C1303.82 579.564 1295.9 578.717 1290.25 577.308C1294.8 576.024 1300.01 575.02 1303.94 571.892C1309.47 567.492 1310.41 559.778 1311.74 552.652Z" fill="#D5B993"/>
<path d="M168.484 367.204C171.228 371.04 170.011 378.355 172.382 382.562C175.759 388.557 183.909 390.031 189.466 391.434C185.087 393.007 179.913 393.715 175.991 396.608C170.493 400.664 169.662 409.508 168.4 416.4L167.864 416.286C167.585 410.855 166.386 405.075 163.919 400.424C160.571 394.115 152.645 393.269 147 391.86C151.545 390.576 156.752 389.571 160.684 386.444C166.215 382.044 167.161 374.33 168.484 367.204Z" fill="#D5B993"/>
<path d="M317.714 165.944C319.136 167.582 318.506 170.704 319.734 172.5C321.483 175.059 325.706 175.688 328.585 176.287C326.316 176.959 323.636 177.261 321.604 178.496C318.755 180.227 318.325 184.002 317.671 186.944L317.393 186.896C317.249 184.577 316.628 182.11 315.349 180.125C313.615 177.432 309.509 177.07 306.585 176.469C308.939 175.921 311.637 175.492 313.674 174.157C316.539 172.279 317.029 168.986 317.714 165.944Z" fill="#D5B993"/>
<path d="M1189.35 85C1192.09 88.8368 1190.88 96.1511 1193.25 100.359C1196.62 106.353 1204.78 107.827 1210.33 109.23C1205.95 110.804 1200.78 111.511 1196.86 114.404C1191.36 118.46 1190.53 127.304 1189.27 134.197L1188.73 134.083C1188.45 128.652 1187.25 122.872 1184.78 118.221C1181.44 111.912 1173.51 111.065 1167.87 109.657C1172.41 108.372 1177.62 107.368 1181.55 104.24C1187.08 99.8404 1188.03 92.1265 1189.35 85Z" fill="#D5B993"/>
</svg>
